<?xml version="1.0" encoding="UTF-8" standalone="no"?>
<!DOCTYPE svg PUBLIC "-//W3C//DTD SVG 1.1//EN"
 "http://www.w3.org/Graphics/SVG/1.1/DTD/svg11.dtd">
<!-- Generated by graphviz version 5.0.0 (20220707.1540)
 -->
<!-- Title: dependencies Pages: 1 -->
<svg width="2144pt" height="247pt"
 viewBox="0.00 0.00 2144.00 246.80" xmlns="http://www.w3.org/2000/svg" xmlns:xlink="http://www.w3.org/1999/xlink">
<g id="graph0" class="graph" transform="scale(1 1) rotate(0) translate(4 242.8)">
<title>dependencies</title>
<polygon fill="white" stroke="transparent" points="-4,4 -4,-242.8 2140,-242.8 2140,4 -4,4"/>
<text text-anchor="middle" x="1068" y="-8.2" font-family="sans-serif" font-size="14.00">dependencies</text>
<g id="clust1" class="cluster">
<title>cluster_LayoutsModule</title>
<polygon fill="none" stroke="black" stroke-dasharray="1,5" points="8,-32.8 8,-230.8 2128,-230.8 2128,-32.8 8,-32.8"/>
</g>
<g id="clust2" class="cluster">
<title>cluster_LayoutsModule_declarations</title>
<polygon fill="none" stroke="black" points="312,-40.8 312,-92.8 2120,-92.8 2120,-40.8 312,-40.8"/>
</g>
<g id="clust14" class="cluster">
<title>cluster_LayoutsModule_exports</title>
<polygon fill="none" stroke="black" points="120,-170.8 120,-222.8 1963,-222.8 1963,-170.8 120,-170.8"/>
</g>
<g id="clust13" class="cluster">
<title>cluster_LayoutsModule_imports</title>
<polygon fill="none" stroke="black" points="16,-40.8 16,-92.8 304,-92.8 304,-40.8 16,-40.8"/>
</g>
<!-- BreadcrumbComponent -->
<g id="node1" class="node">
<title>BreadcrumbComponent</title>
<polygon fill="#ffffb3" stroke="black" points="2112.03,-84.8 1961.97,-84.8 1961.97,-48.8 2112.03,-48.8 2112.03,-84.8"/>
<text text-anchor="middle" x="2037" y="-62.6" font-family="Times,serif" font-size="14.00">BreadcrumbComponent</text>
</g>
<!-- LayoutsModule -->
<g id="node11" class="node">
<title>LayoutsModule</title>
<polygon fill="#8dd3c7" stroke="black" points="1069.16,-149.8 1066.16,-153.8 1045.16,-153.8 1042.16,-149.8 964.84,-149.8 964.84,-113.8 1069.16,-113.8 1069.16,-149.8"/>
<text text-anchor="middle" x="1017" y="-127.6" font-family="Times,serif" font-size="14.00">LayoutsModule</text>
</g>
<!-- BreadcrumbComponent&#45;&gt;LayoutsModule -->
<g id="edge1" class="edge">
<title>BreadcrumbComponent&#45;&gt;LayoutsModule</title>
<path fill="none" stroke="black" d="M2037,-84.91C2037,-104.14 2037,-131.8 2037,-131.8 2037,-131.8 1079.34,-131.8 1079.34,-131.8"/>
<polygon fill="black" stroke="black" points="1079.34,-128.3 1069.34,-131.8 1079.34,-135.3 1079.34,-128.3"/>
</g>
<!-- BtnLoadingComponent -->
<g id="node2" class="node">
<title>BtnLoadingComponent</title>
<polygon fill="#ffffb3" stroke="black" points="1944.21,-84.8 1795.79,-84.8 1795.79,-48.8 1944.21,-48.8 1944.21,-84.8"/>
<text text-anchor="middle" x="1870" y="-62.6" font-family="Times,serif" font-size="14.00">BtnLoadingComponent</text>
</g>
<!-- BtnLoadingComponent&#45;&gt;LayoutsModule -->
<g id="edge2" class="edge">
<title>BtnLoadingComponent&#45;&gt;LayoutsModule</title>
<path fill="none" stroke="black" d="M1896.4,-85.07C1896.4,-103.36 1896.4,-128.8 1896.4,-128.8 1896.4,-128.8 1079.38,-128.8 1079.38,-128.8"/>
<polygon fill="black" stroke="black" points="1079.38,-125.3 1069.38,-128.8 1079.38,-132.3 1079.38,-125.3"/>
</g>
<!-- CreateDataCategoryCardComponent -->
<g id="node3" class="node">
<title>CreateDataCategoryCardComponent</title>
<polygon fill="#ffffb3" stroke="black" points="1777.32,-84.8 1554.68,-84.8 1554.68,-48.8 1777.32,-48.8 1777.32,-84.8"/>
<text text-anchor="middle" x="1666" y="-62.6" font-family="Times,serif" font-size="14.00">CreateDataCategoryCardComponent</text>
</g>
<!-- CreateDataCategoryCardComponent&#45;&gt;LayoutsModule -->
<g id="edge3" class="edge">
<title>CreateDataCategoryCardComponent&#45;&gt;LayoutsModule</title>
<path fill="none" stroke="black" d="M1583.88,-84.83C1583.88,-101.86 1583.88,-124.8 1583.88,-124.8 1583.88,-124.8 1079.31,-124.8 1079.31,-124.8"/>
<polygon fill="black" stroke="black" points="1079.31,-121.3 1069.31,-124.8 1079.31,-128.3 1079.31,-121.3"/>
</g>
<!-- DatatableScrollComponent -->
<g id="node4" class="node">
<title>DatatableScrollComponent</title>
<polygon fill="#ffffb3" stroke="black" points="1536.41,-84.8 1367.59,-84.8 1367.59,-48.8 1536.41,-48.8 1536.41,-84.8"/>
<text text-anchor="middle" x="1452" y="-62.6" font-family="Times,serif" font-size="14.00">DatatableScrollComponent</text>
</g>
<!-- DatatableScrollComponent&#45;&gt;LayoutsModule -->
<g id="edge4" class="edge">
<title>DatatableScrollComponent&#45;&gt;LayoutsModule</title>
<path fill="none" stroke="black" d="M1377.9,-84.81C1377.9,-100.85 1377.9,-121.8 1377.9,-121.8 1377.9,-121.8 1079.48,-121.8 1079.48,-121.8"/>
<polygon fill="black" stroke="black" points="1079.48,-118.3 1069.48,-121.8 1079.48,-125.3 1079.48,-118.3"/>
</g>
<!-- FeatherIconComponent -->
<g id="node5" class="node">
<title>FeatherIconComponent</title>
<polygon fill="#ffffb3" stroke="black" points="1350.19,-84.8 1201.81,-84.8 1201.81,-48.8 1350.19,-48.8 1350.19,-84.8"/>
<text text-anchor="middle" x="1276" y="-62.6" font-family="Times,serif" font-size="14.00">FeatherIconComponent</text>
</g>
<!-- FeatherIconComponent&#45;&gt;LayoutsModule -->
<g id="edge5" class="edge">
<title>FeatherIconComponent&#45;&gt;LayoutsModule</title>
<path fill="none" stroke="black" d="M1300.7,-84.92C1300.7,-99.58 1300.7,-117.8 1300.7,-117.8 1300.7,-117.8 1079.37,-117.8 1079.37,-117.8"/>
<polygon fill="black" stroke="black" points="1079.37,-114.3 1069.37,-117.8 1079.37,-121.3 1079.37,-114.3"/>
</g>
<!-- PayeReceiptComponent -->
<g id="node6" class="node">
<title>PayeReceiptComponent</title>
<polygon fill="#ffffb3" stroke="black" points="1183.8,-84.8 1032.2,-84.8 1032.2,-48.8 1183.8,-48.8 1183.8,-84.8"/>
<text text-anchor="middle" x="1108" y="-62.6" font-family="Times,serif" font-size="14.00">PayeReceiptComponent</text>
</g>
<!-- PayeReceiptComponent&#45;&gt;LayoutsModule -->
<g id="edge6" class="edge">
<title>PayeReceiptComponent&#45;&gt;LayoutsModule</title>
<path fill="none" stroke="black" d="M1050.84,-84.91C1050.84,-84.91 1050.84,-103.79 1050.84,-103.79"/>
<polygon fill="black" stroke="black" points="1047.34,-103.79 1050.84,-113.79 1054.34,-103.79 1047.34,-103.79"/>
</g>
<!-- RecaptchaComponent -->
<g id="node7" class="node">
<title>RecaptchaComponent</title>
<polygon fill="#ffffb3" stroke="black" points="1014.63,-84.8 875.37,-84.8 875.37,-48.8 1014.63,-48.8 1014.63,-84.8"/>
<text text-anchor="middle" x="945" y="-62.6" font-family="Times,serif" font-size="14.00">RecaptchaComponent</text>
</g>
<!-- RecaptchaComponent&#45;&gt;LayoutsModule -->
<g id="edge7" class="edge">
<title>RecaptchaComponent&#45;&gt;LayoutsModule</title>
<path fill="none" stroke="black" d="M989.74,-84.91C989.74,-84.91 989.74,-103.79 989.74,-103.79"/>
<polygon fill="black" stroke="black" points="986.24,-103.79 989.74,-113.79 993.24,-103.79 986.24,-103.79"/>
</g>
<!-- SearchIconComponent -->
<g id="node8" class="node">
<title>SearchIconComponent</title>
<polygon fill="#ffffb3" stroke="black" points="857.3,-84.8 712.7,-84.8 712.7,-48.8 857.3,-48.8 857.3,-84.8"/>
<text text-anchor="middle" x="785" y="-62.6" font-family="Times,serif" font-size="14.00">SearchIconComponent</text>
</g>
<!-- SearchIconComponent&#45;&gt;LayoutsModule -->
<g id="edge8" class="edge">
<title>SearchIconComponent&#45;&gt;LayoutsModule</title>
<path fill="none" stroke="black" d="M845.58,-84.92C845.58,-99.58 845.58,-117.8 845.58,-117.8 845.58,-117.8 954.64,-117.8 954.64,-117.8"/>
<polygon fill="black" stroke="black" points="954.64,-121.3 964.64,-117.8 954.64,-114.3 954.64,-121.3"/>
</g>
<!-- TaxEnumerationCardComponent -->
<g id="node9" class="node">
<title>TaxEnumerationCardComponent</title>
<polygon fill="#ffffb3" stroke="black" points="695.12,-84.8 492.88,-84.8 492.88,-48.8 695.12,-48.8 695.12,-84.8"/>
<text text-anchor="middle" x="594" y="-62.6" font-family="Times,serif" font-size="14.00">TaxEnumerationCardComponent</text>
</g>
<!-- TaxEnumerationCardComponent&#45;&gt;LayoutsModule -->
<g id="edge9" class="edge">
<title>TaxEnumerationCardComponent&#45;&gt;LayoutsModule</title>
<path fill="none" stroke="black" d="M684.67,-84.81C684.67,-100.85 684.67,-121.8 684.67,-121.8 684.67,-121.8 954.71,-121.8 954.71,-121.8"/>
<polygon fill="black" stroke="black" points="954.71,-125.3 964.71,-121.8 954.71,-118.3 954.71,-125.3"/>
</g>
<!-- TestPaymentComponent -->
<g id="node10" class="node">
<title>TestPaymentComponent</title>
<polygon fill="#ffffb3" stroke="black" points="474.43,-84.8 319.57,-84.8 319.57,-48.8 474.43,-48.8 474.43,-84.8"/>
<text text-anchor="middle" x="397" y="-62.6" font-family="Times,serif" font-size="14.00">TestPaymentComponent</text>
</g>
<!-- TestPaymentComponent&#45;&gt;LayoutsModule -->
<g id="edge10" class="edge">
<title>TestPaymentComponent&#45;&gt;LayoutsModule</title>
<path fill="none" stroke="black" d="M397,-84.83C397,-101.86 397,-124.8 397,-124.8 397,-124.8 954.67,-124.8 954.67,-124.8"/>
<polygon fill="black" stroke="black" points="954.67,-128.3 964.67,-124.8 954.67,-121.3 954.67,-128.3"/>
</g>
<!-- BreadcrumbComponent  -->
<g id="node14" class="node">
<title>BreadcrumbComponent </title>
<polygon fill="#fb8072" stroke="black" points="1955.02,-214.8 1800.98,-214.8 1800.98,-178.8 1955.02,-178.8 1955.02,-214.8"/>
<text text-anchor="middle" x="1878" y="-192.6" font-family="Times,serif" font-size="14.00">BreadcrumbComponent </text>
</g>
<!-- LayoutsModule&#45;&gt;BreadcrumbComponent  -->
<g id="edge13" class="edge">
<title>LayoutsModule&#45;&gt;BreadcrumbComponent </title>
<path fill="none" stroke="black" stroke-dasharray="5,2" d="M1069.34,-135.8C1251.79,-135.8 1848.69,-135.8 1848.69,-135.8 1848.69,-135.8 1848.69,-168.5 1848.69,-168.5"/>
<polygon fill="black" stroke="black" points="1845.19,-168.5 1848.69,-178.5 1852.19,-168.5 1845.19,-168.5"/>
</g>
<!-- BtnLoadingComponent  -->
<g id="node15" class="node">
<title>BtnLoadingComponent </title>
<polygon fill="#fb8072" stroke="black" points="1782.71,-214.8 1631.29,-214.8 1631.29,-178.8 1782.71,-178.8 1782.71,-214.8"/>
<text text-anchor="middle" x="1707" y="-192.6" font-family="Times,serif" font-size="14.00">BtnLoadingComponent </text>
</g>
<!-- LayoutsModule&#45;&gt;BtnLoadingComponent  -->
<g id="edge14" class="edge">
<title>LayoutsModule&#45;&gt;BtnLoadingComponent </title>
<path fill="none" stroke="black" stroke-dasharray="5,2" d="M1069.22,-139.8C1229.61,-139.8 1704.28,-139.8 1704.28,-139.8 1704.28,-139.8 1704.28,-168.76 1704.28,-168.76"/>
<polygon fill="black" stroke="black" points="1700.78,-168.76 1704.28,-178.76 1707.78,-168.76 1700.78,-168.76"/>
</g>
<!-- CreateDataCategoryCardComponent  -->
<g id="node16" class="node">
<title>CreateDataCategoryCardComponent </title>
<polygon fill="#fb8072" stroke="black" points="1613.32,-214.8 1386.68,-214.8 1386.68,-178.8 1613.32,-178.8 1613.32,-214.8"/>
<text text-anchor="middle" x="1500" y="-192.6" font-family="Times,serif" font-size="14.00">CreateDataCategoryCardComponent </text>
</g>
<!-- LayoutsModule&#45;&gt;CreateDataCategoryCardComponent  -->
<g id="edge15" class="edge">
<title>LayoutsModule&#45;&gt;CreateDataCategoryCardComponent </title>
<path fill="none" stroke="black" stroke-dasharray="5,2" d="M1069.3,-142.8C1186.81,-142.8 1461.52,-142.8 1461.52,-142.8 1461.52,-142.8 1461.52,-168.52 1461.52,-168.52"/>
<polygon fill="black" stroke="black" points="1458.02,-168.52 1461.52,-178.52 1465.02,-168.52 1458.02,-168.52"/>
</g>
<!-- DatatableScrollComponent  -->
<g id="node17" class="node">
<title>DatatableScrollComponent </title>
<polygon fill="#fb8072" stroke="black" points="1368.91,-214.8 1197.09,-214.8 1197.09,-178.8 1368.91,-178.8 1368.91,-214.8"/>
<text text-anchor="middle" x="1283" y="-192.6" font-family="Times,serif" font-size="14.00">DatatableScrollComponent </text>
</g>
<!-- LayoutsModule&#45;&gt;DatatableScrollComponent  -->
<g id="edge16" class="edge">
<title>LayoutsModule&#45;&gt;DatatableScrollComponent </title>
<path fill="none" stroke="black" stroke-dasharray="5,2" d="M1069.29,-146.8C1138.34,-146.8 1251.3,-146.8 1251.3,-146.8 1251.3,-146.8 1251.3,-168.75 1251.3,-168.75"/>
<polygon fill="black" stroke="black" points="1247.8,-168.75 1251.3,-178.75 1254.8,-168.75 1247.8,-168.75"/>
</g>
<!-- FeatherIconComponent  -->
<g id="node18" class="node">
<title>FeatherIconComponent </title>
<polygon fill="#fb8072" stroke="black" points="1178.69,-214.8 1027.31,-214.8 1027.31,-178.8 1178.69,-178.8 1178.69,-214.8"/>
<text text-anchor="middle" x="1103" y="-192.6" font-family="Times,serif" font-size="14.00">FeatherIconComponent </text>
</g>
<!-- LayoutsModule&#45;&gt;FeatherIconComponent  -->
<g id="edge17" class="edge">
<title>LayoutsModule&#45;&gt;FeatherIconComponent </title>
<path fill="none" stroke="black" stroke-dasharray="5,2" d="M1048.24,-149.91C1048.24,-149.91 1048.24,-168.79 1048.24,-168.79"/>
<polygon fill="black" stroke="black" points="1044.74,-168.79 1048.24,-178.79 1051.74,-168.79 1044.74,-168.79"/>
</g>
<!-- PayeReceiptComponent  -->
<g id="node19" class="node">
<title>PayeReceiptComponent </title>
<polygon fill="#fb8072" stroke="black" points="1009.3,-214.8 854.7,-214.8 854.7,-178.8 1009.3,-178.8 1009.3,-214.8"/>
<text text-anchor="middle" x="932" y="-192.6" font-family="Times,serif" font-size="14.00">PayeReceiptComponent </text>
</g>
<!-- LayoutsModule&#45;&gt;PayeReceiptComponent  -->
<g id="edge18" class="edge">
<title>LayoutsModule&#45;&gt;PayeReceiptComponent </title>
<path fill="none" stroke="black" stroke-dasharray="5,2" d="M987.04,-149.91C987.04,-149.91 987.04,-168.79 987.04,-168.79"/>
<polygon fill="black" stroke="black" points="983.54,-168.79 987.04,-178.79 990.54,-168.79 983.54,-168.79"/>
</g>
<!-- RecaptchaComponent  -->
<g id="node20" class="node">
<title>RecaptchaComponent </title>
<polygon fill="#fb8072" stroke="black" points="836.63,-214.8 693.37,-214.8 693.37,-178.8 836.63,-178.8 836.63,-214.8"/>
<text text-anchor="middle" x="765" y="-192.6" font-family="Times,serif" font-size="14.00">RecaptchaComponent </text>
</g>
<!-- LayoutsModule&#45;&gt;RecaptchaComponent  -->
<g id="edge19" class="edge">
<title>LayoutsModule&#45;&gt;RecaptchaComponent </title>
<path fill="none" stroke="black" stroke-dasharray="5,2" d="M964.72,-146.8C893.5,-146.8 774.71,-146.8 774.71,-146.8 774.71,-146.8 774.71,-168.75 774.71,-168.75"/>
<polygon fill="black" stroke="black" points="771.21,-168.75 774.71,-178.75 778.21,-168.75 771.21,-168.75"/>
</g>
<!-- SearchIconComponent  -->
<g id="node21" class="node">
<title>SearchIconComponent </title>
<polygon fill="#fb8072" stroke="black" points="675.8,-214.8 528.2,-214.8 528.2,-178.8 675.8,-178.8 675.8,-214.8"/>
<text text-anchor="middle" x="602" y="-192.6" font-family="Times,serif" font-size="14.00">SearchIconComponent </text>
</g>
<!-- LayoutsModule&#45;&gt;SearchIconComponent  -->
<g id="edge20" class="edge">
<title>LayoutsModule&#45;&gt;SearchIconComponent </title>
<path fill="none" stroke="black" stroke-dasharray="5,2" d="M964.44,-142.8C852.77,-142.8 602,-142.8 602,-142.8 602,-142.8 602,-168.52 602,-168.52"/>
<polygon fill="black" stroke="black" points="598.5,-168.52 602,-178.52 605.5,-168.52 598.5,-168.52"/>
</g>
<!-- TaxEnumerationCardComponent  -->
<g id="node22" class="node">
<title>TaxEnumerationCardComponent </title>
<polygon fill="#fb8072" stroke="black" points="510.12,-214.8 303.88,-214.8 303.88,-178.8 510.12,-178.8 510.12,-214.8"/>
<text text-anchor="middle" x="407" y="-192.6" font-family="Times,serif" font-size="14.00">TaxEnumerationCardComponent </text>
</g>
<!-- LayoutsModule&#45;&gt;TaxEnumerationCardComponent  -->
<g id="edge21" class="edge">
<title>LayoutsModule&#45;&gt;TaxEnumerationCardComponent </title>
<path fill="none" stroke="black" stroke-dasharray="5,2" d="M964.72,-139.8C833.63,-139.8 501.38,-139.8 501.38,-139.8 501.38,-139.8 501.38,-168.76 501.38,-168.76"/>
<polygon fill="black" stroke="black" points="497.88,-168.76 501.38,-178.76 504.88,-168.76 497.88,-168.76"/>
</g>
<!-- TestPaymentComponent  -->
<g id="node23" class="node">
<title>TestPaymentComponent </title>
<polygon fill="#fb8072" stroke="black" points="285.93,-214.8 128.07,-214.8 128.07,-178.8 285.93,-178.8 285.93,-214.8"/>
<text text-anchor="middle" x="207" y="-192.6" font-family="Times,serif" font-size="14.00">TestPaymentComponent </text>
</g>
<!-- LayoutsModule&#45;&gt;TestPaymentComponent  -->
<g id="edge22" class="edge">
<title>LayoutsModule&#45;&gt;TestPaymentComponent </title>
<path fill="none" stroke="black" stroke-dasharray="5,2" d="M964.65,-135.8C790.57,-135.8 242.07,-135.8 242.07,-135.8 242.07,-135.8 242.07,-168.5 242.07,-168.5"/>
<polygon fill="black" stroke="black" points="238.57,-168.5 242.07,-178.5 245.57,-168.5 238.57,-168.5"/>
</g>
<!-- SearchModule -->
<g id="node12" class="node">
<title>SearchModule</title>
<polygon fill="#8dd3c7" stroke="black" points="295.64,-84.8 292.64,-88.8 271.64,-88.8 268.64,-84.8 198.36,-84.8 198.36,-48.8 295.64,-48.8 295.64,-84.8"/>
<text text-anchor="middle" x="247" y="-62.6" font-family="Times,serif" font-size="14.00">SearchModule</text>
</g>
<!-- SearchModule&#45;&gt;LayoutsModule -->
<g id="edge11" class="edge">
<title>SearchModule&#45;&gt;LayoutsModule</title>
<path fill="none" stroke="black" d="M290.89,-85.07C290.89,-103.36 290.89,-128.8 290.89,-128.8 290.89,-128.8 954.78,-128.8 954.78,-128.8"/>
<polygon fill="black" stroke="black" points="954.78,-132.3 964.78,-128.8 954.78,-125.3 954.78,-132.3"/>
</g>
<!-- SharedDirectivesModule -->
<g id="node13" class="node">
<title>SharedDirectivesModule</title>
<polygon fill="#8dd3c7" stroke="black" points="179.96,-84.8 176.96,-88.8 155.96,-88.8 152.96,-84.8 24.04,-84.8 24.04,-48.8 179.96,-48.8 179.96,-84.8"/>
<text text-anchor="middle" x="102" y="-62.6" font-family="Times,serif" font-size="14.00">SharedDirectivesModule</text>
</g>
<!-- SharedDirectivesModule&#45;&gt;LayoutsModule -->
<g id="edge12" class="edge">
<title>SharedDirectivesModule&#45;&gt;LayoutsModule</title>
<path fill="none" stroke="black" d="M154.01,-84.91C154.01,-104.14 154.01,-131.8 154.01,-131.8 154.01,-131.8 954.64,-131.8 954.64,-131.8"/>
<polygon fill="black" stroke="black" points="954.64,-135.3 964.64,-131.8 954.64,-128.3 954.64,-135.3"/>
</g>
</g>
</svg>
