<?xml version="1.0" encoding="UTF-8" standalone="no"?>
<!DOCTYPE svg PUBLIC "-//W3C//DTD SVG 1.1//EN"
 "http://www.w3.org/Graphics/SVG/1.1/DTD/svg11.dtd">
<!-- Generated by graphviz version 5.0.0 (20220707.1540)
 -->
<!-- Title: dependencies Pages: 1 -->
<svg width="328pt" height="174pt"
 viewBox="0.00 0.00 328.00 173.80" xmlns="http://www.w3.org/2000/svg" xmlns:xlink="http://www.w3.org/1999/xlink">
<g id="graph0" class="graph" transform="scale(1 1) rotate(0) translate(4 169.8)">
<title>dependencies</title>
<polygon fill="white" stroke="transparent" points="-4,4 -4,-169.8 324,-169.8 324,4 -4,4"/>
<text text-anchor="middle" x="160" y="-8.2" font-family="sans-serif" font-size="14.00">dependencies</text>
<g id="clust1" class="cluster">
<title>cluster_SharedModule</title>
<polygon fill="none" stroke="black" stroke-dasharray="1,5" points="8,-32.8 8,-157.8 312,-157.8 312,-32.8 8,-32.8"/>
</g>
<g id="clust3" class="cluster">
<title>cluster_SharedModule_imports</title>
<polygon fill="none" stroke="black" points="16,-40.8 16,-92.8 304,-92.8 304,-40.8 16,-40.8"/>
</g>
<!-- SearchModule -->
<g id="node1" class="node">
<title>SearchModule</title>
<polygon fill="#8dd3c7" stroke="black" points="295.64,-84.8 292.64,-88.8 271.64,-88.8 268.64,-84.8 198.36,-84.8 198.36,-48.8 295.64,-48.8 295.64,-84.8"/>
<text text-anchor="middle" x="247" y="-62.6" font-family="Times,serif" font-size="14.00">SearchModule</text>
</g>
<!-- SharedModule -->
<g id="node3" class="node">
<title>SharedModule</title>
<polygon fill="#8dd3c7" stroke="black" points="223.43,-149.8 220.43,-153.8 199.43,-153.8 196.43,-149.8 124.57,-149.8 124.57,-113.8 223.43,-113.8 223.43,-149.8"/>
<text text-anchor="middle" x="174" y="-127.6" font-family="Times,serif" font-size="14.00">SharedModule</text>
</g>
<!-- SearchModule&#45;&gt;SharedModule -->
<g id="edge1" class="edge">
<title>SearchModule&#45;&gt;SharedModule</title>
<path fill="none" stroke="black" d="M210.7,-84.91C210.7,-84.91 210.7,-103.79 210.7,-103.79"/>
<polygon fill="black" stroke="black" points="207.2,-103.79 210.7,-113.79 214.2,-103.79 207.2,-103.79"/>
</g>
<!-- SharedDirectivesModule -->
<g id="node2" class="node">
<title>SharedDirectivesModule</title>
<polygon fill="#8dd3c7" stroke="black" points="179.96,-84.8 176.96,-88.8 155.96,-88.8 152.96,-84.8 24.04,-84.8 24.04,-48.8 179.96,-48.8 179.96,-84.8"/>
<text text-anchor="middle" x="102" y="-62.6" font-family="Times,serif" font-size="14.00">SharedDirectivesModule</text>
</g>
<!-- SharedDirectivesModule&#45;&gt;SharedModule -->
<g id="edge2" class="edge">
<title>SharedDirectivesModule&#45;&gt;SharedModule</title>
<path fill="none" stroke="black" d="M152.38,-84.91C152.38,-84.91 152.38,-103.79 152.38,-103.79"/>
<polygon fill="black" stroke="black" points="148.88,-103.79 152.38,-113.79 155.88,-103.79 148.88,-103.79"/>
</g>
</g>
</svg>
