<?xml version="1.0" encoding="UTF-8" standalone="no"?>
<!DOCTYPE svg PUBLIC "-//W3C//DTD SVG 1.1//EN"
 "http://www.w3.org/Graphics/SVG/1.1/DTD/svg11.dtd">
<!-- Generated by graphviz version 5.0.0 (20220707.1540)
 -->
<!-- Title: dependencies Pages: 1 -->
<svg width="1882pt" height="239pt"
 viewBox="0.00 0.00 1882.00 238.80" xmlns="http://www.w3.org/2000/svg" xmlns:xlink="http://www.w3.org/1999/xlink">
<g id="graph0" class="graph" transform="scale(1 1) rotate(0) translate(4 234.8)">
<title>dependencies</title>
<polygon fill="white" stroke="transparent" points="-4,4 -4,-234.8 1878,-234.8 1878,4 -4,4"/>
<text text-anchor="middle" x="937" y="-8.2" font-family="sans-serif" font-size="14.00">dependencies</text>
<g id="clust1" class="cluster">
<title>cluster_AuthModule</title>
<polygon fill="none" stroke="black" stroke-dasharray="1,5" points="8,-32.8 8,-222.8 1866,-222.8 1866,-32.8 8,-32.8"/>
</g>
<g id="clust3" class="cluster">
<title>cluster_AuthModule_ConfirmEqualValidatorDirective_providers</title>
<polygon fill="none" stroke="black" points="1106,-40.8 1106,-157.8 1858,-157.8 1858,-40.8 1106,-40.8"/>
</g>
<g id="clust2" class="cluster">
<title>cluster_AuthModule_declarations</title>
<polygon fill="none" stroke="black" points="346,-105.8 346,-157.8 1098,-157.8 1098,-105.8 346,-105.8"/>
</g>
<g id="clust9" class="cluster">
<title>cluster_AuthModule_imports</title>
<polygon fill="none" stroke="black" points="16,-105.8 16,-157.8 338,-157.8 338,-105.8 16,-105.8"/>
</g>
<!-- ConfirmEqualValidatorDirective -->
<g id="node1" class="node">
<title>ConfirmEqualValidatorDirective</title>
<polygon fill="#ffffb3" stroke="black" points="1448.55,-149.8 1247.45,-149.8 1247.45,-113.8 1448.55,-113.8 1448.55,-149.8"/>
<text text-anchor="middle" x="1348" y="-127.6" font-family="Times,serif" font-size="14.00">ConfirmEqualValidatorDirective</text>
</g>
<!-- AuthModule -->
<g id="node7" class="node">
<title>AuthModule</title>
<polygon fill="#8dd3c7" stroke="black" points="678.55,-214.8 675.55,-218.8 654.55,-218.8 651.55,-214.8 591.45,-214.8 591.45,-178.8 678.55,-178.8 678.55,-214.8"/>
<text text-anchor="middle" x="635" y="-192.6" font-family="Times,serif" font-size="14.00">AuthModule</text>
</g>
<!-- ConfirmEqualValidatorDirective&#45;&gt;AuthModule -->
<g id="edge1" class="edge">
<title>ConfirmEqualValidatorDirective&#45;&gt;AuthModule</title>
<path fill="none" stroke="black" d="M1348,-150.09C1348,-172.01 1348,-205.8 1348,-205.8 1348,-205.8 688.8,-205.8 688.8,-205.8"/>
<polygon fill="black" stroke="black" points="688.8,-202.3 678.8,-205.8 688.8,-209.3 688.8,-202.3"/>
</g>
<!-- ForgotComponent -->
<g id="node2" class="node">
<title>ForgotComponent</title>
<polygon fill="#ffffb3" stroke="black" points="1090.17,-149.8 971.83,-149.8 971.83,-113.8 1090.17,-113.8 1090.17,-149.8"/>
<text text-anchor="middle" x="1031" y="-127.6" font-family="Times,serif" font-size="14.00">ForgotComponent</text>
</g>
<!-- ForgotComponent&#45;&gt;AuthModule -->
<g id="edge3" class="edge">
<title>ForgotComponent&#45;&gt;AuthModule</title>
<path fill="none" stroke="black" d="M1031,-149.91C1031,-169.14 1031,-196.8 1031,-196.8 1031,-196.8 688.89,-196.8 688.89,-196.8"/>
<polygon fill="black" stroke="black" points="688.89,-193.3 678.89,-196.8 688.89,-200.3 688.89,-193.3"/>
</g>
<!-- ForgotEmailComponent -->
<g id="node3" class="node">
<title>ForgotEmailComponent</title>
<polygon fill="#ffffb3" stroke="black" points="954.1,-149.8 801.9,-149.8 801.9,-113.8 954.1,-113.8 954.1,-149.8"/>
<text text-anchor="middle" x="878" y="-127.6" font-family="Times,serif" font-size="14.00">ForgotEmailComponent</text>
</g>
<!-- ForgotEmailComponent&#45;&gt;AuthModule -->
<g id="edge4" class="edge">
<title>ForgotEmailComponent&#45;&gt;AuthModule</title>
<path fill="none" stroke="black" d="M878,-149.83C878,-166.2 878,-187.8 878,-187.8 878,-187.8 688.72,-187.8 688.72,-187.8"/>
<polygon fill="black" stroke="black" points="688.72,-184.3 678.72,-187.8 688.72,-191.3 688.72,-184.3"/>
</g>
<!-- ForgotTINComponent -->
<g id="node4" class="node">
<title>ForgotTINComponent</title>
<polygon fill="#ffffb3" stroke="black" points="783.99,-149.8 642.01,-149.8 642.01,-113.8 783.99,-113.8 783.99,-149.8"/>
<text text-anchor="middle" x="713" y="-127.6" font-family="Times,serif" font-size="14.00">ForgotTINComponent</text>
</g>
<!-- ForgotTINComponent&#45;&gt;AuthModule -->
<g id="edge5" class="edge">
<title>ForgotTINComponent&#45;&gt;AuthModule</title>
<path fill="none" stroke="black" d="M660.39,-149.91C660.39,-149.91 660.39,-168.79 660.39,-168.79"/>
<polygon fill="black" stroke="black" points="656.89,-168.79 660.39,-178.79 663.89,-168.79 656.89,-168.79"/>
</g>
<!-- PasswordComponent -->
<g id="node5" class="node">
<title>PasswordComponent</title>
<polygon fill="#ffffb3" stroke="black" points="624.5,-149.8 489.5,-149.8 489.5,-113.8 624.5,-113.8 624.5,-149.8"/>
<text text-anchor="middle" x="557" y="-127.6" font-family="Times,serif" font-size="14.00">PasswordComponent</text>
</g>
<!-- PasswordComponent&#45;&gt;AuthModule -->
<g id="edge6" class="edge">
<title>PasswordComponent&#45;&gt;AuthModule</title>
<path fill="none" stroke="black" d="M607.86,-149.91C607.86,-149.91 607.86,-168.79 607.86,-168.79"/>
<polygon fill="black" stroke="black" points="604.36,-168.79 607.86,-178.79 611.36,-168.79 604.36,-168.79"/>
</g>
<!-- SigninComponent -->
<g id="node6" class="node">
<title>SigninComponent</title>
<polygon fill="#ffffb3" stroke="black" points="471.9,-149.8 354.1,-149.8 354.1,-113.8 471.9,-113.8 471.9,-149.8"/>
<text text-anchor="middle" x="413" y="-127.6" font-family="Times,serif" font-size="14.00">SigninComponent</text>
</g>
<!-- SigninComponent&#45;&gt;AuthModule -->
<g id="edge7" class="edge">
<title>SigninComponent&#45;&gt;AuthModule</title>
<path fill="none" stroke="black" d="M413,-149.83C413,-166.2 413,-187.8 413,-187.8 413,-187.8 581.4,-187.8 581.4,-187.8"/>
<polygon fill="black" stroke="black" points="581.4,-191.3 591.4,-187.8 581.4,-184.3 581.4,-191.3"/>
</g>
<!-- { provide: NG_VALIDATORS, useExisting: ConfirmEqualValidatorDirective, multi: true } -->
<g id="node8" class="node">
<title>{ provide: NG_VALIDATORS, useExisting: ConfirmEqualValidatorDirective, multi: true }</title>
<ellipse fill="#fdb462" stroke="black" cx="1482" cy="-66.8" rx="368.33" ry="18"/>
<text text-anchor="middle" x="1482" y="-62.6" font-family="Times,serif" font-size="14.00">{ provide: NG_VALIDATORS, useExisting: ConfirmEqualValidatorDirective, multi: true }</text>
</g>
<!-- { provide: NG_VALIDATORS, useExisting: ConfirmEqualValidatorDirective, multi: true }&#45;&gt;ConfirmEqualValidatorDirective -->
<g id="edge2" class="edge">
<title>{ provide: NG_VALIDATORS, useExisting: ConfirmEqualValidatorDirective, multi: true }&#45;&gt;ConfirmEqualValidatorDirective</title>
<path fill="none" stroke="black" d="M1348,-83.88C1348,-83.88 1348,-103.7 1348,-103.7"/>
<polygon fill="black" stroke="black" points="1344.5,-103.7 1348,-113.7 1351.5,-103.7 1344.5,-103.7"/>
</g>
<!-- AuthRoutingModule -->
<g id="node9" class="node">
<title>AuthRoutingModule</title>
<polygon fill="#8dd3c7" stroke="black" points="330.17,-149.8 327.17,-153.8 306.17,-153.8 303.17,-149.8 197.83,-149.8 197.83,-113.8 330.17,-113.8 330.17,-149.8"/>
<text text-anchor="middle" x="264" y="-127.6" font-family="Times,serif" font-size="14.00">AuthRoutingModule</text>
</g>
<!-- AuthRoutingModule&#45;&gt;AuthModule -->
<g id="edge8" class="edge">
<title>AuthRoutingModule&#45;&gt;AuthModule</title>
<path fill="none" stroke="black" d="M264,-149.91C264,-169.14 264,-196.8 264,-196.8 264,-196.8 581.35,-196.8 581.35,-196.8"/>
<polygon fill="black" stroke="black" points="581.35,-200.3 591.35,-196.8 581.35,-193.3 581.35,-200.3"/>
</g>
<!-- SharedDirectivesModule -->
<g id="node10" class="node">
<title>SharedDirectivesModule</title>
<polygon fill="#8dd3c7" stroke="black" points="179.96,-149.8 176.96,-153.8 155.96,-153.8 152.96,-149.8 24.04,-149.8 24.04,-113.8 179.96,-113.8 179.96,-149.8"/>
<text text-anchor="middle" x="102" y="-127.6" font-family="Times,serif" font-size="14.00">SharedDirectivesModule</text>
</g>
<!-- SharedDirectivesModule&#45;&gt;AuthModule -->
<g id="edge9" class="edge">
<title>SharedDirectivesModule&#45;&gt;AuthModule</title>
<path fill="none" stroke="black" d="M102,-150.09C102,-172.01 102,-205.8 102,-205.8 102,-205.8 581.38,-205.8 581.38,-205.8"/>
<polygon fill="black" stroke="black" points="581.38,-209.3 591.38,-205.8 581.38,-202.3 581.38,-209.3"/>
</g>
</g>
</svg>
