<?xml version="1.0" encoding="UTF-8" standalone="no"?>
<!DOCTYPE svg PUBLIC "-//W3C//DTD SVG 1.1//EN"
 "http://www.w3.org/Graphics/SVG/1.1/DTD/svg11.dtd">
<!-- Generated by graphviz version 5.0.0 (20220707.1540)
 -->
<!-- Title: dependencies Pages: 1 -->
<svg width="2957pt" height="174pt"
 viewBox="0.00 0.00 2957.00 173.80" xmlns="http://www.w3.org/2000/svg" xmlns:xlink="http://www.w3.org/1999/xlink">
<g id="graph0" class="graph" transform="scale(1 1) rotate(0) translate(4 169.8)">
<title>dependencies</title>
<polygon fill="white" stroke="transparent" points="-4,4 -4,-169.8 2953,-169.8 2953,4 -4,4"/>
<text text-anchor="middle" x="1474.5" y="-8.2" font-family="sans-serif" font-size="14.00">dependencies</text>
<g id="clust1" class="cluster">
<title>cluster_PaymentModule</title>
<polygon fill="none" stroke="black" stroke-dasharray="1,5" points="8,-32.8 8,-157.8 2941,-157.8 2941,-32.8 8,-32.8"/>
</g>
<g id="clust16" class="cluster">
<title>cluster_PaymentModule_imports</title>
<polygon fill="none" stroke="black" points="2763,-40.8 2763,-92.8 2933,-92.8 2933,-40.8 2763,-40.8"/>
</g>
<g id="clust2" class="cluster">
<title>cluster_PaymentModule_declarations</title>
<polygon fill="none" stroke="black" points="16,-40.8 16,-92.8 2755,-92.8 2755,-40.8 16,-40.8"/>
</g>
<!-- AgentTransactionsComponent -->
<g id="node1" class="node">
<title>AgentTransactionsComponent</title>
<polygon fill="#ffffb3" stroke="black" points="2746.58,-84.8 2559.42,-84.8 2559.42,-48.8 2746.58,-48.8 2746.58,-84.8"/>
<text text-anchor="middle" x="2653" y="-62.6" font-family="Times,serif" font-size="14.00">AgentTransactionsComponent</text>
</g>
<!-- PaymentModule -->
<g id="node14" class="node">
<title>PaymentModule</title>
<polygon fill="#8dd3c7" stroke="black" points="1586.05,-149.8 1583.05,-153.8 1562.05,-153.8 1559.05,-149.8 1477.95,-149.8 1477.95,-113.8 1586.05,-113.8 1586.05,-149.8"/>
<text text-anchor="middle" x="1532" y="-127.6" font-family="Times,serif" font-size="14.00">PaymentModule</text>
</g>
<!-- AgentTransactionsComponent&#45;&gt;PaymentModule -->
<g id="edge1" class="edge">
<title>AgentTransactionsComponent&#45;&gt;PaymentModule</title>
<path fill="none" stroke="black" d="M2653,-84.84C2653,-106.46 2653,-139.8 2653,-139.8 2653,-139.8 1596.07,-139.8 1596.07,-139.8"/>
<polygon fill="black" stroke="black" points="1596.07,-136.3 1586.07,-139.8 1596.07,-143.3 1596.07,-136.3"/>
</g>
<!-- PAYEBulkPaymentComponent -->
<g id="node2" class="node">
<title>PAYEBulkPaymentComponent</title>
<polygon fill="#ffffb3" stroke="black" points="2541.11,-84.8 2346.89,-84.8 2346.89,-48.8 2541.11,-48.8 2541.11,-84.8"/>
<text text-anchor="middle" x="2444" y="-62.6" font-family="Times,serif" font-size="14.00">PAYEBulkPaymentComponent</text>
</g>
<!-- PAYEBulkPaymentComponent&#45;&gt;PaymentModule -->
<g id="edge2" class="edge">
<title>PAYEBulkPaymentComponent&#45;&gt;PaymentModule</title>
<path fill="none" stroke="black" d="M2444,-85.02C2444,-105.17 2444,-134.8 2444,-134.8 2444,-134.8 1596.32,-134.8 1596.32,-134.8"/>
<polygon fill="black" stroke="black" points="1596.32,-131.3 1586.32,-134.8 1596.32,-138.3 1596.32,-131.3"/>
</g>
<!-- PAYEBulkPaymentHistoryComponent -->
<g id="node3" class="node">
<title>PAYEBulkPaymentHistoryComponent</title>
<polygon fill="#ffffb3" stroke="black" points="2329.11,-84.8 2092.89,-84.8 2092.89,-48.8 2329.11,-48.8 2329.11,-84.8"/>
<text text-anchor="middle" x="2211" y="-62.6" font-family="Times,serif" font-size="14.00">PAYEBulkPaymentHistoryComponent</text>
</g>
<!-- PAYEBulkPaymentHistoryComponent&#45;&gt;PaymentModule -->
<g id="edge3" class="edge">
<title>PAYEBulkPaymentHistoryComponent&#45;&gt;PaymentModule</title>
<path fill="none" stroke="black" d="M2211,-85.02C2211,-103.63 2211,-129.8 2211,-129.8 2211,-129.8 1596.13,-129.8 1596.13,-129.8"/>
<polygon fill="black" stroke="black" points="1596.13,-126.3 1586.13,-129.8 1596.13,-133.3 1596.13,-126.3"/>
</g>
<!-- PaymentComponent -->
<g id="node4" class="node">
<title>PaymentComponent</title>
<polygon fill="#ffffb3" stroke="black" points="2075.32,-84.8 1944.68,-84.8 1944.68,-48.8 2075.32,-48.8 2075.32,-84.8"/>
<text text-anchor="middle" x="2010" y="-62.6" font-family="Times,serif" font-size="14.00">PaymentComponent</text>
</g>
<!-- PaymentComponent&#45;&gt;PaymentModule -->
<g id="edge4" class="edge">
<title>PaymentComponent&#45;&gt;PaymentModule</title>
<path fill="none" stroke="black" d="M2010,-84.83C2010,-101.86 2010,-124.8 2010,-124.8 2010,-124.8 1596.37,-124.8 1596.37,-124.8"/>
<polygon fill="black" stroke="black" points="1596.37,-121.3 1586.37,-124.8 1596.37,-128.3 1596.37,-121.3"/>
</g>
<!-- PaymentDownloadComponent -->
<g id="node5" class="node">
<title>PaymentDownloadComponent</title>
<polygon fill="#ffffb3" stroke="black" points="1927.15,-84.8 1738.85,-84.8 1738.85,-48.8 1927.15,-48.8 1927.15,-84.8"/>
<text text-anchor="middle" x="1833" y="-62.6" font-family="Times,serif" font-size="14.00">PaymentDownloadComponent</text>
</g>
<!-- PaymentDownloadComponent&#45;&gt;PaymentModule -->
<g id="edge5" class="edge">
<title>PaymentDownloadComponent&#45;&gt;PaymentModule</title>
<path fill="none" stroke="black" d="M1833,-85.04C1833,-100.37 1833,-119.8 1833,-119.8 1833,-119.8 1596.16,-119.8 1596.16,-119.8"/>
<polygon fill="black" stroke="black" points="1596.16,-116.3 1586.16,-119.8 1596.16,-123.3 1596.16,-116.3"/>
</g>
<!-- PaymentHistoryComponent -->
<g id="node6" class="node">
<title>PaymentHistoryComponent</title>
<polygon fill="#ffffb3" stroke="black" points="1721.32,-84.8 1548.68,-84.8 1548.68,-48.8 1721.32,-48.8 1721.32,-84.8"/>
<text text-anchor="middle" x="1635" y="-62.6" font-family="Times,serif" font-size="14.00">PaymentHistoryComponent</text>
</g>
<!-- PaymentHistoryComponent&#45;&gt;PaymentModule -->
<g id="edge6" class="edge">
<title>PaymentHistoryComponent&#45;&gt;PaymentModule</title>
<path fill="none" stroke="black" d="M1567.56,-84.91C1567.56,-84.91 1567.56,-103.79 1567.56,-103.79"/>
<polygon fill="black" stroke="black" points="1564.06,-103.79 1567.56,-113.79 1571.06,-103.79 1564.06,-103.79"/>
</g>
<!-- PaymentLgcRevenueComponent -->
<g id="node7" class="node">
<title>PaymentLgcRevenueComponent</title>
<polygon fill="#ffffb3" stroke="black" points="1530.57,-84.8 1329.43,-84.8 1329.43,-48.8 1530.57,-48.8 1530.57,-84.8"/>
<text text-anchor="middle" x="1430" y="-62.6" font-family="Times,serif" font-size="14.00">PaymentLgcRevenueComponent</text>
</g>
<!-- PaymentLgcRevenueComponent&#45;&gt;PaymentModule -->
<g id="edge7" class="edge">
<title>PaymentLgcRevenueComponent&#45;&gt;PaymentModule</title>
<path fill="none" stroke="black" d="M1504.13,-84.91C1504.13,-84.91 1504.13,-103.79 1504.13,-103.79"/>
<polygon fill="black" stroke="black" points="1500.63,-103.79 1504.13,-113.79 1507.63,-103.79 1500.63,-103.79"/>
</g>
<!-- PaymentReceiptComponent -->
<g id="node8" class="node">
<title>PaymentReceiptComponent</title>
<polygon fill="#ffffb3" stroke="black" points="1311.58,-84.8 1138.42,-84.8 1138.42,-48.8 1311.58,-48.8 1311.58,-84.8"/>
<text text-anchor="middle" x="1225" y="-62.6" font-family="Times,serif" font-size="14.00">PaymentReceiptComponent</text>
</g>
<!-- PaymentReceiptComponent&#45;&gt;PaymentModule -->
<g id="edge8" class="edge">
<title>PaymentReceiptComponent&#45;&gt;PaymentModule</title>
<path fill="none" stroke="black" d="M1225,-85.04C1225,-100.37 1225,-119.8 1225,-119.8 1225,-119.8 1467.82,-119.8 1467.82,-119.8"/>
<polygon fill="black" stroke="black" points="1467.82,-123.3 1477.82,-119.8 1467.82,-116.3 1467.82,-123.3"/>
</g>
<!-- PresumptiveBulkPaymentComponent -->
<g id="node9" class="node">
<title>PresumptiveBulkPaymentComponent</title>
<polygon fill="#ffffb3" stroke="black" points="1120.55,-84.8 893.45,-84.8 893.45,-48.8 1120.55,-48.8 1120.55,-84.8"/>
<text text-anchor="middle" x="1007" y="-62.6" font-family="Times,serif" font-size="14.00">PresumptiveBulkPaymentComponent</text>
</g>
<!-- PresumptiveBulkPaymentComponent&#45;&gt;PaymentModule -->
<g id="edge9" class="edge">
<title>PresumptiveBulkPaymentComponent&#45;&gt;PaymentModule</title>
<path fill="none" stroke="black" d="M1007,-84.83C1007,-101.86 1007,-124.8 1007,-124.8 1007,-124.8 1467.79,-124.8 1467.79,-124.8"/>
<polygon fill="black" stroke="black" points="1467.79,-128.3 1477.79,-124.8 1467.79,-121.3 1467.79,-128.3"/>
</g>
<!-- PresumptiveBulkPaymentHistoryComponent -->
<g id="node10" class="node">
<title>PresumptiveBulkPaymentHistoryComponent</title>
<polygon fill="#ffffb3" stroke="black" points="874.55,-84.8 605.45,-84.8 605.45,-48.8 874.55,-48.8 874.55,-84.8"/>
<text text-anchor="middle" x="740" y="-62.6" font-family="Times,serif" font-size="14.00">PresumptiveBulkPaymentHistoryComponent</text>
</g>
<!-- PresumptiveBulkPaymentHistoryComponent&#45;&gt;PaymentModule -->
<g id="edge10" class="edge">
<title>PresumptiveBulkPaymentHistoryComponent&#45;&gt;PaymentModule</title>
<path fill="none" stroke="black" d="M740,-85.02C740,-103.63 740,-129.8 740,-129.8 740,-129.8 1467.87,-129.8 1467.87,-129.8"/>
<polygon fill="black" stroke="black" points="1467.87,-133.3 1477.87,-129.8 1467.87,-126.3 1467.87,-133.3"/>
</g>
<!-- PreviousLGCRevenuePaymentsComponent -->
<g id="node11" class="node">
<title>PreviousLGCRevenuePaymentsComponent</title>
<polygon fill="#ffffb3" stroke="black" points="586.75,-84.8 325.25,-84.8 325.25,-48.8 586.75,-48.8 586.75,-84.8"/>
<text text-anchor="middle" x="456" y="-62.6" font-family="Times,serif" font-size="14.00">PreviousLGCRevenuePaymentsComponent</text>
</g>
<!-- PreviousLGCRevenuePaymentsComponent&#45;&gt;PaymentModule -->
<g id="edge11" class="edge">
<title>PreviousLGCRevenuePaymentsComponent&#45;&gt;PaymentModule</title>
<path fill="none" stroke="black" d="M456,-85.02C456,-105.17 456,-134.8 456,-134.8 456,-134.8 1467.9,-134.8 1467.9,-134.8"/>
<polygon fill="black" stroke="black" points="1467.9,-138.3 1477.9,-134.8 1467.9,-131.3 1467.9,-138.3"/>
</g>
<!-- TINHistoryComponent -->
<g id="node12" class="node">
<title>TINHistoryComponent</title>
<polygon fill="#ffffb3" stroke="black" points="307.16,-84.8 160.84,-84.8 160.84,-48.8 307.16,-48.8 307.16,-84.8"/>
<text text-anchor="middle" x="234" y="-62.6" font-family="Times,serif" font-size="14.00">TINHistoryComponent</text>
</g>
<!-- TINHistoryComponent&#45;&gt;PaymentModule -->
<g id="edge12" class="edge">
<title>TINHistoryComponent&#45;&gt;PaymentModule</title>
<path fill="none" stroke="black" d="M234,-84.84C234,-106.46 234,-139.8 234,-139.8 234,-139.8 1467.88,-139.8 1467.88,-139.8"/>
<polygon fill="black" stroke="black" points="1467.88,-143.3 1477.88,-139.8 1467.88,-136.3 1467.88,-143.3"/>
</g>
<!-- WalletComponent -->
<g id="node13" class="node">
<title>WalletComponent</title>
<polygon fill="#ffffb3" stroke="black" points="142.14,-84.8 23.86,-84.8 23.86,-48.8 142.14,-48.8 142.14,-84.8"/>
<text text-anchor="middle" x="83" y="-62.6" font-family="Times,serif" font-size="14.00">WalletComponent</text>
</g>
<!-- WalletComponent&#45;&gt;PaymentModule -->
<g id="edge13" class="edge">
<title>WalletComponent&#45;&gt;PaymentModule</title>
<path fill="none" stroke="black" d="M83,-84.89C83,-107.93 83,-144.8 83,-144.8 83,-144.8 1467.84,-144.8 1467.84,-144.8"/>
<polygon fill="black" stroke="black" points="1467.84,-148.3 1477.84,-144.8 1467.84,-141.3 1467.84,-148.3"/>
</g>
<!-- PaymentRoutingModule -->
<g id="node15" class="node">
<title>PaymentRoutingModule</title>
<polygon fill="#8dd3c7" stroke="black" points="2924.66,-84.8 2921.66,-88.8 2900.66,-88.8 2897.66,-84.8 2771.34,-84.8 2771.34,-48.8 2924.66,-48.8 2924.66,-84.8"/>
<text text-anchor="middle" x="2848" y="-62.6" font-family="Times,serif" font-size="14.00">PaymentRoutingModule</text>
</g>
<!-- PaymentRoutingModule&#45;&gt;PaymentModule -->
<g id="edge14" class="edge">
<title>PaymentRoutingModule&#45;&gt;PaymentModule</title>
<path fill="none" stroke="black" d="M2848,-84.89C2848,-107.93 2848,-144.8 2848,-144.8 2848,-144.8 1596.46,-144.8 1596.46,-144.8"/>
<polygon fill="black" stroke="black" points="1596.46,-141.3 1586.46,-144.8 1596.46,-148.3 1596.46,-141.3"/>
</g>
</g>
</svg>
