<?xml version="1.0" encoding="UTF-8" standalone="no"?>
<!DOCTYPE svg PUBLIC "-//W3C//DTD SVG 1.1//EN"
 "http://www.w3.org/Graphics/SVG/1.1/DTD/svg11.dtd">
<!-- Generated by graphviz version 5.0.0 (20220707.1540)
 -->
<!-- Title: dependencies Pages: 1 -->
<svg width="837pt" height="174pt"
 viewBox="0.00 0.00 837.00 173.80" xmlns="http://www.w3.org/2000/svg" xmlns:xlink="http://www.w3.org/1999/xlink">
<g id="graph0" class="graph" transform="scale(1 1) rotate(0) translate(4 169.8)">
<title>dependencies</title>
<polygon fill="white" stroke="transparent" points="-4,4 -4,-169.8 833,-169.8 833,4 -4,4"/>
<text text-anchor="middle" x="414.5" y="-8.2" font-family="sans-serif" font-size="14.00">dependencies</text>
<g id="clust1" class="cluster">
<title>cluster_ReportingModule</title>
<polygon fill="none" stroke="black" stroke-dasharray="1,5" points="8,-32.8 8,-157.8 821,-157.8 821,-32.8 8,-32.8"/>
</g>
<g id="clust7" class="cluster">
<title>cluster_ReportingModule_imports</title>
<polygon fill="none" stroke="black" points="637,-40.8 637,-92.8 813,-92.8 813,-40.8 637,-40.8"/>
</g>
<g id="clust2" class="cluster">
<title>cluster_ReportingModule_declarations</title>
<polygon fill="none" stroke="black" points="16,-40.8 16,-92.8 629,-92.8 629,-40.8 16,-40.8"/>
</g>
<!-- MDASBreakdown -->
<g id="node1" class="node">
<title>MDASBreakdown</title>
<polygon fill="#ffffb3" stroke="black" points="621.49,-84.8 500.51,-84.8 500.51,-48.8 621.49,-48.8 621.49,-84.8"/>
<text text-anchor="middle" x="561" y="-62.6" font-family="Times,serif" font-size="14.00">MDASBreakdown</text>
</g>
<!-- ReportingModule -->
<g id="node5" class="node">
<title>ReportingModule</title>
<polygon fill="#8dd3c7" stroke="black" points="442.55,-149.8 439.55,-153.8 418.55,-153.8 415.55,-149.8 327.45,-149.8 327.45,-113.8 442.55,-113.8 442.55,-149.8"/>
<text text-anchor="middle" x="385" y="-127.6" font-family="Times,serif" font-size="14.00">ReportingModule</text>
</g>
<!-- MDASBreakdown&#45;&gt;ReportingModule -->
<g id="edge1" class="edge">
<title>MDASBreakdown&#45;&gt;ReportingModule</title>
<path fill="none" stroke="black" d="M561,-84.82C561,-102.17 561,-125.8 561,-125.8 561,-125.8 452.63,-125.8 452.63,-125.8"/>
<polygon fill="black" stroke="black" points="452.63,-122.3 442.63,-125.8 452.63,-129.3 452.63,-122.3"/>
</g>
<!-- OtherMDARevenueBreakdown -->
<g id="node2" class="node">
<title>OtherMDARevenueBreakdown</title>
<polygon fill="#ffffb3" stroke="black" points="482.06,-84.8 287.94,-84.8 287.94,-48.8 482.06,-48.8 482.06,-84.8"/>
<text text-anchor="middle" x="385" y="-62.6" font-family="Times,serif" font-size="14.00">OtherMDARevenueBreakdown</text>
</g>
<!-- OtherMDARevenueBreakdown&#45;&gt;ReportingModule -->
<g id="edge2" class="edge">
<title>OtherMDARevenueBreakdown&#45;&gt;ReportingModule</title>
<path fill="none" stroke="black" d="M385,-84.91C385,-84.91 385,-103.79 385,-103.79"/>
<polygon fill="black" stroke="black" points="381.5,-103.79 385,-113.79 388.5,-103.79 381.5,-103.79"/>
</g>
<!-- PsirsBreakdown -->
<g id="node3" class="node">
<title>PsirsBreakdown</title>
<polygon fill="#ffffb3" stroke="black" points="269.77,-84.8 162.23,-84.8 162.23,-48.8 269.77,-48.8 269.77,-84.8"/>
<text text-anchor="middle" x="216" y="-62.6" font-family="Times,serif" font-size="14.00">PsirsBreakdown</text>
</g>
<!-- PsirsBreakdown&#45;&gt;ReportingModule -->
<g id="edge3" class="edge">
<title>PsirsBreakdown&#45;&gt;ReportingModule</title>
<path fill="none" stroke="black" d="M216,-84.82C216,-102.17 216,-125.8 216,-125.8 216,-125.8 317.31,-125.8 317.31,-125.8"/>
<polygon fill="black" stroke="black" points="317.31,-129.3 327.31,-125.8 317.31,-122.3 317.31,-129.3"/>
</g>
<!-- ReportComponent -->
<g id="node4" class="node">
<title>ReportComponent</title>
<polygon fill="#ffffb3" stroke="black" points="143.94,-84.8 24.06,-84.8 24.06,-48.8 143.94,-48.8 143.94,-84.8"/>
<text text-anchor="middle" x="84" y="-62.6" font-family="Times,serif" font-size="14.00">ReportComponent</text>
</g>
<!-- ReportComponent&#45;&gt;ReportingModule -->
<g id="edge4" class="edge">
<title>ReportComponent&#45;&gt;ReportingModule</title>
<path fill="none" stroke="black" d="M84,-85.08C84,-106.12 84,-137.8 84,-137.8 84,-137.8 317.32,-137.8 317.32,-137.8"/>
<polygon fill="black" stroke="black" points="317.32,-141.3 327.32,-137.8 317.32,-134.3 317.32,-141.3"/>
</g>
<!-- ReportingRoutingModule -->
<g id="node6" class="node">
<title>ReportingRoutingModule</title>
<polygon fill="#8dd3c7" stroke="black" points="805.16,-84.8 802.16,-88.8 781.16,-88.8 778.16,-84.8 644.84,-84.8 644.84,-48.8 805.16,-48.8 805.16,-84.8"/>
<text text-anchor="middle" x="725" y="-62.6" font-family="Times,serif" font-size="14.00">ReportingRoutingModule</text>
</g>
<!-- ReportingRoutingModule&#45;&gt;ReportingModule -->
<g id="edge5" class="edge">
<title>ReportingRoutingModule&#45;&gt;ReportingModule</title>
<path fill="none" stroke="black" d="M725,-85.08C725,-106.12 725,-137.8 725,-137.8 725,-137.8 452.68,-137.8 452.68,-137.8"/>
<polygon fill="black" stroke="black" points="452.68,-134.3 442.68,-137.8 452.68,-141.3 452.68,-134.3"/>
</g>
</g>
</svg>
