<?xml version="1.0" encoding="UTF-8" standalone="no"?>
<!DOCTYPE svg PUBLIC "-//W3C//DTD SVG 1.1//EN"
 "http://www.w3.org/Graphics/SVG/1.1/DTD/svg11.dtd">
<!-- Generated by graphviz version 5.0.0 (20220707.1540)
 -->
<!-- Title: dependencies Pages: 1 -->
<svg width="350pt" height="247pt"
 viewBox="0.00 0.00 350.00 246.80" xmlns="http://www.w3.org/2000/svg" xmlns:xlink="http://www.w3.org/1999/xlink">
<g id="graph0" class="graph" transform="scale(1 1) rotate(0) translate(4 242.8)">
<title>dependencies</title>
<polygon fill="white" stroke="transparent" points="-4,4 -4,-242.8 346,-242.8 346,4 -4,4"/>
<text text-anchor="middle" x="171" y="-8.2" font-family="sans-serif" font-size="14.00">dependencies</text>
<g id="clust1" class="cluster">
<title>cluster_FormWizardModule</title>
<polygon fill="none" stroke="black" stroke-dasharray="1,5" points="8,-32.8 8,-230.8 334,-230.8 334,-32.8 8,-32.8"/>
</g>
<g id="clust2" class="cluster">
<title>cluster_FormWizardModule_declarations</title>
<polygon fill="none" stroke="black" points="19,-40.8 19,-92.8 323,-92.8 323,-40.8 19,-40.8"/>
</g>
<g id="clust6" class="cluster">
<title>cluster_FormWizardModule_exports</title>
<polygon fill="none" stroke="black" points="16,-170.8 16,-222.8 326,-222.8 326,-170.8 16,-170.8"/>
</g>
<!-- WizardComponent -->
<g id="node1" class="node">
<title>WizardComponent</title>
<polygon fill="#ffffb3" stroke="black" points="315.03,-84.8 192.97,-84.8 192.97,-48.8 315.03,-48.8 315.03,-84.8"/>
<text text-anchor="middle" x="254" y="-62.6" font-family="Times,serif" font-size="14.00">WizardComponent</text>
</g>
<!-- FormWizardModule -->
<g id="node3" class="node">
<title>FormWizardModule</title>
<polygon fill="#8dd3c7" stroke="black" points="166.58,-149.8 163.58,-153.8 142.58,-153.8 139.58,-149.8 35.42,-149.8 35.42,-113.8 166.58,-113.8 166.58,-149.8"/>
<text text-anchor="middle" x="101" y="-127.6" font-family="Times,serif" font-size="14.00">FormWizardModule</text>
</g>
<!-- WizardComponent&#45;&gt;FormWizardModule -->
<g id="edge1" class="edge">
<title>WizardComponent&#45;&gt;FormWizardModule</title>
<path fill="none" stroke="black" d="M274.42,-84.82C274.42,-102.17 274.42,-125.8 274.42,-125.8 274.42,-125.8 176.56,-125.8 176.56,-125.8"/>
<polygon fill="black" stroke="black" points="176.56,-122.3 166.56,-125.8 176.56,-129.3 176.56,-122.3"/>
</g>
<!-- WizardStepComponent -->
<g id="node2" class="node">
<title>WizardStepComponent</title>
<polygon fill="#ffffb3" stroke="black" points="174.91,-84.8 27.09,-84.8 27.09,-48.8 174.91,-48.8 174.91,-84.8"/>
<text text-anchor="middle" x="101" y="-62.6" font-family="Times,serif" font-size="14.00">WizardStepComponent</text>
</g>
<!-- WizardStepComponent&#45;&gt;FormWizardModule -->
<g id="edge2" class="edge">
<title>WizardStepComponent&#45;&gt;FormWizardModule</title>
<path fill="none" stroke="black" d="M101,-84.91C101,-84.91 101,-103.79 101,-103.79"/>
<polygon fill="black" stroke="black" points="97.5,-103.79 101,-113.79 104.5,-103.79 97.5,-103.79"/>
</g>
<!-- WizardComponent  -->
<g id="node4" class="node">
<title>WizardComponent </title>
<polygon fill="#fb8072" stroke="black" points="318.02,-214.8 191.98,-214.8 191.98,-178.8 318.02,-178.8 318.02,-214.8"/>
<text text-anchor="middle" x="255" y="-192.6" font-family="Times,serif" font-size="14.00">WizardComponent </text>
</g>
<!-- FormWizardModule&#45;&gt;WizardComponent  -->
<g id="edge3" class="edge">
<title>FormWizardModule&#45;&gt;WizardComponent </title>
<path fill="none" stroke="black" stroke-dasharray="5,2" d="M166.9,-137.8C200.17,-137.8 233.58,-137.8 233.58,-137.8 233.58,-137.8 233.58,-168.78 233.58,-168.78"/>
<polygon fill="black" stroke="black" points="230.08,-168.78 233.58,-178.78 237.08,-168.78 230.08,-168.78"/>
</g>
<!-- WizardStepComponent  -->
<g id="node5" class="node">
<title>WizardStepComponent </title>
<polygon fill="#fb8072" stroke="black" points="174.41,-214.8 23.59,-214.8 23.59,-178.8 174.41,-178.8 174.41,-214.8"/>
<text text-anchor="middle" x="99" y="-192.6" font-family="Times,serif" font-size="14.00">WizardStepComponent </text>
</g>
<!-- FormWizardModule&#45;&gt;WizardStepComponent  -->
<g id="edge4" class="edge">
<title>FormWizardModule&#45;&gt;WizardStepComponent </title>
<path fill="none" stroke="black" stroke-dasharray="5,2" d="M101,-149.91C101,-149.91 101,-168.79 101,-168.79"/>
<polygon fill="black" stroke="black" points="97.5,-168.79 101,-178.79 104.5,-168.79 97.5,-168.79"/>
</g>
</g>
</svg>
