<?xml version="1.0" encoding="UTF-8" standalone="no"?>
<!DOCTYPE svg PUBLIC "-//W3C//DTD SVG 1.1//EN"
 "http://www.w3.org/Graphics/SVG/1.1/DTD/svg11.dtd">
<!-- Generated by graphviz version 5.0.0 (20220707.1540)
 -->
<!-- Title: dependencies Pages: 1 -->
<svg width="360pt" height="174pt"
 viewBox="0.00 0.00 360.00 173.80" xmlns="http://www.w3.org/2000/svg" xmlns:xlink="http://www.w3.org/1999/xlink">
<g id="graph0" class="graph" transform="scale(1 1) rotate(0) translate(4 169.8)">
<title>dependencies</title>
<polygon fill="white" stroke="transparent" points="-4,4 -4,-169.8 356,-169.8 356,4 -4,4"/>
<text text-anchor="middle" x="176" y="-8.2" font-family="sans-serif" font-size="14.00">dependencies</text>
<g id="clust1" class="cluster">
<title>cluster_OthersModule</title>
<polygon fill="none" stroke="black" stroke-dasharray="1,5" points="8,-32.8 8,-157.8 344,-157.8 344,-32.8 8,-32.8"/>
</g>
<g id="clust2" class="cluster">
<title>cluster_OthersModule_declarations</title>
<polygon fill="none" stroke="black" points="182,-40.8 182,-92.8 336,-92.8 336,-40.8 182,-40.8"/>
</g>
<g id="clust4" class="cluster">
<title>cluster_OthersModule_imports</title>
<polygon fill="none" stroke="black" points="16,-40.8 16,-92.8 174,-92.8 174,-40.8 16,-40.8"/>
</g>
<!-- NotFoundComponent -->
<g id="node1" class="node">
<title>NotFoundComponent</title>
<polygon fill="#ffffb3" stroke="black" points="328.12,-84.8 189.88,-84.8 189.88,-48.8 328.12,-48.8 328.12,-84.8"/>
<text text-anchor="middle" x="259" y="-62.6" font-family="Times,serif" font-size="14.00">NotFoundComponent</text>
</g>
<!-- OthersModule -->
<g id="node2" class="node">
<title>OthersModule</title>
<polygon fill="#8dd3c7" stroke="black" points="225.38,-149.8 222.38,-153.8 201.38,-153.8 198.38,-149.8 128.62,-149.8 128.62,-113.8 225.38,-113.8 225.38,-149.8"/>
<text text-anchor="middle" x="177" y="-127.6" font-family="Times,serif" font-size="14.00">OthersModule</text>
</g>
<!-- NotFoundComponent&#45;&gt;OthersModule -->
<g id="edge1" class="edge">
<title>NotFoundComponent&#45;&gt;OthersModule</title>
<path fill="none" stroke="black" d="M207.69,-84.91C207.69,-84.91 207.69,-103.79 207.69,-103.79"/>
<polygon fill="black" stroke="black" points="204.19,-103.79 207.69,-113.79 211.19,-103.79 204.19,-103.79"/>
</g>
<!-- OthersRoutingModule -->
<g id="node3" class="node">
<title>OthersRoutingModule</title>
<polygon fill="#8dd3c7" stroke="black" points="165.99,-84.8 162.99,-88.8 141.99,-88.8 138.99,-84.8 24.01,-84.8 24.01,-48.8 165.99,-48.8 165.99,-84.8"/>
<text text-anchor="middle" x="95" y="-62.6" font-family="Times,serif" font-size="14.00">OthersRoutingModule</text>
</g>
<!-- OthersRoutingModule&#45;&gt;OthersModule -->
<g id="edge2" class="edge">
<title>OthersRoutingModule&#45;&gt;OthersModule</title>
<path fill="none" stroke="black" d="M147.28,-84.91C147.28,-84.91 147.28,-103.79 147.28,-103.79"/>
<polygon fill="black" stroke="black" points="143.78,-103.79 147.28,-113.79 150.78,-103.79 143.78,-103.79"/>
</g>
</g>
</svg>
