<?xml version="1.0" encoding="UTF-8" standalone="no"?>
<!DOCTYPE svg PUBLIC "-//W3C//DTD SVG 1.1//EN"
 "http://www.w3.org/Graphics/SVG/1.1/DTD/svg11.dtd">
<!-- Generated by graphviz version 5.0.0 (20220707.1540)
 -->
<!-- Title: dependencies Pages: 1 -->
<svg width="527pt" height="174pt"
 viewBox="0.00 0.00 527.00 173.80" xmlns="http://www.w3.org/2000/svg" xmlns:xlink="http://www.w3.org/1999/xlink">
<g id="graph0" class="graph" transform="scale(1 1) rotate(0) translate(4 169.8)">
<title>dependencies</title>
<polygon fill="white" stroke="transparent" points="-4,4 -4,-169.8 523,-169.8 523,4 -4,4"/>
<text text-anchor="middle" x="259.5" y="-8.2" font-family="sans-serif" font-size="14.00">dependencies</text>
<g id="clust1" class="cluster">
<title>cluster_AuditModule</title>
<polygon fill="none" stroke="black" stroke-dasharray="1,5" points="8,-32.8 8,-157.8 511,-157.8 511,-32.8 8,-32.8"/>
</g>
<g id="clust2" class="cluster">
<title>cluster_AuditModule_declarations</title>
<polygon fill="none" stroke="black" points="176,-40.8 176,-92.8 503,-92.8 503,-40.8 176,-40.8"/>
</g>
<g id="clust5" class="cluster">
<title>cluster_AuditModule_imports</title>
<polygon fill="none" stroke="black" points="16,-40.8 16,-92.8 168,-92.8 168,-40.8 16,-40.8"/>
</g>
<!-- ActivityComponent -->
<g id="node1" class="node">
<title>ActivityComponent</title>
<polygon fill="#ffffb3" stroke="black" points="494.71,-84.8 367.29,-84.8 367.29,-48.8 494.71,-48.8 494.71,-84.8"/>
<text text-anchor="middle" x="431" y="-62.6" font-family="Times,serif" font-size="14.00">ActivityComponent</text>
</g>
<!-- AuditModule -->
<g id="node3" class="node">
<title>AuditModule</title>
<polygon fill="#8dd3c7" stroke="black" points="312.94,-149.8 309.94,-153.8 288.94,-153.8 285.94,-149.8 221.06,-149.8 221.06,-113.8 312.94,-113.8 312.94,-149.8"/>
<text text-anchor="middle" x="267" y="-127.6" font-family="Times,serif" font-size="14.00">AuditModule</text>
</g>
<!-- ActivityComponent&#45;&gt;AuditModule -->
<g id="edge1" class="edge">
<title>ActivityComponent&#45;&gt;AuditModule</title>
<path fill="none" stroke="black" d="M431,-84.91C431,-104.14 431,-131.8 431,-131.8 431,-131.8 323.12,-131.8 323.12,-131.8"/>
<polygon fill="black" stroke="black" points="323.12,-128.3 313.12,-131.8 323.12,-135.3 323.12,-128.3"/>
</g>
<!-- PlatformUsageComponent -->
<g id="node2" class="node">
<title>PlatformUsageComponent</title>
<polygon fill="#ffffb3" stroke="black" points="349.81,-84.8 184.19,-84.8 184.19,-48.8 349.81,-48.8 349.81,-84.8"/>
<text text-anchor="middle" x="267" y="-62.6" font-family="Times,serif" font-size="14.00">PlatformUsageComponent</text>
</g>
<!-- PlatformUsageComponent&#45;&gt;AuditModule -->
<g id="edge2" class="edge">
<title>PlatformUsageComponent&#45;&gt;AuditModule</title>
<path fill="none" stroke="black" d="M267,-84.91C267,-84.91 267,-103.79 267,-103.79"/>
<polygon fill="black" stroke="black" points="263.5,-103.79 267,-113.79 270.5,-103.79 263.5,-103.79"/>
</g>
<!-- AuditRoutingModule -->
<g id="node4" class="node">
<title>AuditRoutingModule</title>
<polygon fill="#8dd3c7" stroke="black" points="160.06,-84.8 157.06,-88.8 136.06,-88.8 133.06,-84.8 23.94,-84.8 23.94,-48.8 160.06,-48.8 160.06,-84.8"/>
<text text-anchor="middle" x="92" y="-62.6" font-family="Times,serif" font-size="14.00">AuditRoutingModule</text>
</g>
<!-- AuditRoutingModule&#45;&gt;AuditModule -->
<g id="edge3" class="edge">
<title>AuditRoutingModule&#45;&gt;AuditModule</title>
<path fill="none" stroke="black" d="M92,-84.91C92,-104.14 92,-131.8 92,-131.8 92,-131.8 211.02,-131.8 211.02,-131.8"/>
<polygon fill="black" stroke="black" points="211.02,-135.3 221.02,-131.8 211.02,-128.3 211.02,-135.3"/>
</g>
</g>
</svg>
