<?xml version="1.0" encoding="UTF-8" standalone="no"?>
<!DOCTYPE svg PUBLIC "-//W3C//DTD SVG 1.1//EN"
 "http://www.w3.org/Graphics/SVG/1.1/DTD/svg11.dtd">
<!-- Generated by graphviz version 5.0.0 (20220707.1540)
 -->
<!-- Title: dependencies Pages: 1 -->
<svg width="1744pt" height="247pt"
 viewBox="0.00 0.00 1744.00 246.80" xmlns="http://www.w3.org/2000/svg" xmlns:xlink="http://www.w3.org/1999/xlink">
<g id="graph0" class="graph" transform="scale(1 1) rotate(0) translate(4 242.8)">
<title>dependencies</title>
<polygon fill="white" stroke="transparent" points="-4,4 -4,-242.8 1740,-242.8 1740,4 -4,4"/>
<text text-anchor="middle" x="868" y="-8.2" font-family="sans-serif" font-size="14.00">dependencies</text>
<g id="clust1" class="cluster">
<title>cluster_SharedDirectivesModule</title>
<polygon fill="none" stroke="black" stroke-dasharray="1,5" points="8,-32.8 8,-230.8 1728,-230.8 1728,-32.8 8,-32.8"/>
</g>
<g id="clust2" class="cluster">
<title>cluster_SharedDirectivesModule_declarations</title>
<polygon fill="none" stroke="black" points="38,-40.8 38,-92.8 1706,-92.8 1706,-40.8 38,-40.8"/>
</g>
<g id="clust14" class="cluster">
<title>cluster_SharedDirectivesModule_exports</title>
<polygon fill="none" stroke="black" points="16,-170.8 16,-222.8 1720,-222.8 1720,-170.8 16,-170.8"/>
</g>
<!-- AppDropdownDirective -->
<g id="node1" class="node">
<title>AppDropdownDirective</title>
<polygon fill="#ffffb3" stroke="black" points="1698.08,-84.8 1545.92,-84.8 1545.92,-48.8 1698.08,-48.8 1698.08,-84.8"/>
<text text-anchor="middle" x="1622" y="-62.6" font-family="Times,serif" font-size="14.00">AppDropdownDirective</text>
</g>
<!-- SharedDirectivesModule -->
<g id="node11" class="node">
<title>SharedDirectivesModule</title>
<polygon fill="#8dd3c7" stroke="black" points="849.96,-149.8 846.96,-153.8 825.96,-153.8 822.96,-149.8 694.04,-149.8 694.04,-113.8 849.96,-113.8 849.96,-149.8"/>
<text text-anchor="middle" x="772" y="-127.6" font-family="Times,serif" font-size="14.00">SharedDirectivesModule</text>
</g>
<!-- AppDropdownDirective&#45;&gt;SharedDirectivesModule -->
<g id="edge1" class="edge">
<title>AppDropdownDirective&#45;&gt;SharedDirectivesModule</title>
<path fill="none" stroke="black" d="M1551.09,-85.02C1551.09,-103.63 1551.09,-129.8 1551.09,-129.8 1551.09,-129.8 860.27,-129.8 860.27,-129.8"/>
<polygon fill="black" stroke="black" points="860.27,-126.3 850.27,-129.8 860.27,-133.3 860.27,-126.3"/>
</g>
<!-- DropdownAnchorDirective -->
<g id="node2" class="node">
<title>DropdownAnchorDirective</title>
<polygon fill="#ffffb3" stroke="black" points="1527.95,-84.8 1358.05,-84.8 1358.05,-48.8 1527.95,-48.8 1527.95,-84.8"/>
<text text-anchor="middle" x="1443" y="-62.6" font-family="Times,serif" font-size="14.00">DropdownAnchorDirective</text>
</g>
<!-- DropdownAnchorDirective&#45;&gt;SharedDirectivesModule -->
<g id="edge2" class="edge">
<title>DropdownAnchorDirective&#45;&gt;SharedDirectivesModule</title>
<path fill="none" stroke="black" d="M1473.41,-84.82C1473.41,-102.17 1473.41,-125.8 1473.41,-125.8 1473.41,-125.8 860.08,-125.8 860.08,-125.8"/>
<polygon fill="black" stroke="black" points="860.08,-122.3 850.08,-125.8 860.08,-129.3 860.08,-122.3"/>
</g>
<!-- DropdownLinkDirective -->
<g id="node3" class="node">
<title>DropdownLinkDirective</title>
<polygon fill="#ffffb3" stroke="black" points="1340.41,-84.8 1185.59,-84.8 1185.59,-48.8 1340.41,-48.8 1340.41,-84.8"/>
<text text-anchor="middle" x="1263" y="-62.6" font-family="Times,serif" font-size="14.00">DropdownLinkDirective</text>
</g>
<!-- DropdownLinkDirective&#45;&gt;SharedDirectivesModule -->
<g id="edge3" class="edge">
<title>DropdownLinkDirective&#45;&gt;SharedDirectivesModule</title>
<path fill="none" stroke="black" d="M1289.48,-84.81C1289.48,-100.85 1289.48,-121.8 1289.48,-121.8 1289.48,-121.8 860.03,-121.8 860.03,-121.8"/>
<polygon fill="black" stroke="black" points="860.03,-118.3 850.03,-121.8 860.03,-125.3 860.03,-118.3"/>
</g>
<!-- FullScreenWindowDirective -->
<g id="node4" class="node">
<title>FullScreenWindowDirective</title>
<polygon fill="#ffffb3" stroke="black" points="1167.45,-84.8 990.55,-84.8 990.55,-48.8 1167.45,-48.8 1167.45,-84.8"/>
<text text-anchor="middle" x="1079" y="-62.6" font-family="Times,serif" font-size="14.00">FullScreenWindowDirective</text>
</g>
<!-- FullScreenWindowDirective&#45;&gt;SharedDirectivesModule -->
<g id="edge4" class="edge">
<title>FullScreenWindowDirective&#45;&gt;SharedDirectivesModule</title>
<path fill="none" stroke="black" d="M1108.49,-84.92C1108.49,-99.58 1108.49,-117.8 1108.49,-117.8 1108.49,-117.8 860.04,-117.8 860.04,-117.8"/>
<polygon fill="black" stroke="black" points="860.04,-114.3 850.04,-117.8 860.04,-121.3 860.04,-114.3"/>
</g>
<!-- HighlightjsDirective -->
<g id="node5" class="node">
<title>HighlightjsDirective</title>
<polygon fill="#ffffb3" stroke="black" points="972.59,-84.8 841.41,-84.8 841.41,-48.8 972.59,-48.8 972.59,-84.8"/>
<text text-anchor="middle" x="907" y="-62.6" font-family="Times,serif" font-size="14.00">HighlightjsDirective</text>
</g>
<!-- HighlightjsDirective&#45;&gt;SharedDirectivesModule -->
<g id="edge5" class="edge">
<title>HighlightjsDirective&#45;&gt;SharedDirectivesModule</title>
<path fill="none" stroke="black" d="M845.72,-84.91C845.72,-84.91 845.72,-103.79 845.72,-103.79"/>
<polygon fill="black" stroke="black" points="842.22,-103.79 845.72,-113.79 849.22,-103.79 842.22,-103.79"/>
</g>
<!-- ScrollToDirective -->
<g id="node6" class="node">
<title>ScrollToDirective</title>
<polygon fill="#ffffb3" stroke="black" points="823.58,-84.8 706.42,-84.8 706.42,-48.8 823.58,-48.8 823.58,-84.8"/>
<text text-anchor="middle" x="765" y="-62.6" font-family="Times,serif" font-size="14.00">ScrollToDirective</text>
</g>
<!-- ScrollToDirective&#45;&gt;SharedDirectivesModule -->
<g id="edge6" class="edge">
<title>ScrollToDirective&#45;&gt;SharedDirectivesModule</title>
<path fill="none" stroke="black" d="M765,-84.91C765,-84.91 765,-103.79 765,-103.79"/>
<polygon fill="black" stroke="black" points="761.5,-103.79 765,-113.79 768.5,-103.79 761.5,-103.79"/>
</g>
<!-- SidebarContainerDirective -->
<g id="node7" class="node">
<title>SidebarContainerDirective</title>
<polygon fill="#ffffb3" stroke="black" points="688.06,-84.8 521.94,-84.8 521.94,-48.8 688.06,-48.8 688.06,-84.8"/>
<text text-anchor="middle" x="605" y="-62.6" font-family="Times,serif" font-size="14.00">SidebarContainerDirective</text>
</g>
<!-- SidebarContainerDirective&#45;&gt;SharedDirectivesModule -->
<g id="edge7" class="edge">
<title>SidebarContainerDirective&#45;&gt;SharedDirectivesModule</title>
<path fill="none" stroke="black" d="M683.9,-84.92C683.9,-99.58 683.9,-117.8 683.9,-117.8 683.9,-117.8 684.91,-117.8 684.91,-117.8"/>
<polygon fill="black" stroke="black" points="684.01,-121.3 694.01,-117.8 684.01,-114.3 684.01,-121.3"/>
</g>
<!-- SidebarContentDirective -->
<g id="node8" class="node">
<title>SidebarContentDirective</title>
<polygon fill="#ffffb3" stroke="black" points="503.68,-84.8 348.32,-84.8 348.32,-48.8 503.68,-48.8 503.68,-84.8"/>
<text text-anchor="middle" x="426" y="-62.6" font-family="Times,serif" font-size="14.00">SidebarContentDirective</text>
</g>
<!-- SidebarContentDirective&#45;&gt;SharedDirectivesModule -->
<g id="edge8" class="edge">
<title>SidebarContentDirective&#45;&gt;SharedDirectivesModule</title>
<path fill="none" stroke="black" d="M497.96,-84.81C497.96,-100.85 497.96,-121.8 497.96,-121.8 497.96,-121.8 683.84,-121.8 683.84,-121.8"/>
<polygon fill="black" stroke="black" points="683.84,-125.3 693.84,-121.8 683.84,-118.3 683.84,-125.3"/>
</g>
<!-- SidebarDirective -->
<g id="node9" class="node">
<title>SidebarDirective</title>
<polygon fill="#ffffb3" stroke="black" points="330.35,-84.8 219.65,-84.8 219.65,-48.8 330.35,-48.8 330.35,-84.8"/>
<text text-anchor="middle" x="275" y="-62.6" font-family="Times,serif" font-size="14.00">SidebarDirective</text>
</g>
<!-- SidebarDirective&#45;&gt;SharedDirectivesModule -->
<g id="edge9" class="edge">
<title>SidebarDirective&#45;&gt;SharedDirectivesModule</title>
<path fill="none" stroke="black" d="M322.8,-84.82C322.8,-102.17 322.8,-125.8 322.8,-125.8 322.8,-125.8 684.01,-125.8 684.01,-125.8"/>
<polygon fill="black" stroke="black" points="684.01,-129.3 694.01,-125.8 684.01,-122.3 684.01,-129.3"/>
</g>
<!-- SidebarTogglerDirective -->
<g id="node10" class="node">
<title>SidebarTogglerDirective</title>
<polygon fill="#ffffb3" stroke="black" points="201.67,-84.8 46.33,-84.8 46.33,-48.8 201.67,-48.8 201.67,-84.8"/>
<text text-anchor="middle" x="124" y="-62.6" font-family="Times,serif" font-size="14.00">SidebarTogglerDirective</text>
</g>
<!-- SidebarTogglerDirective&#45;&gt;SharedDirectivesModule -->
<g id="edge10" class="edge">
<title>SidebarTogglerDirective&#45;&gt;SharedDirectivesModule</title>
<path fill="none" stroke="black" d="M191.58,-85.02C191.58,-103.63 191.58,-129.8 191.58,-129.8 191.58,-129.8 684.02,-129.8 684.02,-129.8"/>
<polygon fill="black" stroke="black" points="684.02,-133.3 694.02,-129.8 684.02,-126.3 684.02,-133.3"/>
</g>
<!-- AppDropdownDirective  -->
<g id="node12" class="node">
<title>AppDropdownDirective </title>
<polygon fill="#fb8072" stroke="black" points="1711.58,-214.8 1556.42,-214.8 1556.42,-178.8 1711.58,-178.8 1711.58,-214.8"/>
<text text-anchor="middle" x="1634" y="-192.6" font-family="Times,serif" font-size="14.00">AppDropdownDirective </text>
</g>
<!-- SharedDirectivesModule&#45;&gt;AppDropdownDirective  -->
<g id="edge11" class="edge">
<title>SharedDirectivesModule&#45;&gt;AppDropdownDirective </title>
<path fill="none" stroke="black" stroke-dasharray="5,2" d="M850.15,-133.8C1061.25,-133.8 1627.12,-133.8 1627.12,-133.8 1627.12,-133.8 1627.12,-168.58 1627.12,-168.58"/>
<polygon fill="black" stroke="black" points="1623.63,-168.58 1627.12,-178.58 1630.63,-168.58 1623.63,-168.58"/>
</g>
<!-- DropdownAnchorDirective  -->
<g id="node13" class="node">
<title>DropdownAnchorDirective </title>
<polygon fill="#fb8072" stroke="black" points="1537.95,-214.8 1364.05,-214.8 1364.05,-178.8 1537.95,-178.8 1537.95,-214.8"/>
<text text-anchor="middle" x="1451" y="-192.6" font-family="Times,serif" font-size="14.00">DropdownAnchorDirective </text>
</g>
<!-- SharedDirectivesModule&#45;&gt;DropdownAnchorDirective  -->
<g id="edge12" class="edge">
<title>SharedDirectivesModule&#45;&gt;DropdownAnchorDirective </title>
<path fill="none" stroke="black" stroke-dasharray="5,2" d="M850.02,-137.8C1022.06,-137.8 1418.84,-137.8 1418.84,-137.8 1418.84,-137.8 1418.84,-168.78 1418.84,-168.78"/>
<polygon fill="black" stroke="black" points="1415.34,-168.78 1418.84,-178.78 1422.34,-168.78 1415.34,-168.78"/>
</g>
<!-- DropdownLinkDirective  -->
<g id="node14" class="node">
<title>DropdownLinkDirective </title>
<polygon fill="#fb8072" stroke="black" points="1345.91,-214.8 1188.09,-214.8 1188.09,-178.8 1345.91,-178.8 1345.91,-214.8"/>
<text text-anchor="middle" x="1267" y="-192.6" font-family="Times,serif" font-size="14.00">DropdownLinkDirective </text>
</g>
<!-- SharedDirectivesModule&#45;&gt;DropdownLinkDirective  -->
<g id="edge13" class="edge">
<title>SharedDirectivesModule&#45;&gt;DropdownLinkDirective </title>
<path fill="none" stroke="black" stroke-dasharray="5,2" d="M850.13,-141.8C983,-141.8 1238.77,-141.8 1238.77,-141.8 1238.77,-141.8 1238.77,-168.79 1238.77,-168.79"/>
<polygon fill="black" stroke="black" points="1235.27,-168.79 1238.77,-178.79 1242.27,-168.79 1235.27,-168.79"/>
</g>
<!-- FullScreenWindowDirective  -->
<g id="node15" class="node">
<title>FullScreenWindowDirective </title>
<polygon fill="#fb8072" stroke="black" points="1170.45,-214.8 989.55,-214.8 989.55,-178.8 1170.45,-178.8 1170.45,-214.8"/>
<text text-anchor="middle" x="1080" y="-192.6" font-family="Times,serif" font-size="14.00">FullScreenWindowDirective </text>
</g>
<!-- SharedDirectivesModule&#45;&gt;FullScreenWindowDirective  -->
<g id="edge14" class="edge">
<title>SharedDirectivesModule&#45;&gt;FullScreenWindowDirective </title>
<path fill="none" stroke="black" stroke-dasharray="5,2" d="M850.04,-145.8C932.12,-145.8 1049.51,-145.8 1049.51,-145.8 1049.51,-145.8 1049.51,-168.68 1049.51,-168.68"/>
<polygon fill="black" stroke="black" points="1046.01,-168.68 1049.51,-178.68 1053.01,-168.68 1046.01,-168.68"/>
</g>
<!-- HighlightjsDirective  -->
<g id="node16" class="node">
<title>HighlightjsDirective </title>
<polygon fill="#fb8072" stroke="black" points="971.09,-214.8 836.91,-214.8 836.91,-178.8 971.09,-178.8 971.09,-214.8"/>
<text text-anchor="middle" x="904" y="-192.6" font-family="Times,serif" font-size="14.00">HighlightjsDirective </text>
</g>
<!-- SharedDirectivesModule&#45;&gt;HighlightjsDirective  -->
<g id="edge15" class="edge">
<title>SharedDirectivesModule&#45;&gt;HighlightjsDirective </title>
<path fill="none" stroke="black" stroke-dasharray="5,2" d="M843.34,-149.91C843.34,-149.91 843.34,-168.79 843.34,-168.79"/>
<polygon fill="black" stroke="black" points="839.84,-168.79 843.34,-178.79 846.84,-168.79 839.84,-168.79"/>
</g>
<!-- ScrollToDirective  -->
<g id="node17" class="node">
<title>ScrollToDirective </title>
<polygon fill="#fb8072" stroke="black" points="818.08,-214.8 697.92,-214.8 697.92,-178.8 818.08,-178.8 818.08,-214.8"/>
<text text-anchor="middle" x="758" y="-192.6" font-family="Times,serif" font-size="14.00">ScrollToDirective </text>
</g>
<!-- SharedDirectivesModule&#45;&gt;ScrollToDirective  -->
<g id="edge16" class="edge">
<title>SharedDirectivesModule&#45;&gt;ScrollToDirective </title>
<path fill="none" stroke="black" stroke-dasharray="5,2" d="M758,-149.91C758,-149.91 758,-168.79 758,-168.79"/>
<polygon fill="black" stroke="black" points="754.5,-168.79 758,-178.79 761.5,-168.79 754.5,-168.79"/>
</g>
<!-- SidebarContainerDirective  -->
<g id="node18" class="node">
<title>SidebarContainerDirective </title>
<polygon fill="#fb8072" stroke="black" points="679.56,-214.8 510.44,-214.8 510.44,-178.8 679.56,-178.8 679.56,-214.8"/>
<text text-anchor="middle" x="595" y="-192.6" font-family="Times,serif" font-size="14.00">SidebarContainerDirective </text>
</g>
<!-- SharedDirectivesModule&#45;&gt;SidebarContainerDirective  -->
<g id="edge17" class="edge">
<title>SharedDirectivesModule&#45;&gt;SidebarContainerDirective </title>
<path fill="none" stroke="black" stroke-dasharray="5,2" d="M693.95,-145.8C648.82,-145.8 600.88,-145.8 600.88,-145.8 600.88,-145.8 600.88,-168.68 600.88,-168.68"/>
<polygon fill="black" stroke="black" points="597.38,-168.68 600.88,-178.68 604.38,-168.68 597.38,-168.68"/>
</g>
<!-- SidebarContentDirective  -->
<g id="node19" class="node">
<title>SidebarContentDirective </title>
<polygon fill="#fb8072" stroke="black" points="492.18,-214.8 333.82,-214.8 333.82,-178.8 492.18,-178.8 492.18,-214.8"/>
<text text-anchor="middle" x="413" y="-192.6" font-family="Times,serif" font-size="14.00">SidebarContentDirective </text>
</g>
<!-- SharedDirectivesModule&#45;&gt;SidebarContentDirective  -->
<g id="edge18" class="edge">
<title>SharedDirectivesModule&#45;&gt;SidebarContentDirective </title>
<path fill="none" stroke="black" stroke-dasharray="5,2" d="M693.96,-141.8C590.37,-141.8 420.38,-141.8 420.38,-141.8 420.38,-141.8 420.38,-168.79 420.38,-168.79"/>
<polygon fill="black" stroke="black" points="416.88,-168.79 420.38,-178.79 423.88,-168.79 416.88,-168.79"/>
</g>
<!-- SidebarDirective  -->
<g id="node20" class="node">
<title>SidebarDirective </title>
<polygon fill="#fb8072" stroke="black" points="315.35,-214.8 200.65,-214.8 200.65,-178.8 315.35,-178.8 315.35,-214.8"/>
<text text-anchor="middle" x="258" y="-192.6" font-family="Times,serif" font-size="14.00">SidebarDirective </text>
</g>
<!-- SharedDirectivesModule&#45;&gt;SidebarDirective  -->
<g id="edge19" class="edge">
<title>SharedDirectivesModule&#45;&gt;SidebarDirective </title>
<path fill="none" stroke="black" stroke-dasharray="5,2" d="M693.98,-137.8C552.34,-137.8 267.38,-137.8 267.38,-137.8 267.38,-137.8 267.38,-168.78 267.38,-168.78"/>
<polygon fill="black" stroke="black" points="263.88,-168.78 267.38,-178.78 270.88,-168.78 263.88,-168.78"/>
</g>
<!-- SidebarTogglerDirective  -->
<g id="node21" class="node">
<title>SidebarTogglerDirective </title>
<polygon fill="#fb8072" stroke="black" points="182.17,-214.8 23.83,-214.8 23.83,-178.8 182.17,-178.8 182.17,-214.8"/>
<text text-anchor="middle" x="103" y="-192.6" font-family="Times,serif" font-size="14.00">SidebarTogglerDirective </text>
</g>
<!-- SharedDirectivesModule&#45;&gt;SidebarTogglerDirective  -->
<g id="edge20" class="edge">
<title>SharedDirectivesModule&#45;&gt;SidebarTogglerDirective </title>
<path fill="none" stroke="black" stroke-dasharray="5,2" d="M693.98,-133.8C519.78,-133.8 114.38,-133.8 114.38,-133.8 114.38,-133.8 114.38,-168.58 114.38,-168.58"/>
<polygon fill="black" stroke="black" points="110.88,-168.58 114.38,-178.58 117.88,-168.58 110.88,-168.58"/>
</g>
</g>
</svg>
