<?xml version="1.0" encoding="UTF-8" standalone="no"?>
<!DOCTYPE svg PUBLIC "-//W3C//DTD SVG 1.1//EN"
 "http://www.w3.org/Graphics/SVG/1.1/DTD/svg11.dtd">
<!-- Generated by graphviz version 5.0.0 (20220707.1540)
 -->
<!-- Title: dependencies Pages: 1 -->
<svg width="904pt" height="247pt"
 viewBox="0.00 0.00 904.00 246.80" xmlns="http://www.w3.org/2000/svg" xmlns:xlink="http://www.w3.org/1999/xlink">
<g id="graph0" class="graph" transform="scale(1 1) rotate(0) translate(4 242.8)">
<title>dependencies</title>
<polygon fill="white" stroke="transparent" points="-4,4 -4,-242.8 900,-242.8 900,4 -4,4"/>
<text text-anchor="middle" x="448" y="-8.2" font-family="sans-serif" font-size="14.00">dependencies</text>
<g id="clust1" class="cluster">
<title>cluster_AppModule</title>
<polygon fill="none" stroke="black" stroke-dasharray="1,5" points="8,-32.8 8,-230.8 888,-230.8 888,-32.8 8,-32.8"/>
</g>
<g id="clust2" class="cluster">
<title>cluster_AppModule_declarations</title>
<polygon fill="none" stroke="black" points="758,-40.8 758,-92.8 880,-92.8 880,-40.8 758,-40.8"/>
</g>
<g id="clust7" class="cluster">
<title>cluster_AppModule_providers</title>
<polygon fill="none" stroke="black" points="285,-40.8 285,-92.8 750,-92.8 750,-40.8 285,-40.8"/>
</g>
<g id="clust4" class="cluster">
<title>cluster_AppModule_imports</title>
<polygon fill="none" stroke="black" points="16,-40.8 16,-92.8 277,-92.8 277,-40.8 16,-40.8"/>
</g>
<g id="clust6" class="cluster">
<title>cluster_AppModule_bootstrap</title>
<polygon fill="none" stroke="black" points="357,-170.8 357,-222.8 481,-222.8 481,-170.8 357,-170.8"/>
</g>
<!-- AppComponent -->
<g id="node1" class="node">
<title>AppComponent</title>
<polygon fill="#ffffb3" stroke="black" points="871.94,-84.8 766.06,-84.8 766.06,-48.8 871.94,-48.8 871.94,-84.8"/>
<text text-anchor="middle" x="819" y="-62.6" font-family="Times,serif" font-size="14.00">AppComponent</text>
</g>
<!-- AppModule -->
<g id="node2" class="node">
<title>AppModule</title>
<polygon fill="#8dd3c7" stroke="black" points="460.66,-149.8 457.66,-153.8 436.66,-153.8 433.66,-149.8 377.34,-149.8 377.34,-113.8 460.66,-113.8 460.66,-149.8"/>
<text text-anchor="middle" x="419" y="-127.6" font-family="Times,serif" font-size="14.00">AppModule</text>
</g>
<!-- AppComponent&#45;&gt;AppModule -->
<g id="edge1" class="edge">
<title>AppComponent&#45;&gt;AppModule</title>
<path fill="none" stroke="black" d="M819,-85.08C819,-106.12 819,-137.8 819,-137.8 819,-137.8 470.68,-137.8 470.68,-137.8"/>
<polygon fill="black" stroke="black" points="470.68,-134.3 460.68,-137.8 470.67,-141.3 470.68,-134.3"/>
</g>
<!-- AppComponent  -->
<g id="node5" class="node">
<title>AppComponent </title>
<polygon fill="#80b1d3" stroke="black" points="473.44,-214.8 364.56,-214.8 364.56,-178.8 473.44,-178.8 473.44,-214.8"/>
<text text-anchor="middle" x="419" y="-192.6" font-family="Times,serif" font-size="14.00">AppComponent </text>
</g>
<!-- AppModule&#45;&gt;AppComponent  -->
<g id="edge4" class="edge">
<title>AppModule&#45;&gt;AppComponent </title>
<path fill="none" stroke="black" stroke-dasharray="1,5" d="M419,-149.91C419,-149.91 419,-168.79 419,-168.79"/>
<polygon fill="black" stroke="black" points="415.5,-168.79 419,-178.79 422.5,-168.79 415.5,-168.79"/>
</g>
<!-- AppRoutingModule -->
<g id="node3" class="node">
<title>AppRoutingModule</title>
<polygon fill="#8dd3c7" stroke="black" points="269.28,-84.8 266.28,-88.8 245.28,-88.8 242.28,-84.8 140.72,-84.8 140.72,-48.8 269.28,-48.8 269.28,-84.8"/>
<text text-anchor="middle" x="205" y="-62.6" font-family="Times,serif" font-size="14.00">AppRoutingModule</text>
</g>
<!-- AppRoutingModule&#45;&gt;AppModule -->
<g id="edge2" class="edge">
<title>AppRoutingModule&#45;&gt;AppModule</title>
<path fill="none" stroke="black" d="M205,-84.82C205,-102.17 205,-125.8 205,-125.8 205,-125.8 367.23,-125.8 367.23,-125.8"/>
<polygon fill="black" stroke="black" points="367.23,-129.3 377.23,-125.8 367.23,-122.3 367.23,-129.3"/>
</g>
<!-- SharedModule -->
<g id="node4" class="node">
<title>SharedModule</title>
<polygon fill="#8dd3c7" stroke="black" points="122.43,-84.8 119.43,-88.8 98.43,-88.8 95.43,-84.8 23.57,-84.8 23.57,-48.8 122.43,-48.8 122.43,-84.8"/>
<text text-anchor="middle" x="73" y="-62.6" font-family="Times,serif" font-size="14.00">SharedModule</text>
</g>
<!-- SharedModule&#45;&gt;AppModule -->
<g id="edge3" class="edge">
<title>SharedModule&#45;&gt;AppModule</title>
<path fill="none" stroke="black" d="M73,-85.08C73,-106.12 73,-137.8 73,-137.8 73,-137.8 367.26,-137.8 367.26,-137.8"/>
<polygon fill="black" stroke="black" points="367.26,-141.3 377.26,-137.8 367.26,-134.3 367.26,-141.3"/>
</g>
<!-- ManageUserService -->
<g id="node6" class="node">
<title>ManageUserService</title>
<ellipse fill="#fdb462" stroke="black" cx="653" cy="-66.8" rx="89.16" ry="18"/>
<text text-anchor="middle" x="653" y="-62.6" font-family="Times,serif" font-size="14.00">ManageUserService</text>
</g>
<!-- ManageUserService&#45;&gt;AppModule -->
<g id="edge5" class="edge">
<title>ManageUserService&#45;&gt;AppModule</title>
<path fill="none" stroke="black" d="M653,-84.82C653,-102.17 653,-125.8 653,-125.8 653,-125.8 470.83,-125.8 470.83,-125.8"/>
<polygon fill="black" stroke="black" points="470.83,-122.3 460.83,-125.8 470.83,-129.3 470.83,-122.3"/>
</g>
<!-- UnauthorizedErrorInterceptor -->
<g id="node7" class="node">
<title>UnauthorizedErrorInterceptor</title>
<ellipse fill="#fdb462" stroke="black" cx="419" cy="-66.8" rx="126.15" ry="18"/>
<text text-anchor="middle" x="419" y="-62.6" font-family="Times,serif" font-size="14.00">UnauthorizedErrorInterceptor</text>
</g>
<!-- UnauthorizedErrorInterceptor&#45;&gt;AppModule -->
<g id="edge6" class="edge">
<title>UnauthorizedErrorInterceptor&#45;&gt;AppModule</title>
<path fill="none" stroke="black" d="M419,-84.91C419,-84.91 419,-103.79 419,-103.79"/>
<polygon fill="black" stroke="black" points="415.5,-103.79 419,-113.79 422.5,-103.79 415.5,-103.79"/>
</g>
</g>
</svg>
