<?xml version="1.0" encoding="UTF-8" standalone="no"?>
<!DOCTYPE svg PUBLIC "-//W3C//DTD SVG 1.1//EN"
 "http://www.w3.org/Graphics/SVG/1.1/DTD/svg11.dtd">
<!-- Generated by graphviz version 5.0.0 (20220707.1540)
 -->
<!-- Title: dependencies Pages: 1 -->
<svg width="2266pt" height="247pt"
 viewBox="0.00 0.00 2266.00 246.80" xmlns="http://www.w3.org/2000/svg" xmlns:xlink="http://www.w3.org/1999/xlink">
<g id="graph0" class="graph" transform="scale(1 1) rotate(0) translate(4 242.8)">
<title>dependencies</title>
<polygon fill="white" stroke="transparent" points="-4,4 -4,-242.8 2262,-242.8 2262,4 -4,4"/>
<text text-anchor="middle" x="1129" y="-8.2" font-family="sans-serif" font-size="14.00">dependencies</text>
<g id="clust1" class="cluster">
<title>cluster_SharedComponentsModule</title>
<polygon fill="none" stroke="black" stroke-dasharray="1,5" points="8,-32.8 8,-230.8 2250,-230.8 2250,-32.8 8,-32.8"/>
</g>
<g id="clust2" class="cluster">
<title>cluster_SharedComponentsModule_declarations</title>
<polygon fill="none" stroke="black" points="434,-40.8 434,-92.8 2242,-92.8 2242,-40.8 434,-40.8"/>
</g>
<g id="clust14" class="cluster">
<title>cluster_SharedComponentsModule_exports</title>
<polygon fill="none" stroke="black" points="170,-170.8 170,-222.8 2013,-222.8 2013,-170.8 170,-170.8"/>
</g>
<g id="clust13" class="cluster">
<title>cluster_SharedComponentsModule_imports</title>
<polygon fill="none" stroke="black" points="16,-40.8 16,-92.8 426,-92.8 426,-40.8 16,-40.8"/>
</g>
<!-- BreadcrumbComponent -->
<g id="node1" class="node">
<title>BreadcrumbComponent</title>
<polygon fill="#ffffb3" stroke="black" points="2234.03,-84.8 2083.97,-84.8 2083.97,-48.8 2234.03,-48.8 2234.03,-84.8"/>
<text text-anchor="middle" x="2159" y="-62.6" font-family="Times,serif" font-size="14.00">BreadcrumbComponent</text>
</g>
<!-- SharedComponentsModule -->
<g id="node11" class="node">
<title>SharedComponentsModule</title>
<polygon fill="#8dd3c7" stroke="black" points="1151.71,-149.8 1148.71,-153.8 1127.71,-153.8 1124.71,-149.8 982.29,-149.8 982.29,-113.8 1151.71,-113.8 1151.71,-149.8"/>
<text text-anchor="middle" x="1067" y="-127.6" font-family="Times,serif" font-size="14.00">SharedComponentsModule</text>
</g>
<!-- BreadcrumbComponent&#45;&gt;SharedComponentsModule -->
<g id="edge1" class="edge">
<title>BreadcrumbComponent&#45;&gt;SharedComponentsModule</title>
<path fill="none" stroke="black" d="M2159,-84.91C2159,-104.14 2159,-131.8 2159,-131.8 2159,-131.8 1161.78,-131.8 1161.78,-131.8"/>
<polygon fill="black" stroke="black" points="1161.78,-128.3 1151.78,-131.8 1161.78,-135.3 1161.78,-128.3"/>
</g>
<!-- BtnLoadingComponent -->
<g id="node2" class="node">
<title>BtnLoadingComponent</title>
<polygon fill="#ffffb3" stroke="black" points="2066.21,-84.8 1917.79,-84.8 1917.79,-48.8 2066.21,-48.8 2066.21,-84.8"/>
<text text-anchor="middle" x="1992" y="-62.6" font-family="Times,serif" font-size="14.00">BtnLoadingComponent</text>
</g>
<!-- BtnLoadingComponent&#45;&gt;SharedComponentsModule -->
<g id="edge2" class="edge">
<title>BtnLoadingComponent&#45;&gt;SharedComponentsModule</title>
<path fill="none" stroke="black" d="M1961.45,-85.07C1961.45,-103.36 1961.45,-128.8 1961.45,-128.8 1961.45,-128.8 1161.95,-128.8 1161.95,-128.8"/>
<polygon fill="black" stroke="black" points="1161.95,-125.3 1151.95,-128.8 1161.95,-132.3 1161.95,-125.3"/>
</g>
<!-- CreateDataCategoryCardComponent -->
<g id="node3" class="node">
<title>CreateDataCategoryCardComponent</title>
<polygon fill="#ffffb3" stroke="black" points="1899.32,-84.8 1676.68,-84.8 1676.68,-48.8 1899.32,-48.8 1899.32,-84.8"/>
<text text-anchor="middle" x="1788" y="-62.6" font-family="Times,serif" font-size="14.00">CreateDataCategoryCardComponent</text>
</g>
<!-- CreateDataCategoryCardComponent&#45;&gt;SharedComponentsModule -->
<g id="edge3" class="edge">
<title>CreateDataCategoryCardComponent&#45;&gt;SharedComponentsModule</title>
<path fill="none" stroke="black" d="M1731.71,-84.83C1731.71,-101.86 1731.71,-124.8 1731.71,-124.8 1731.71,-124.8 1161.86,-124.8 1161.86,-124.8"/>
<polygon fill="black" stroke="black" points="1161.86,-121.3 1151.86,-124.8 1161.86,-128.3 1161.86,-121.3"/>
</g>
<!-- DatatableScrollComponent -->
<g id="node4" class="node">
<title>DatatableScrollComponent</title>
<polygon fill="#ffffb3" stroke="black" points="1658.41,-84.8 1489.59,-84.8 1489.59,-48.8 1658.41,-48.8 1658.41,-84.8"/>
<text text-anchor="middle" x="1574" y="-62.6" font-family="Times,serif" font-size="14.00">DatatableScrollComponent</text>
</g>
<!-- DatatableScrollComponent&#45;&gt;SharedComponentsModule -->
<g id="edge4" class="edge">
<title>DatatableScrollComponent&#45;&gt;SharedComponentsModule</title>
<path fill="none" stroke="black" d="M1574,-84.81C1574,-100.85 1574,-121.8 1574,-121.8 1574,-121.8 1161.86,-121.8 1161.86,-121.8"/>
<polygon fill="black" stroke="black" points="1161.86,-118.3 1151.86,-121.8 1161.86,-125.3 1161.86,-118.3"/>
</g>
<!-- FeatherIconComponent -->
<g id="node5" class="node">
<title>FeatherIconComponent</title>
<polygon fill="#ffffb3" stroke="black" points="1472.19,-84.8 1323.81,-84.8 1323.81,-48.8 1472.19,-48.8 1472.19,-84.8"/>
<text text-anchor="middle" x="1398" y="-62.6" font-family="Times,serif" font-size="14.00">FeatherIconComponent</text>
</g>
<!-- FeatherIconComponent&#45;&gt;SharedComponentsModule -->
<g id="edge5" class="edge">
<title>FeatherIconComponent&#45;&gt;SharedComponentsModule</title>
<path fill="none" stroke="black" d="M1371.43,-84.92C1371.43,-99.58 1371.43,-117.8 1371.43,-117.8 1371.43,-117.8 1161.8,-117.8 1161.8,-117.8"/>
<polygon fill="black" stroke="black" points="1161.8,-114.3 1151.8,-117.8 1161.8,-121.3 1161.8,-114.3"/>
</g>
<!-- PayeReceiptComponent -->
<g id="node6" class="node">
<title>PayeReceiptComponent</title>
<polygon fill="#ffffb3" stroke="black" points="1305.8,-84.8 1154.2,-84.8 1154.2,-48.8 1305.8,-48.8 1305.8,-84.8"/>
<text text-anchor="middle" x="1230" y="-62.6" font-family="Times,serif" font-size="14.00">PayeReceiptComponent</text>
</g>
<!-- PayeReceiptComponent&#45;&gt;SharedComponentsModule -->
<g id="edge6" class="edge">
<title>PayeReceiptComponent&#45;&gt;SharedComponentsModule</title>
<path fill="none" stroke="black" d="M1154.05,-66.8C1148.03,-66.8 1144.21,-66.8 1144.21,-66.8 1144.21,-66.8 1144.21,-103.69 1144.21,-103.69"/>
<polygon fill="black" stroke="black" points="1140.71,-103.69 1144.21,-113.69 1147.71,-103.69 1140.71,-103.69"/>
</g>
<!-- RecaptchaComponent -->
<g id="node7" class="node">
<title>RecaptchaComponent</title>
<polygon fill="#ffffb3" stroke="black" points="1136.63,-84.8 997.37,-84.8 997.37,-48.8 1136.63,-48.8 1136.63,-84.8"/>
<text text-anchor="middle" x="1067" y="-62.6" font-family="Times,serif" font-size="14.00">RecaptchaComponent</text>
</g>
<!-- RecaptchaComponent&#45;&gt;SharedComponentsModule -->
<g id="edge7" class="edge">
<title>RecaptchaComponent&#45;&gt;SharedComponentsModule</title>
<path fill="none" stroke="black" d="M1067,-84.91C1067,-84.91 1067,-103.79 1067,-103.79"/>
<polygon fill="black" stroke="black" points="1063.5,-103.79 1067,-113.79 1070.5,-103.79 1063.5,-103.79"/>
</g>
<!-- SearchIconComponent -->
<g id="node8" class="node">
<title>SearchIconComponent</title>
<polygon fill="#ffffb3" stroke="black" points="979.3,-84.8 834.7,-84.8 834.7,-48.8 979.3,-48.8 979.3,-84.8"/>
<text text-anchor="middle" x="907" y="-62.6" font-family="Times,serif" font-size="14.00">SearchIconComponent</text>
</g>
<!-- SearchIconComponent&#45;&gt;SharedComponentsModule -->
<g id="edge8" class="edge">
<title>SearchIconComponent&#45;&gt;SharedComponentsModule</title>
<path fill="none" stroke="black" d="M979.31,-66.8C985.69,-66.8 989.79,-66.8 989.79,-66.8 989.79,-66.8 989.79,-103.69 989.79,-103.69"/>
<polygon fill="black" stroke="black" points="986.29,-103.69 989.79,-113.69 993.29,-103.69 986.29,-103.69"/>
</g>
<!-- TaxEnumerationCardComponent -->
<g id="node9" class="node">
<title>TaxEnumerationCardComponent</title>
<polygon fill="#ffffb3" stroke="black" points="817.12,-84.8 614.88,-84.8 614.88,-48.8 817.12,-48.8 817.12,-84.8"/>
<text text-anchor="middle" x="716" y="-62.6" font-family="Times,serif" font-size="14.00">TaxEnumerationCardComponent</text>
</g>
<!-- TaxEnumerationCardComponent&#45;&gt;SharedComponentsModule -->
<g id="edge9" class="edge">
<title>TaxEnumerationCardComponent&#45;&gt;SharedComponentsModule</title>
<path fill="none" stroke="black" d="M780.37,-84.92C780.37,-99.58 780.37,-117.8 780.37,-117.8 780.37,-117.8 972.17,-117.8 972.17,-117.8"/>
<polygon fill="black" stroke="black" points="972.17,-121.3 982.17,-117.8 972.17,-114.3 972.17,-121.3"/>
</g>
<!-- TestPaymentComponent -->
<g id="node10" class="node">
<title>TestPaymentComponent</title>
<polygon fill="#ffffb3" stroke="black" points="596.43,-84.8 441.57,-84.8 441.57,-48.8 596.43,-48.8 596.43,-84.8"/>
<text text-anchor="middle" x="519" y="-62.6" font-family="Times,serif" font-size="14.00">TestPaymentComponent</text>
</g>
<!-- TestPaymentComponent&#45;&gt;SharedComponentsModule -->
<g id="edge10" class="edge">
<title>TestPaymentComponent&#45;&gt;SharedComponentsModule</title>
<path fill="none" stroke="black" d="M587.16,-84.81C587.16,-100.85 587.16,-121.8 587.16,-121.8 587.16,-121.8 972.32,-121.8 972.32,-121.8"/>
<polygon fill="black" stroke="black" points="972.32,-125.3 982.32,-121.8 972.32,-118.3 972.32,-125.3"/>
</g>
<!-- BreadcrumbComponent  -->
<g id="node15" class="node">
<title>BreadcrumbComponent </title>
<polygon fill="#fb8072" stroke="black" points="2005.02,-214.8 1850.98,-214.8 1850.98,-178.8 2005.02,-178.8 2005.02,-214.8"/>
<text text-anchor="middle" x="1928" y="-192.6" font-family="Times,serif" font-size="14.00">BreadcrumbComponent </text>
</g>
<!-- SharedComponentsModule&#45;&gt;BreadcrumbComponent  -->
<g id="edge14" class="edge">
<title>SharedComponentsModule&#45;&gt;BreadcrumbComponent </title>
<path fill="none" stroke="black" stroke-dasharray="5,2" d="M1151.96,-135.8C1359.47,-135.8 1875.2,-135.8 1875.2,-135.8 1875.2,-135.8 1875.2,-168.5 1875.2,-168.5"/>
<polygon fill="black" stroke="black" points="1871.7,-168.5 1875.2,-178.5 1878.7,-168.5 1871.7,-168.5"/>
</g>
<!-- BtnLoadingComponent  -->
<g id="node16" class="node">
<title>BtnLoadingComponent </title>
<polygon fill="#fb8072" stroke="black" points="1832.71,-214.8 1681.29,-214.8 1681.29,-178.8 1832.71,-178.8 1832.71,-214.8"/>
<text text-anchor="middle" x="1757" y="-192.6" font-family="Times,serif" font-size="14.00">BtnLoadingComponent </text>
</g>
<!-- SharedComponentsModule&#45;&gt;BtnLoadingComponent  -->
<g id="edge15" class="edge">
<title>SharedComponentsModule&#45;&gt;BtnLoadingComponent </title>
<path fill="none" stroke="black" stroke-dasharray="5,2" d="M1151.86,-139.8C1341.33,-139.8 1782.29,-139.8 1782.29,-139.8 1782.29,-139.8 1782.29,-168.76 1782.29,-168.76"/>
<polygon fill="black" stroke="black" points="1778.79,-168.76 1782.29,-178.76 1785.79,-168.76 1778.79,-168.76"/>
</g>
<!-- CreateDataCategoryCardComponent  -->
<g id="node17" class="node">
<title>CreateDataCategoryCardComponent </title>
<polygon fill="#fb8072" stroke="black" points="1663.32,-214.8 1436.68,-214.8 1436.68,-178.8 1663.32,-178.8 1663.32,-214.8"/>
<text text-anchor="middle" x="1550" y="-192.6" font-family="Times,serif" font-size="14.00">CreateDataCategoryCardComponent </text>
</g>
<!-- SharedComponentsModule&#45;&gt;CreateDataCategoryCardComponent  -->
<g id="edge16" class="edge">
<title>SharedComponentsModule&#45;&gt;CreateDataCategoryCardComponent </title>
<path fill="none" stroke="black" stroke-dasharray="5,2" d="M1152.03,-142.8C1266.09,-142.8 1454.47,-142.8 1454.47,-142.8 1454.47,-142.8 1454.47,-168.52 1454.47,-168.52"/>
<polygon fill="black" stroke="black" points="1450.97,-168.52 1454.47,-178.52 1457.97,-168.52 1450.97,-168.52"/>
</g>
<!-- DatatableScrollComponent  -->
<g id="node18" class="node">
<title>DatatableScrollComponent </title>
<polygon fill="#fb8072" stroke="black" points="1418.91,-214.8 1247.09,-214.8 1247.09,-178.8 1418.91,-178.8 1418.91,-214.8"/>
<text text-anchor="middle" x="1333" y="-192.6" font-family="Times,serif" font-size="14.00">DatatableScrollComponent </text>
</g>
<!-- SharedComponentsModule&#45;&gt;DatatableScrollComponent  -->
<g id="edge17" class="edge">
<title>SharedComponentsModule&#45;&gt;DatatableScrollComponent </title>
<path fill="none" stroke="black" stroke-dasharray="5,2" d="M1151.85,-146.8C1209.88,-146.8 1276.35,-146.8 1276.35,-146.8 1276.35,-146.8 1276.35,-168.75 1276.35,-168.75"/>
<polygon fill="black" stroke="black" points="1272.85,-168.75 1276.35,-178.75 1279.85,-168.75 1272.85,-168.75"/>
</g>
<!-- FeatherIconComponent  -->
<g id="node19" class="node">
<title>FeatherIconComponent </title>
<polygon fill="#fb8072" stroke="black" points="1228.69,-214.8 1077.31,-214.8 1077.31,-178.8 1228.69,-178.8 1228.69,-214.8"/>
<text text-anchor="middle" x="1153" y="-192.6" font-family="Times,serif" font-size="14.00">FeatherIconComponent </text>
</g>
<!-- SharedComponentsModule&#45;&gt;FeatherIconComponent  -->
<g id="edge18" class="edge">
<title>SharedComponentsModule&#45;&gt;FeatherIconComponent </title>
<path fill="none" stroke="black" stroke-dasharray="5,2" d="M1114.38,-149.91C1114.38,-149.91 1114.38,-168.79 1114.38,-168.79"/>
<polygon fill="black" stroke="black" points="1110.88,-168.79 1114.38,-178.79 1117.88,-168.79 1110.88,-168.79"/>
</g>
<!-- PayeReceiptComponent  -->
<g id="node20" class="node">
<title>PayeReceiptComponent </title>
<polygon fill="#fb8072" stroke="black" points="1059.3,-214.8 904.7,-214.8 904.7,-178.8 1059.3,-178.8 1059.3,-214.8"/>
<text text-anchor="middle" x="982" y="-192.6" font-family="Times,serif" font-size="14.00">PayeReceiptComponent </text>
</g>
<!-- SharedComponentsModule&#45;&gt;PayeReceiptComponent  -->
<g id="edge19" class="edge">
<title>SharedComponentsModule&#45;&gt;PayeReceiptComponent </title>
<path fill="none" stroke="black" stroke-dasharray="5,2" d="M1020.9,-149.91C1020.9,-149.91 1020.9,-168.79 1020.9,-168.79"/>
<polygon fill="black" stroke="black" points="1017.4,-168.79 1020.9,-178.79 1024.4,-168.79 1017.4,-168.79"/>
</g>
<!-- RecaptchaComponent  -->
<g id="node21" class="node">
<title>RecaptchaComponent </title>
<polygon fill="#fb8072" stroke="black" points="886.63,-214.8 743.37,-214.8 743.37,-178.8 886.63,-178.8 886.63,-214.8"/>
<text text-anchor="middle" x="815" y="-192.6" font-family="Times,serif" font-size="14.00">RecaptchaComponent </text>
</g>
<!-- SharedComponentsModule&#45;&gt;RecaptchaComponent  -->
<g id="edge20" class="edge">
<title>SharedComponentsModule&#45;&gt;RecaptchaComponent </title>
<path fill="none" stroke="black" stroke-dasharray="5,2" d="M982.2,-146.8C925.3,-146.8 860.71,-146.8 860.71,-146.8 860.71,-146.8 860.71,-168.75 860.71,-168.75"/>
<polygon fill="black" stroke="black" points="857.21,-168.75 860.71,-178.75 864.21,-168.75 857.21,-168.75"/>
</g>
<!-- SearchIconComponent  -->
<g id="node22" class="node">
<title>SearchIconComponent </title>
<polygon fill="#fb8072" stroke="black" points="725.8,-214.8 578.2,-214.8 578.2,-178.8 725.8,-178.8 725.8,-214.8"/>
<text text-anchor="middle" x="652" y="-192.6" font-family="Times,serif" font-size="14.00">SearchIconComponent </text>
</g>
<!-- SharedComponentsModule&#45;&gt;SearchIconComponent  -->
<g id="edge21" class="edge">
<title>SharedComponentsModule&#45;&gt;SearchIconComponent </title>
<path fill="none" stroke="black" stroke-dasharray="5,2" d="M982.38,-142.8C865.87,-142.8 670.29,-142.8 670.29,-142.8 670.29,-142.8 670.29,-168.52 670.29,-168.52"/>
<polygon fill="black" stroke="black" points="666.79,-168.52 670.29,-178.52 673.79,-168.52 666.79,-168.52"/>
</g>
<!-- TaxEnumerationCardComponent  -->
<g id="node23" class="node">
<title>TaxEnumerationCardComponent </title>
<polygon fill="#fb8072" stroke="black" points="560.12,-214.8 353.88,-214.8 353.88,-178.8 560.12,-178.8 560.12,-214.8"/>
<text text-anchor="middle" x="457" y="-192.6" font-family="Times,serif" font-size="14.00">TaxEnumerationCardComponent </text>
</g>
<!-- SharedComponentsModule&#45;&gt;TaxEnumerationCardComponent  -->
<g id="edge22" class="edge">
<title>SharedComponentsModule&#45;&gt;TaxEnumerationCardComponent </title>
<path fill="none" stroke="black" stroke-dasharray="5,2" d="M982.25,-139.8C824.34,-139.8 500.92,-139.8 500.92,-139.8 500.92,-139.8 500.92,-168.76 500.92,-168.76"/>
<polygon fill="black" stroke="black" points="497.42,-168.76 500.92,-178.76 504.42,-168.76 497.42,-168.76"/>
</g>
<!-- TestPaymentComponent  -->
<g id="node24" class="node">
<title>TestPaymentComponent </title>
<polygon fill="#fb8072" stroke="black" points="335.93,-214.8 178.07,-214.8 178.07,-178.8 335.93,-178.8 335.93,-214.8"/>
<text text-anchor="middle" x="257" y="-192.6" font-family="Times,serif" font-size="14.00">TestPaymentComponent </text>
</g>
<!-- SharedComponentsModule&#45;&gt;TestPaymentComponent  -->
<g id="edge23" class="edge">
<title>SharedComponentsModule&#45;&gt;TestPaymentComponent </title>
<path fill="none" stroke="black" stroke-dasharray="5,2" d="M982.22,-135.8C787.49,-135.8 324.82,-135.8 324.82,-135.8 324.82,-135.8 324.82,-168.5 324.82,-168.5"/>
<polygon fill="black" stroke="black" points="321.32,-168.5 324.82,-178.5 328.32,-168.5 321.32,-168.5"/>
</g>
<!-- LayoutsModule -->
<g id="node12" class="node">
<title>LayoutsModule</title>
<polygon fill="#8dd3c7" stroke="black" points="418.16,-84.8 415.16,-88.8 394.16,-88.8 391.16,-84.8 313.84,-84.8 313.84,-48.8 418.16,-48.8 418.16,-84.8"/>
<text text-anchor="middle" x="366" y="-62.6" font-family="Times,serif" font-size="14.00">LayoutsModule</text>
</g>
<!-- LayoutsModule&#45;&gt;SharedComponentsModule -->
<g id="edge11" class="edge">
<title>LayoutsModule&#45;&gt;SharedComponentsModule</title>
<path fill="none" stroke="black" d="M386.13,-84.83C386.13,-101.86 386.13,-124.8 386.13,-124.8 386.13,-124.8 972.14,-124.8 972.14,-124.8"/>
<polygon fill="black" stroke="black" points="972.14,-128.3 982.14,-124.8 972.14,-121.3 972.14,-128.3"/>
</g>
<!-- SearchModule -->
<g id="node13" class="node">
<title>SearchModule</title>
<polygon fill="#8dd3c7" stroke="black" points="295.64,-84.8 292.64,-88.8 271.64,-88.8 268.64,-84.8 198.36,-84.8 198.36,-48.8 295.64,-48.8 295.64,-84.8"/>
<text text-anchor="middle" x="247" y="-62.6" font-family="Times,serif" font-size="14.00">SearchModule</text>
</g>
<!-- SearchModule&#45;&gt;SharedComponentsModule -->
<g id="edge12" class="edge">
<title>SearchModule&#45;&gt;SharedComponentsModule</title>
<path fill="none" stroke="black" d="M247,-85.07C247,-103.36 247,-128.8 247,-128.8 247,-128.8 972.33,-128.8 972.33,-128.8"/>
<polygon fill="black" stroke="black" points="972.33,-132.3 982.33,-128.8 972.33,-125.3 972.33,-132.3"/>
</g>
<!-- SharedDirectivesModule -->
<g id="node14" class="node">
<title>SharedDirectivesModule</title>
<polygon fill="#8dd3c7" stroke="black" points="179.96,-84.8 176.96,-88.8 155.96,-88.8 152.96,-84.8 24.04,-84.8 24.04,-48.8 179.96,-48.8 179.96,-84.8"/>
<text text-anchor="middle" x="102" y="-62.6" font-family="Times,serif" font-size="14.00">SharedDirectivesModule</text>
</g>
<!-- SharedDirectivesModule&#45;&gt;SharedComponentsModule -->
<g id="edge13" class="edge">
<title>SharedDirectivesModule&#45;&gt;SharedComponentsModule</title>
<path fill="none" stroke="black" d="M101.03,-84.91C101.03,-104.14 101.03,-131.8 101.03,-131.8 101.03,-131.8 972.12,-131.8 972.12,-131.8"/>
<polygon fill="black" stroke="black" points="972.12,-135.3 982.12,-131.8 972.12,-128.3 972.12,-135.3"/>
</g>
</g>
</svg>
