<?xml version="1.0" encoding="UTF-8" standalone="no"?>
<!DOCTYPE svg PUBLIC "-//W3C//DTD SVG 1.1//EN"
 "http://www.w3.org/Graphics/SVG/1.1/DTD/svg11.dtd">
<!-- Generated by graphviz version 5.0.0 (20220707.1540)
 -->
<!-- Title: dependencies Pages: 1 -->
<svg width="4802pt" height="247pt"
 viewBox="0.00 0.00 4802.00 246.80" xmlns="http://www.w3.org/2000/svg" xmlns:xlink="http://www.w3.org/1999/xlink">
<g id="graph0" class="graph" transform="scale(1 1) rotate(0) translate(4 242.8)">
<title>dependencies</title>
<polygon fill="white" stroke="transparent" points="-4,4 -4,-242.8 4798,-242.8 4798,4 -4,4"/>
<text text-anchor="middle" x="2397" y="-8.2" font-family="sans-serif" font-size="14.00">dependencies</text>
<g id="clust1" class="cluster">
<title>cluster_AssessmentModule</title>
<polygon fill="none" stroke="black" stroke-dasharray="1,5" points="8,-32.8 8,-230.8 4786,-230.8 4786,-32.8 8,-32.8"/>
</g>
<g id="clust2" class="cluster">
<title>cluster_AssessmentModule_declarations</title>
<polygon fill="none" stroke="black" points="210,-40.8 210,-92.8 4778,-92.8 4778,-40.8 210,-40.8"/>
</g>
<g id="clust26" class="cluster">
<title>cluster_AssessmentModule_exports</title>
<polygon fill="none" stroke="black" points="2605,-170.8 2605,-222.8 2727,-222.8 2727,-170.8 2605,-170.8"/>
</g>
<g id="clust25" class="cluster">
<title>cluster_AssessmentModule_imports</title>
<polygon fill="none" stroke="black" points="16,-40.8 16,-92.8 202,-92.8 202,-40.8 16,-40.8"/>
</g>
<!-- AssessmentComponent -->
<g id="node1" class="node">
<title>AssessmentComponent</title>
<polygon fill="#ffffb3" stroke="black" points="4769.94,-84.8 4622.06,-84.8 4622.06,-48.8 4769.94,-48.8 4769.94,-84.8"/>
<text text-anchor="middle" x="4696" y="-62.6" font-family="Times,serif" font-size="14.00">AssessmentComponent</text>
</g>
<!-- AssessmentModule -->
<g id="node23" class="node">
<title>AssessmentModule</title>
<polygon fill="#8dd3c7" stroke="black" points="2728.66,-149.8 2725.66,-153.8 2704.66,-153.8 2701.66,-149.8 2603.34,-149.8 2603.34,-113.8 2728.66,-113.8 2728.66,-149.8"/>
<text text-anchor="middle" x="2666" y="-127.6" font-family="Times,serif" font-size="14.00">AssessmentModule</text>
</g>
<!-- AssessmentComponent&#45;&gt;AssessmentModule -->
<g id="edge1" class="edge">
<title>AssessmentComponent&#45;&gt;AssessmentModule</title>
<path fill="none" stroke="black" d="M4696,-84.95C4696,-108.56 4696,-146.8 4696,-146.8 4696,-146.8 2738.7,-146.8 2738.7,-146.8"/>
<polygon fill="black" stroke="black" points="2738.7,-143.3 2728.7,-146.8 2738.7,-150.3 2738.7,-143.3"/>
</g>
<!-- BulkDemandNoticeComponent -->
<g id="node2" class="node">
<title>BulkDemandNoticeComponent</title>
<polygon fill="#ffffb3" stroke="black" points="4604.8,-84.8 4411.2,-84.8 4411.2,-48.8 4604.8,-48.8 4604.8,-84.8"/>
<text text-anchor="middle" x="4508" y="-62.6" font-family="Times,serif" font-size="14.00">BulkDemandNoticeComponent</text>
</g>
<!-- BulkDemandNoticeComponent&#45;&gt;AssessmentModule -->
<g id="edge2" class="edge">
<title>BulkDemandNoticeComponent&#45;&gt;AssessmentModule</title>
<path fill="none" stroke="black" d="M4508,-85.05C4508,-107.82 4508,-143.8 4508,-143.8 4508,-143.8 2738.87,-143.8 2738.87,-143.8"/>
<polygon fill="black" stroke="black" points="2738.87,-140.3 2728.87,-143.8 2738.87,-147.3 2738.87,-140.3"/>
</g>
<!-- ConsumptionTaxComponent -->
<g id="node3" class="node">
<title>ConsumptionTaxComponent</title>
<polygon fill="#ffffb3" stroke="black" points="4393.05,-84.8 4214.95,-84.8 4214.95,-48.8 4393.05,-48.8 4393.05,-84.8"/>
<text text-anchor="middle" x="4304" y="-62.6" font-family="Times,serif" font-size="14.00">ConsumptionTaxComponent</text>
</g>
<!-- ConsumptionTaxComponent&#45;&gt;AssessmentModule -->
<g id="edge3" class="edge">
<title>ConsumptionTaxComponent&#45;&gt;AssessmentModule</title>
<path fill="none" stroke="black" d="M4304,-85.09C4304,-107.01 4304,-140.8 4304,-140.8 4304,-140.8 2738.71,-140.8 2738.71,-140.8"/>
<polygon fill="black" stroke="black" points="2738.71,-137.3 2728.71,-140.8 2738.71,-144.3 2738.71,-137.3"/>
</g>
<!-- DemandNoticeComponent -->
<g id="node4" class="node">
<title>DemandNoticeComponent</title>
<polygon fill="#ffffb3" stroke="black" points="4197.08,-84.8 4030.92,-84.8 4030.92,-48.8 4197.08,-48.8 4197.08,-84.8"/>
<text text-anchor="middle" x="4114" y="-62.6" font-family="Times,serif" font-size="14.00">DemandNoticeComponent</text>
</g>
<!-- DemandNoticeComponent&#45;&gt;AssessmentModule -->
<g id="edge4" class="edge">
<title>DemandNoticeComponent&#45;&gt;AssessmentModule</title>
<path fill="none" stroke="black" d="M4114,-85.08C4114,-106.12 4114,-137.8 4114,-137.8 4114,-137.8 2738.68,-137.8 2738.68,-137.8"/>
<polygon fill="black" stroke="black" points="2738.68,-134.3 2728.68,-137.8 2738.68,-141.3 2738.68,-134.3"/>
</g>
<!-- EntertainmentTaxComponent -->
<g id="node5" class="node">
<title>EntertainmentTaxComponent</title>
<polygon fill="#ffffb3" stroke="black" points="4013.4,-84.8 3830.6,-84.8 3830.6,-48.8 4013.4,-48.8 4013.4,-84.8"/>
<text text-anchor="middle" x="3922" y="-62.6" font-family="Times,serif" font-size="14.00">EntertainmentTaxComponent</text>
</g>
<!-- EntertainmentTaxComponent&#45;&gt;AssessmentModule -->
<g id="edge5" class="edge">
<title>EntertainmentTaxComponent&#45;&gt;AssessmentModule</title>
<path fill="none" stroke="black" d="M3922,-85.02C3922,-105.17 3922,-134.8 3922,-134.8 3922,-134.8 2738.71,-134.8 2738.71,-134.8"/>
<polygon fill="black" stroke="black" points="2738.71,-131.3 2728.71,-134.8 2738.71,-138.3 2738.71,-131.3"/>
</g>
<!-- LgcRevenueComponent -->
<g id="node6" class="node">
<title>LgcRevenueComponent</title>
<polygon fill="#ffffb3" stroke="black" points="3813.08,-84.8 3660.92,-84.8 3660.92,-48.8 3813.08,-48.8 3813.08,-84.8"/>
<text text-anchor="middle" x="3737" y="-62.6" font-family="Times,serif" font-size="14.00">LgcRevenueComponent</text>
</g>
<!-- LgcRevenueComponent&#45;&gt;AssessmentModule -->
<g id="edge6" class="edge">
<title>LgcRevenueComponent&#45;&gt;AssessmentModule</title>
<path fill="none" stroke="black" d="M3737,-84.91C3737,-104.14 3737,-131.8 3737,-131.8 3737,-131.8 2739,-131.8 2739,-131.8"/>
<polygon fill="black" stroke="black" points="2739,-128.3 2729,-131.8 2739,-135.3 2739,-128.3"/>
</g>
<!-- ModifyAssessmentComponent -->
<g id="node7" class="node">
<title>ModifyAssessmentComponent</title>
<polygon fill="#ffffb3" stroke="black" points="3642.94,-84.8 3453.06,-84.8 3453.06,-48.8 3642.94,-48.8 3642.94,-84.8"/>
<text text-anchor="middle" x="3548" y="-62.6" font-family="Times,serif" font-size="14.00">ModifyAssessmentComponent</text>
</g>
<!-- ModifyAssessmentComponent&#45;&gt;AssessmentModule -->
<g id="edge7" class="edge">
<title>ModifyAssessmentComponent&#45;&gt;AssessmentModule</title>
<path fill="none" stroke="black" d="M3548,-85.07C3548,-103.36 3548,-128.8 3548,-128.8 3548,-128.8 2738.72,-128.8 2738.72,-128.8"/>
<polygon fill="black" stroke="black" points="2738.72,-125.3 2728.72,-128.8 2738.72,-132.3 2738.72,-125.3"/>
</g>
<!-- MotorLicenseAuthority -->
<g id="node8" class="node">
<title>MotorLicenseAuthority</title>
<polygon fill="#ffffb3" stroke="black" points="3435.47,-84.8 3286.53,-84.8 3286.53,-48.8 3435.47,-48.8 3435.47,-84.8"/>
<text text-anchor="middle" x="3361" y="-62.6" font-family="Times,serif" font-size="14.00">MotorLicenseAuthority</text>
</g>
<!-- MotorLicenseAuthority&#45;&gt;AssessmentModule -->
<g id="edge8" class="edge">
<title>MotorLicenseAuthority&#45;&gt;AssessmentModule</title>
<path fill="none" stroke="black" d="M3361,-84.82C3361,-102.17 3361,-125.8 3361,-125.8 3361,-125.8 2738.9,-125.8 2738.9,-125.8"/>
<polygon fill="black" stroke="black" points="2738.9,-122.3 2728.9,-125.8 2738.9,-129.3 2738.9,-122.3"/>
</g>
<!-- PayeComponent -->
<g id="node9" class="node">
<title>PayeComponent</title>
<polygon fill="#ffffb3" stroke="black" points="3268.05,-84.8 3159.95,-84.8 3159.95,-48.8 3268.05,-48.8 3268.05,-84.8"/>
<text text-anchor="middle" x="3214" y="-62.6" font-family="Times,serif" font-size="14.00">PayeComponent</text>
</g>
<!-- PayeComponent&#45;&gt;AssessmentModule -->
<g id="edge9" class="edge">
<title>PayeComponent&#45;&gt;AssessmentModule</title>
<path fill="none" stroke="black" d="M3214,-84.83C3214,-101.2 3214,-122.8 3214,-122.8 3214,-122.8 2738.86,-122.8 2738.86,-122.8"/>
<polygon fill="black" stroke="black" points="2738.86,-119.3 2728.86,-122.8 2738.86,-126.3 2738.86,-119.3"/>
</g>
<!-- Paye_calculatorComponent -->
<g id="node10" class="node">
<title>Paye_calculatorComponent</title>
<polygon fill="#ffffb3" stroke="black" points="3141.23,-84.8 2970.77,-84.8 2970.77,-48.8 3141.23,-48.8 3141.23,-84.8"/>
<text text-anchor="middle" x="3056" y="-62.6" font-family="Times,serif" font-size="14.00">Paye_calculatorComponent</text>
</g>
<!-- Paye_calculatorComponent&#45;&gt;AssessmentModule -->
<g id="edge10" class="edge">
<title>Paye_calculatorComponent&#45;&gt;AssessmentModule</title>
<path fill="none" stroke="black" d="M3056,-85.04C3056,-100.37 3056,-119.8 3056,-119.8 3056,-119.8 2739.09,-119.8 2739.09,-119.8"/>
<polygon fill="black" stroke="black" points="2739.09,-116.3 2729.09,-119.8 2739.09,-123.3 2739.09,-116.3"/>
</g>
<!-- PersonalIncomeTaxComponent -->
<g id="node11" class="node">
<title>PersonalIncomeTaxComponent</title>
<polygon fill="#ffffb3" stroke="black" points="2952.79,-84.8 2759.21,-84.8 2759.21,-48.8 2952.79,-48.8 2952.79,-84.8"/>
<text text-anchor="middle" x="2856" y="-62.6" font-family="Times,serif" font-size="14.00">PersonalIncomeTaxComponent</text>
</g>
<!-- PersonalIncomeTaxComponent&#45;&gt;AssessmentModule -->
<g id="edge11" class="edge">
<title>PersonalIncomeTaxComponent&#45;&gt;AssessmentModule</title>
<path fill="none" stroke="black" d="M2856,-84.85C2856,-99.17 2856,-116.8 2856,-116.8 2856,-116.8 2738.74,-116.8 2738.74,-116.8"/>
<polygon fill="black" stroke="black" points="2738.74,-113.3 2728.74,-116.8 2738.74,-120.3 2738.74,-113.3"/>
</g>
<!-- PresumptiveComponent -->
<g id="node12" class="node">
<title>PresumptiveComponent</title>
<polygon fill="#ffffb3" stroke="black" points="2741.82,-84.8 2590.18,-84.8 2590.18,-48.8 2741.82,-48.8 2741.82,-84.8"/>
<text text-anchor="middle" x="2666" y="-62.6" font-family="Times,serif" font-size="14.00">PresumptiveComponent</text>
</g>
<!-- PresumptiveComponent&#45;&gt;AssessmentModule -->
<g id="edge12" class="edge">
<title>PresumptiveComponent&#45;&gt;AssessmentModule</title>
<path fill="none" stroke="black" d="M2666,-84.91C2666,-84.91 2666,-103.79 2666,-103.79"/>
<polygon fill="black" stroke="black" points="2662.5,-103.79 2666,-113.79 2669.5,-103.79 2662.5,-103.79"/>
</g>
<!-- PresumptiveTaxComponent -->
<g id="node13" class="node">
<title>PresumptiveTaxComponent</title>
<polygon fill="#ffffb3" stroke="black" points="2572.59,-84.8 2399.41,-84.8 2399.41,-48.8 2572.59,-48.8 2572.59,-84.8"/>
<text text-anchor="middle" x="2486" y="-62.6" font-family="Times,serif" font-size="14.00">PresumptiveTaxComponent</text>
</g>
<!-- PresumptiveTaxComponent&#45;&gt;AssessmentModule -->
<g id="edge13" class="edge">
<title>PresumptiveTaxComponent&#45;&gt;AssessmentModule</title>
<path fill="none" stroke="black" d="M2486,-84.85C2486,-99.17 2486,-116.8 2486,-116.8 2486,-116.8 2593.3,-116.8 2593.3,-116.8"/>
<polygon fill="black" stroke="black" points="2593.3,-120.3 2603.3,-116.8 2593.3,-113.3 2593.3,-120.3"/>
</g>
<!-- PresumtiveTaxComponent -->
<g id="node14" class="node">
<title>PresumtiveTaxComponent</title>
<polygon fill="#ffffb3" stroke="black" points="2381.09,-84.8 2214.91,-84.8 2214.91,-48.8 2381.09,-48.8 2381.09,-84.8"/>
<text text-anchor="middle" x="2298" y="-62.6" font-family="Times,serif" font-size="14.00">PresumtiveTaxComponent</text>
</g>
<!-- PresumtiveTaxComponent&#45;&gt;AssessmentModule -->
<g id="edge14" class="edge">
<title>PresumtiveTaxComponent&#45;&gt;AssessmentModule</title>
<path fill="none" stroke="black" d="M2298,-85.04C2298,-100.37 2298,-119.8 2298,-119.8 2298,-119.8 2593.16,-119.8 2593.16,-119.8"/>
<polygon fill="black" stroke="black" points="2593.16,-123.3 2603.16,-119.8 2593.16,-116.3 2593.16,-123.3"/>
</g>
<!-- PreviousAssessmentComponent -->
<g id="node15" class="node">
<title>PreviousAssessmentComponent</title>
<polygon fill="#ffffb3" stroke="black" points="2197.44,-84.8 2000.56,-84.8 2000.56,-48.8 2197.44,-48.8 2197.44,-84.8"/>
<text text-anchor="middle" x="2099" y="-62.6" font-family="Times,serif" font-size="14.00">PreviousAssessmentComponent</text>
</g>
<!-- PreviousAssessmentComponent&#45;&gt;AssessmentModule -->
<g id="edge15" class="edge">
<title>PreviousAssessmentComponent&#45;&gt;AssessmentModule</title>
<path fill="none" stroke="black" d="M2099,-84.83C2099,-101.2 2099,-122.8 2099,-122.8 2099,-122.8 2593.15,-122.8 2593.15,-122.8"/>
<polygon fill="black" stroke="black" points="2593.15,-126.3 2603.15,-122.8 2593.15,-119.3 2593.15,-126.3"/>
</g>
<!-- PreviousBulkAssessmentComponent -->
<g id="node16" class="node">
<title>PreviousBulkAssessmentComponent</title>
<polygon fill="#ffffb3" stroke="black" points="1982.67,-84.8 1759.33,-84.8 1759.33,-48.8 1982.67,-48.8 1982.67,-84.8"/>
<text text-anchor="middle" x="1871" y="-62.6" font-family="Times,serif" font-size="14.00">PreviousBulkAssessmentComponent</text>
</g>
<!-- PreviousBulkAssessmentComponent&#45;&gt;AssessmentModule -->
<g id="edge16" class="edge">
<title>PreviousBulkAssessmentComponent&#45;&gt;AssessmentModule</title>
<path fill="none" stroke="black" d="M1871,-84.82C1871,-102.17 1871,-125.8 1871,-125.8 1871,-125.8 2593.29,-125.8 2593.29,-125.8"/>
<polygon fill="black" stroke="black" points="2593.29,-129.3 2603.29,-125.8 2593.29,-122.3 2593.29,-129.3"/>
</g>
<!-- PreviousLGCRevenueComponent -->
<g id="node17" class="node">
<title>PreviousLGCRevenueComponent</title>
<polygon fill="#ffffb3" stroke="black" points="1741.81,-84.8 1534.19,-84.8 1534.19,-48.8 1741.81,-48.8 1741.81,-84.8"/>
<text text-anchor="middle" x="1638" y="-62.6" font-family="Times,serif" font-size="14.00">PreviousLGCRevenueComponent</text>
</g>
<!-- PreviousLGCRevenueComponent&#45;&gt;AssessmentModule -->
<g id="edge17" class="edge">
<title>PreviousLGCRevenueComponent&#45;&gt;AssessmentModule</title>
<path fill="none" stroke="black" d="M1638,-85.07C1638,-103.36 1638,-128.8 1638,-128.8 1638,-128.8 2593.24,-128.8 2593.24,-128.8"/>
<polygon fill="black" stroke="black" points="2593.24,-132.3 2603.24,-128.8 2593.24,-125.3 2593.24,-132.3"/>
</g>
<!-- PreviousPresumptiveTaxAssessmentComponent -->
<g id="node18" class="node">
<title>PreviousPresumptiveTaxAssessmentComponent</title>
<polygon fill="#ffffb3" stroke="black" points="1516.2,-84.8 1227.8,-84.8 1227.8,-48.8 1516.2,-48.8 1516.2,-84.8"/>
<text text-anchor="middle" x="1372" y="-62.6" font-family="Times,serif" font-size="14.00">PreviousPresumptiveTaxAssessmentComponent</text>
</g>
<!-- PreviousPresumptiveTaxAssessmentComponent&#45;&gt;AssessmentModule -->
<g id="edge18" class="edge">
<title>PreviousPresumptiveTaxAssessmentComponent&#45;&gt;AssessmentModule</title>
<path fill="none" stroke="black" d="M1372,-84.91C1372,-104.14 1372,-131.8 1372,-131.8 1372,-131.8 2593.15,-131.8 2593.15,-131.8"/>
<polygon fill="black" stroke="black" points="2593.15,-135.3 2603.15,-131.8 2593.15,-128.3 2593.15,-135.3"/>
</g>
<!-- RoadTaxComponent -->
<g id="node19" class="node">
<title>RoadTaxComponent</title>
<polygon fill="#ffffb3" stroke="black" points="1210.15,-84.8 1077.85,-84.8 1077.85,-48.8 1210.15,-48.8 1210.15,-84.8"/>
<text text-anchor="middle" x="1144" y="-62.6" font-family="Times,serif" font-size="14.00">RoadTaxComponent</text>
</g>
<!-- RoadTaxComponent&#45;&gt;AssessmentModule -->
<g id="edge19" class="edge">
<title>RoadTaxComponent&#45;&gt;AssessmentModule</title>
<path fill="none" stroke="black" d="M1144,-85.02C1144,-105.17 1144,-134.8 1144,-134.8 1144,-134.8 2593.02,-134.8 2593.02,-134.8"/>
<polygon fill="black" stroke="black" points="2593.02,-138.3 2603.02,-134.8 2593.02,-131.3 2593.02,-138.3"/>
</g>
<!-- ViewIndividualBulkAssessmentComponent -->
<g id="node20" class="node">
<title>ViewIndividualBulkAssessmentComponent</title>
<polygon fill="#ffffb3" stroke="black" points="1059.04,-84.8 796.96,-84.8 796.96,-48.8 1059.04,-48.8 1059.04,-84.8"/>
<text text-anchor="middle" x="928" y="-62.6" font-family="Times,serif" font-size="14.00">ViewIndividualBulkAssessmentComponent</text>
</g>
<!-- ViewIndividualBulkAssessmentComponent&#45;&gt;AssessmentModule -->
<g id="edge20" class="edge">
<title>ViewIndividualBulkAssessmentComponent&#45;&gt;AssessmentModule</title>
<path fill="none" stroke="black" d="M928,-85.08C928,-106.12 928,-137.8 928,-137.8 928,-137.8 2593.12,-137.8 2593.12,-137.8"/>
<polygon fill="black" stroke="black" points="2593.12,-141.3 2603.12,-137.8 2593.12,-134.3 2593.12,-141.3"/>
</g>
<!-- ViewIndividualPresumptiveTaxAssessmentComponent -->
<g id="node21" class="node">
<title>ViewIndividualPresumptiveTaxAssessmentComponent</title>
<polygon fill="#ffffb3" stroke="black" points="778.57,-84.8 451.43,-84.8 451.43,-48.8 778.57,-48.8 778.57,-84.8"/>
<text text-anchor="middle" x="615" y="-62.6" font-family="Times,serif" font-size="14.00">ViewIndividualPresumptiveTaxAssessmentComponent</text>
</g>
<!-- ViewIndividualPresumptiveTaxAssessmentComponent&#45;&gt;AssessmentModule -->
<g id="edge21" class="edge">
<title>ViewIndividualPresumptiveTaxAssessmentComponent&#45;&gt;AssessmentModule</title>
<path fill="none" stroke="black" d="M615,-85.09C615,-107.01 615,-140.8 615,-140.8 615,-140.8 2593.22,-140.8 2593.22,-140.8"/>
<polygon fill="black" stroke="black" points="2593.22,-144.3 2603.22,-140.8 2593.22,-137.3 2593.22,-144.3"/>
</g>
<!-- ViewRegisteredVehicleComponent -->
<g id="node22" class="node">
<title>ViewRegisteredVehicleComponent</title>
<polygon fill="#ffffb3" stroke="black" points="433.56,-84.8 218.44,-84.8 218.44,-48.8 433.56,-48.8 433.56,-84.8"/>
<text text-anchor="middle" x="326" y="-62.6" font-family="Times,serif" font-size="14.00">ViewRegisteredVehicleComponent</text>
</g>
<!-- ViewRegisteredVehicleComponent&#45;&gt;AssessmentModule -->
<g id="edge22" class="edge">
<title>ViewRegisteredVehicleComponent&#45;&gt;AssessmentModule</title>
<path fill="none" stroke="black" d="M326,-85.05C326,-107.82 326,-143.8 326,-143.8 326,-143.8 2593.11,-143.8 2593.11,-143.8"/>
<polygon fill="black" stroke="black" points="2593.11,-147.3 2603.11,-143.8 2593.11,-140.3 2593.11,-147.3"/>
</g>
<!-- ToNumberPipe  -->
<g id="node25" class="node">
<title>ToNumberPipe </title>
<polygon fill="#fb8072" stroke="black" points="2718.82,-214.8 2613.18,-214.8 2613.18,-178.8 2718.82,-178.8 2718.82,-214.8"/>
<text text-anchor="middle" x="2666" y="-192.6" font-family="Times,serif" font-size="14.00">ToNumberPipe </text>
</g>
<!-- AssessmentModule&#45;&gt;ToNumberPipe  -->
<g id="edge24" class="edge">
<title>AssessmentModule&#45;&gt;ToNumberPipe </title>
<path fill="none" stroke="black" stroke-dasharray="5,2" d="M2666,-149.91C2666,-149.91 2666,-168.79 2666,-168.79"/>
<polygon fill="black" stroke="black" points="2662.5,-168.79 2666,-178.79 2669.5,-168.79 2662.5,-168.79"/>
</g>
<!-- AssessmentRoutingModule -->
<g id="node24" class="node">
<title>AssessmentRoutingModule</title>
<polygon fill="#8dd3c7" stroke="black" points="194.28,-84.8 191.28,-88.8 170.28,-88.8 167.28,-84.8 23.72,-84.8 23.72,-48.8 194.28,-48.8 194.28,-84.8"/>
<text text-anchor="middle" x="109" y="-62.6" font-family="Times,serif" font-size="14.00">AssessmentRoutingModule</text>
</g>
<!-- AssessmentRoutingModule&#45;&gt;AssessmentModule -->
<g id="edge23" class="edge">
<title>AssessmentRoutingModule&#45;&gt;AssessmentModule</title>
<path fill="none" stroke="black" d="M109,-84.95C109,-108.56 109,-146.8 109,-146.8 109,-146.8 2593.11,-146.8 2593.11,-146.8"/>
<polygon fill="black" stroke="black" points="2593.11,-150.3 2603.11,-146.8 2593.11,-143.3 2593.11,-150.3"/>
</g>
</g>
</svg>
