<?xml version="1.0" encoding="UTF-8" standalone="no"?>
<!DOCTYPE svg PUBLIC "-//W3C//DTD SVG 1.1//EN"
 "http://www.w3.org/Graphics/SVG/1.1/DTD/svg11.dtd">
<!-- Generated by graphviz version 5.0.0 (20220707.1540)
 -->
<!-- Title: dependencies Pages: 1 -->
<svg width="2350pt" height="174pt"
 viewBox="0.00 0.00 2350.00 173.80" xmlns="http://www.w3.org/2000/svg" xmlns:xlink="http://www.w3.org/1999/xlink">
<g id="graph0" class="graph" transform="scale(1 1) rotate(0) translate(4 169.8)">
<title>dependencies</title>
<polygon fill="white" stroke="transparent" points="-4,4 -4,-169.8 2346,-169.8 2346,4 -4,4"/>
<text text-anchor="middle" x="1171" y="-8.2" font-family="sans-serif" font-size="14.00">dependencies</text>
<g id="clust1" class="cluster">
<title>cluster_TaxpayerModule</title>
<polygon fill="none" stroke="black" stroke-dasharray="1,5" points="8,-32.8 8,-157.8 2334,-157.8 2334,-32.8 8,-32.8"/>
</g>
<g id="clust15" class="cluster">
<title>cluster_TaxpayerModule_imports</title>
<polygon fill="none" stroke="black" points="2152,-40.8 2152,-92.8 2326,-92.8 2326,-40.8 2152,-40.8"/>
</g>
<g id="clust2" class="cluster">
<title>cluster_TaxpayerModule_declarations</title>
<polygon fill="none" stroke="black" points="16,-40.8 16,-92.8 2144,-92.8 2144,-40.8 16,-40.8"/>
</g>
<!-- ChangeUserPassword -->
<g id="node1" class="node">
<title>ChangeUserPassword</title>
<polygon fill="#ffffb3" stroke="black" points="2136.37,-84.8 1997.63,-84.8 1997.63,-48.8 2136.37,-48.8 2136.37,-84.8"/>
<text text-anchor="middle" x="2067" y="-62.6" font-family="Times,serif" font-size="14.00">ChangeUserPassword</text>
</g>
<!-- TaxpayerModule -->
<g id="node13" class="node">
<title>TaxpayerModule</title>
<polygon fill="#8dd3c7" stroke="black" points="1230.41,-149.8 1227.41,-153.8 1206.41,-153.8 1203.41,-149.8 1117.59,-149.8 1117.59,-113.8 1230.41,-113.8 1230.41,-149.8"/>
<text text-anchor="middle" x="1174" y="-127.6" font-family="Times,serif" font-size="14.00">TaxpayerModule</text>
</g>
<!-- ChangeUserPassword&#45;&gt;TaxpayerModule -->
<g id="edge1" class="edge">
<title>ChangeUserPassword&#45;&gt;TaxpayerModule</title>
<path fill="none" stroke="black" d="M2067,-85.08C2067,-106.12 2067,-137.8 2067,-137.8 2067,-137.8 1240.54,-137.8 1240.54,-137.8"/>
<polygon fill="black" stroke="black" points="1240.54,-134.3 1230.54,-137.8 1240.54,-141.3 1240.54,-134.3"/>
</g>
<!-- CompleteProfileComponent -->
<g id="node2" class="node">
<title>CompleteProfileComponent</title>
<polygon fill="#ffffb3" stroke="black" points="1979.87,-84.8 1806.13,-84.8 1806.13,-48.8 1979.87,-48.8 1979.87,-84.8"/>
<text text-anchor="middle" x="1893" y="-62.6" font-family="Times,serif" font-size="14.00">CompleteProfileComponent</text>
</g>
<!-- CompleteProfileComponent&#45;&gt;TaxpayerModule -->
<g id="edge2" class="edge">
<title>CompleteProfileComponent&#45;&gt;TaxpayerModule</title>
<path fill="none" stroke="black" d="M1893,-84.91C1893,-104.14 1893,-131.8 1893,-131.8 1893,-131.8 1240.42,-131.8 1240.42,-131.8"/>
<polygon fill="black" stroke="black" points="1240.42,-128.3 1230.42,-131.8 1240.42,-135.3 1240.42,-128.3"/>
</g>
<!-- DashboadDefaultComponent -->
<g id="node3" class="node">
<title>DashboadDefaultComponent</title>
<polygon fill="#ffffb3" stroke="black" points="1787.8,-84.8 1608.2,-84.8 1608.2,-48.8 1787.8,-48.8 1787.8,-84.8"/>
<text text-anchor="middle" x="1698" y="-62.6" font-family="Times,serif" font-size="14.00">DashboadDefaultComponent</text>
</g>
<!-- DashboadDefaultComponent&#45;&gt;TaxpayerModule -->
<g id="edge3" class="edge">
<title>DashboadDefaultComponent&#45;&gt;TaxpayerModule</title>
<path fill="none" stroke="black" d="M1698,-84.82C1698,-102.17 1698,-125.8 1698,-125.8 1698,-125.8 1240.58,-125.8 1240.58,-125.8"/>
<polygon fill="black" stroke="black" points="1240.58,-122.3 1230.58,-125.8 1240.58,-129.3 1240.58,-122.3"/>
</g>
<!-- MigrateCompanyComponent -->
<g id="node4" class="node">
<title>MigrateCompanyComponent</title>
<polygon fill="#ffffb3" stroke="black" points="1590.09,-84.8 1409.91,-84.8 1409.91,-48.8 1590.09,-48.8 1590.09,-84.8"/>
<text text-anchor="middle" x="1500" y="-62.6" font-family="Times,serif" font-size="14.00">MigrateCompanyComponent</text>
</g>
<!-- MigrateCompanyComponent&#45;&gt;TaxpayerModule -->
<g id="edge4" class="edge">
<title>MigrateCompanyComponent&#45;&gt;TaxpayerModule</title>
<path fill="none" stroke="black" d="M1500,-85.04C1500,-100.37 1500,-119.8 1500,-119.8 1500,-119.8 1240.41,-119.8 1240.41,-119.8"/>
<polygon fill="black" stroke="black" points="1240.41,-116.3 1230.41,-119.8 1240.41,-123.3 1240.41,-116.3"/>
</g>
<!-- MigrateUserComponent -->
<g id="node5" class="node">
<title>MigrateUserComponent</title>
<polygon fill="#ffffb3" stroke="black" points="1392.08,-84.8 1239.92,-84.8 1239.92,-48.8 1392.08,-48.8 1392.08,-84.8"/>
<text text-anchor="middle" x="1316" y="-62.6" font-family="Times,serif" font-size="14.00">MigrateUserComponent</text>
</g>
<!-- MigrateUserComponent&#45;&gt;TaxpayerModule -->
<g id="edge5" class="edge">
<title>MigrateUserComponent&#45;&gt;TaxpayerModule</title>
<path fill="none" stroke="black" d="M1239.62,-66.8C1231.39,-66.8 1225.94,-66.8 1225.94,-66.8 1225.94,-66.8 1225.94,-103.69 1225.94,-103.69"/>
<polygon fill="black" stroke="black" points="1222.44,-103.69 1225.94,-113.69 1229.44,-103.69 1222.44,-103.69"/>
</g>
<!-- PrintUserPDF -->
<g id="node6" class="node">
<title>PrintUserPDF</title>
<polygon fill="#ffffb3" stroke="black" points="1221.85,-84.8 1126.15,-84.8 1126.15,-48.8 1221.85,-48.8 1221.85,-84.8"/>
<text text-anchor="middle" x="1174" y="-62.6" font-family="Times,serif" font-size="14.00">PrintUserPDF</text>
</g>
<!-- PrintUserPDF&#45;&gt;TaxpayerModule -->
<g id="edge6" class="edge">
<title>PrintUserPDF&#45;&gt;TaxpayerModule</title>
<path fill="none" stroke="black" d="M1174,-84.91C1174,-84.91 1174,-103.79 1174,-103.79"/>
<polygon fill="black" stroke="black" points="1170.5,-103.79 1174,-113.79 1177.5,-103.79 1170.5,-103.79"/>
</g>
<!-- RegisterCompanyBulkComponent -->
<g id="node7" class="node">
<title>RegisterCompanyBulkComponent</title>
<polygon fill="#ffffb3" stroke="black" points="1107.66,-84.8 898.34,-84.8 898.34,-48.8 1107.66,-48.8 1107.66,-84.8"/>
<text text-anchor="middle" x="1003" y="-62.6" font-family="Times,serif" font-size="14.00">RegisterCompanyBulkComponent</text>
</g>
<!-- RegisterCompanyBulkComponent&#45;&gt;TaxpayerModule -->
<g id="edge7" class="edge">
<title>RegisterCompanyBulkComponent&#45;&gt;TaxpayerModule</title>
<path fill="none" stroke="black" d="M1107.94,-66.8C1116.57,-66.8 1122.06,-66.8 1122.06,-66.8 1122.06,-66.8 1122.06,-103.69 1122.06,-103.69"/>
<polygon fill="black" stroke="black" points="1118.56,-103.69 1122.06,-113.69 1125.56,-103.69 1118.56,-103.69"/>
</g>
<!-- RegisterCompanyComponent -->
<g id="node8" class="node">
<title>RegisterCompanyComponent</title>
<polygon fill="#ffffb3" stroke="black" points="880.43,-84.8 697.57,-84.8 697.57,-48.8 880.43,-48.8 880.43,-84.8"/>
<text text-anchor="middle" x="789" y="-62.6" font-family="Times,serif" font-size="14.00">RegisterCompanyComponent</text>
</g>
<!-- RegisterCompanyComponent&#45;&gt;TaxpayerModule -->
<g id="edge8" class="edge">
<title>RegisterCompanyComponent&#45;&gt;TaxpayerModule</title>
<path fill="none" stroke="black" d="M789,-85.04C789,-100.37 789,-119.8 789,-119.8 789,-119.8 1107.61,-119.8 1107.61,-119.8"/>
<polygon fill="black" stroke="black" points="1107.61,-123.3 1117.61,-119.8 1107.61,-116.3 1107.61,-123.3"/>
</g>
<!-- RegisterComponent -->
<g id="node9" class="node">
<title>RegisterComponent</title>
<polygon fill="#ffffb3" stroke="black" points="679.99,-84.8 552.01,-84.8 552.01,-48.8 679.99,-48.8 679.99,-84.8"/>
<text text-anchor="middle" x="616" y="-62.6" font-family="Times,serif" font-size="14.00">RegisterComponent</text>
</g>
<!-- RegisterComponent&#45;&gt;TaxpayerModule -->
<g id="edge9" class="edge">
<title>RegisterComponent&#45;&gt;TaxpayerModule</title>
<path fill="none" stroke="black" d="M616,-84.82C616,-102.17 616,-125.8 616,-125.8 616,-125.8 1107.68,-125.8 1107.68,-125.8"/>
<polygon fill="black" stroke="black" points="1107.68,-129.3 1117.68,-125.8 1107.68,-122.3 1107.68,-129.3"/>
</g>
<!-- RegisterUserBulkComponent -->
<g id="node10" class="node">
<title>RegisterUserBulkComponent</title>
<polygon fill="#ffffb3" stroke="black" points="533.65,-84.8 352.35,-84.8 352.35,-48.8 533.65,-48.8 533.65,-84.8"/>
<text text-anchor="middle" x="443" y="-62.6" font-family="Times,serif" font-size="14.00">RegisterUserBulkComponent</text>
</g>
<!-- RegisterUserBulkComponent&#45;&gt;TaxpayerModule -->
<g id="edge10" class="edge">
<title>RegisterUserBulkComponent&#45;&gt;TaxpayerModule</title>
<path fill="none" stroke="black" d="M443,-84.91C443,-104.14 443,-131.8 443,-131.8 443,-131.8 1107.55,-131.8 1107.55,-131.8"/>
<polygon fill="black" stroke="black" points="1107.55,-135.3 1117.55,-131.8 1107.55,-128.3 1107.55,-135.3"/>
</g>
<!-- RegisterVendorComponent -->
<g id="node11" class="node">
<title>RegisterVendorComponent</title>
<polygon fill="#ffffb3" stroke="black" points="333.97,-84.8 164.03,-84.8 164.03,-48.8 333.97,-48.8 333.97,-84.8"/>
<text text-anchor="middle" x="249" y="-62.6" font-family="Times,serif" font-size="14.00">RegisterVendorComponent</text>
</g>
<!-- RegisterVendorComponent&#45;&gt;TaxpayerModule -->
<g id="edge11" class="edge">
<title>RegisterVendorComponent&#45;&gt;TaxpayerModule</title>
<path fill="none" stroke="black" d="M249,-85.08C249,-106.12 249,-137.8 249,-137.8 249,-137.8 1107.53,-137.8 1107.53,-137.8"/>
<polygon fill="black" stroke="black" points="1107.53,-141.3 1117.53,-137.8 1107.53,-134.3 1107.53,-141.3"/>
</g>
<!-- UpdateComponent -->
<g id="node12" class="node">
<title>UpdateComponent</title>
<polygon fill="#ffffb3" stroke="black" points="145.76,-84.8 24.24,-84.8 24.24,-48.8 145.76,-48.8 145.76,-84.8"/>
<text text-anchor="middle" x="85" y="-62.6" font-family="Times,serif" font-size="14.00">UpdateComponent</text>
</g>
<!-- UpdateComponent&#45;&gt;TaxpayerModule -->
<g id="edge12" class="edge">
<title>UpdateComponent&#45;&gt;TaxpayerModule</title>
<path fill="none" stroke="black" d="M85,-84.89C85,-107.93 85,-144.8 85,-144.8 85,-144.8 1107.74,-144.8 1107.74,-144.8"/>
<polygon fill="black" stroke="black" points="1107.74,-148.3 1117.74,-144.8 1107.74,-141.3 1107.74,-148.3"/>
</g>
<!-- TaxpayerRoutingModule -->
<g id="node14" class="node">
<title>TaxpayerRoutingModule</title>
<polygon fill="#8dd3c7" stroke="black" points="2317.53,-84.8 2314.53,-88.8 2293.53,-88.8 2290.53,-84.8 2160.47,-84.8 2160.47,-48.8 2317.53,-48.8 2317.53,-84.8"/>
<text text-anchor="middle" x="2239" y="-62.6" font-family="Times,serif" font-size="14.00">TaxpayerRoutingModule</text>
</g>
<!-- TaxpayerRoutingModule&#45;&gt;TaxpayerModule -->
<g id="edge13" class="edge">
<title>TaxpayerRoutingModule&#45;&gt;TaxpayerModule</title>
<path fill="none" stroke="black" d="M2239,-84.89C2239,-107.93 2239,-144.8 2239,-144.8 2239,-144.8 1240.51,-144.8 1240.51,-144.8"/>
<polygon fill="black" stroke="black" points="1240.51,-141.3 1230.51,-144.8 1240.51,-148.3 1240.51,-141.3"/>
</g>
</g>
</svg>
