<?xml version="1.0" encoding="UTF-8" standalone="no"?>
<!DOCTYPE svg PUBLIC "-//W3C//DTD SVG 1.1//EN"
 "http://www.w3.org/Graphics/SVG/1.1/DTD/svg11.dtd">
<!-- Generated by graphviz version 5.0.0 (20220707.1540)
 -->
<!-- Title: dependencies Pages: 1 -->
<svg width="1833pt" height="174pt"
 viewBox="0.00 0.00 1833.00 173.80" xmlns="http://www.w3.org/2000/svg" xmlns:xlink="http://www.w3.org/1999/xlink">
<g id="graph0" class="graph" transform="scale(1 1) rotate(0) translate(4 169.8)">
<title>dependencies</title>
<polygon fill="white" stroke="transparent" points="-4,4 -4,-169.8 1829,-169.8 1829,4 -4,4"/>
<text text-anchor="middle" x="912.5" y="-8.2" font-family="sans-serif" font-size="14.00">dependencies</text>
<g id="clust1" class="cluster">
<title>cluster_IntelligenceModule</title>
<polygon fill="none" stroke="black" stroke-dasharray="1,5" points="8,-32.8 8,-157.8 1817,-157.8 1817,-32.8 8,-32.8"/>
</g>
<g id="clust2" class="cluster">
<title>cluster_IntelligenceModule_declarations</title>
<polygon fill="none" stroke="black" points="406,-40.8 406,-92.8 1809,-92.8 1809,-40.8 406,-40.8"/>
</g>
<g id="clust11" class="cluster">
<title>cluster_IntelligenceModule_imports</title>
<polygon fill="none" stroke="black" points="212,-40.8 212,-92.8 398,-92.8 398,-40.8 212,-40.8"/>
</g>
<g id="clust14" class="cluster">
<title>cluster_IntelligenceModule_providers</title>
<polygon fill="none" stroke="black" points="16,-40.8 16,-92.8 204,-92.8 204,-40.8 16,-40.8"/>
</g>
<!-- AnalysisComponent -->
<g id="node1" class="node">
<title>AnalysisComponent</title>
<polygon fill="#ffffb3" stroke="black" points="1801.33,-84.8 1670.67,-84.8 1670.67,-48.8 1801.33,-48.8 1801.33,-84.8"/>
<text text-anchor="middle" x="1736" y="-62.6" font-family="Times,serif" font-size="14.00">AnalysisComponent</text>
</g>
<!-- IntelligenceModule -->
<g id="node9" class="node">
<title>IntelligenceModule</title>
<polygon fill="#8dd3c7" stroke="black" points="1002.63,-149.8 999.63,-153.8 978.63,-153.8 975.63,-149.8 877.37,-149.8 877.37,-113.8 1002.63,-113.8 1002.63,-149.8"/>
<text text-anchor="middle" x="940" y="-127.6" font-family="Times,serif" font-size="14.00">IntelligenceModule</text>
</g>
<!-- AnalysisComponent&#45;&gt;IntelligenceModule -->
<g id="edge1" class="edge">
<title>AnalysisComponent&#45;&gt;IntelligenceModule</title>
<path fill="none" stroke="black" d="M1736,-84.81C1736,-107.29 1736,-142.8 1736,-142.8 1736,-142.8 1012.79,-142.8 1012.79,-142.8"/>
<polygon fill="black" stroke="black" points="1012.79,-139.3 1002.79,-142.8 1012.79,-146.3 1012.79,-139.3"/>
</g>
<!-- ImportAssociationComponent -->
<g id="node2" class="node">
<title>ImportAssociationComponent</title>
<polygon fill="#ffffb3" stroke="black" points="1652.54,-84.8 1467.46,-84.8 1467.46,-48.8 1652.54,-48.8 1652.54,-84.8"/>
<text text-anchor="middle" x="1560" y="-62.6" font-family="Times,serif" font-size="14.00">ImportAssociationComponent</text>
</g>
<!-- ImportAssociationComponent&#45;&gt;IntelligenceModule -->
<g id="edge2" class="edge">
<title>ImportAssociationComponent&#45;&gt;IntelligenceModule</title>
<path fill="none" stroke="black" d="M1560,-84.93C1560,-105.37 1560,-135.8 1560,-135.8 1560,-135.8 1012.86,-135.8 1012.86,-135.8"/>
<polygon fill="black" stroke="black" points="1012.86,-132.3 1002.86,-135.8 1012.86,-139.3 1012.86,-132.3"/>
</g>
<!-- ImportCacComponent -->
<g id="node3" class="node">
<title>ImportCacComponent</title>
<polygon fill="#ffffb3" stroke="black" points="1449.7,-84.8 1308.3,-84.8 1308.3,-48.8 1449.7,-48.8 1449.7,-84.8"/>
<text text-anchor="middle" x="1379" y="-62.6" font-family="Times,serif" font-size="14.00">ImportCacComponent</text>
</g>
<!-- ImportCacComponent&#45;&gt;IntelligenceModule -->
<g id="edge3" class="edge">
<title>ImportCacComponent&#45;&gt;IntelligenceModule</title>
<path fill="none" stroke="black" d="M1379,-85.07C1379,-103.36 1379,-128.8 1379,-128.8 1379,-128.8 1012.9,-128.8 1012.9,-128.8"/>
<polygon fill="black" stroke="black" points="1012.9,-125.3 1002.9,-128.8 1012.9,-132.3 1012.9,-125.3"/>
</g>
<!-- ImportCustomComponent -->
<g id="node4" class="node">
<title>ImportCustomComponent</title>
<polygon fill="#ffffb3" stroke="black" points="1290.5,-84.8 1127.5,-84.8 1127.5,-48.8 1290.5,-48.8 1290.5,-84.8"/>
<text text-anchor="middle" x="1209" y="-62.6" font-family="Times,serif" font-size="14.00">ImportCustomComponent</text>
</g>
<!-- ImportCustomComponent&#45;&gt;IntelligenceModule -->
<g id="edge4" class="edge">
<title>ImportCustomComponent&#45;&gt;IntelligenceModule</title>
<path fill="none" stroke="black" d="M1209,-84.81C1209,-100.85 1209,-121.8 1209,-121.8 1209,-121.8 1012.73,-121.8 1012.73,-121.8"/>
<polygon fill="black" stroke="black" points="1012.73,-118.3 1002.73,-121.8 1012.73,-125.3 1012.73,-118.3"/>
</g>
<!-- ImportOthersComponent -->
<g id="node5" class="node">
<title>ImportOthersComponent</title>
<polygon fill="#ffffb3" stroke="black" points="1109.26,-84.8 952.74,-84.8 952.74,-48.8 1109.26,-48.8 1109.26,-84.8"/>
<text text-anchor="middle" x="1031" y="-62.6" font-family="Times,serif" font-size="14.00">ImportOthersComponent</text>
</g>
<!-- ImportOthersComponent&#45;&gt;IntelligenceModule -->
<g id="edge5" class="edge">
<title>ImportOthersComponent&#45;&gt;IntelligenceModule</title>
<path fill="none" stroke="black" d="M977.72,-84.91C977.72,-84.91 977.72,-103.79 977.72,-103.79"/>
<polygon fill="black" stroke="black" points="974.22,-103.79 977.72,-113.79 981.22,-103.79 974.22,-103.79"/>
</g>
<!-- ImportPlasmidaComponent -->
<g id="node6" class="node">
<title>ImportPlasmidaComponent</title>
<polygon fill="#ffffb3" stroke="black" points="934.27,-84.8 763.73,-84.8 763.73,-48.8 934.27,-48.8 934.27,-84.8"/>
<text text-anchor="middle" x="849" y="-62.6" font-family="Times,serif" font-size="14.00">ImportPlasmidaComponent</text>
</g>
<!-- ImportPlasmidaComponent&#45;&gt;IntelligenceModule -->
<g id="edge6" class="edge">
<title>ImportPlasmidaComponent&#45;&gt;IntelligenceModule</title>
<path fill="none" stroke="black" d="M905.78,-84.91C905.78,-84.91 905.78,-103.79 905.78,-103.79"/>
<polygon fill="black" stroke="black" points="902.28,-103.79 905.78,-113.79 909.28,-103.79 902.28,-103.79"/>
</g>
<!-- ImportYellowPagesComponent -->
<g id="node7" class="node">
<title>ImportYellowPagesComponent</title>
<polygon fill="#ffffb3" stroke="black" points="745.81,-84.8 552.19,-84.8 552.19,-48.8 745.81,-48.8 745.81,-84.8"/>
<text text-anchor="middle" x="649" y="-62.6" font-family="Times,serif" font-size="14.00">ImportYellowPagesComponent</text>
</g>
<!-- ImportYellowPagesComponent&#45;&gt;IntelligenceModule -->
<g id="edge7" class="edge">
<title>ImportYellowPagesComponent&#45;&gt;IntelligenceModule</title>
<path fill="none" stroke="black" d="M649,-84.81C649,-100.85 649,-121.8 649,-121.8 649,-121.8 867.22,-121.8 867.22,-121.8"/>
<polygon fill="black" stroke="black" points="867.22,-125.3 877.22,-121.8 867.22,-118.3 867.22,-125.3"/>
</g>
<!-- InsightComponent -->
<g id="node8" class="node">
<title>InsightComponent</title>
<polygon fill="#ffffb3" stroke="black" points="534.22,-84.8 413.78,-84.8 413.78,-48.8 534.22,-48.8 534.22,-84.8"/>
<text text-anchor="middle" x="474" y="-62.6" font-family="Times,serif" font-size="14.00">InsightComponent</text>
</g>
<!-- InsightComponent&#45;&gt;IntelligenceModule -->
<g id="edge8" class="edge">
<title>InsightComponent&#45;&gt;IntelligenceModule</title>
<path fill="none" stroke="black" d="M474,-85.07C474,-103.36 474,-128.8 474,-128.8 474,-128.8 867.15,-128.8 867.15,-128.8"/>
<polygon fill="black" stroke="black" points="867.15,-132.3 877.15,-128.8 867.15,-125.3 867.15,-132.3"/>
</g>
<!-- IntelligenceRoutingModule -->
<g id="node10" class="node">
<title>IntelligenceRoutingModule</title>
<polygon fill="#8dd3c7" stroke="black" points="390.25,-84.8 387.25,-88.8 366.25,-88.8 363.25,-84.8 219.75,-84.8 219.75,-48.8 390.25,-48.8 390.25,-84.8"/>
<text text-anchor="middle" x="305" y="-62.6" font-family="Times,serif" font-size="14.00">IntelligenceRoutingModule</text>
</g>
<!-- IntelligenceRoutingModule&#45;&gt;IntelligenceModule -->
<g id="edge9" class="edge">
<title>IntelligenceRoutingModule&#45;&gt;IntelligenceModule</title>
<path fill="none" stroke="black" d="M305,-84.93C305,-105.37 305,-135.8 305,-135.8 305,-135.8 867.08,-135.8 867.08,-135.8"/>
<polygon fill="black" stroke="black" points="867.08,-139.3 877.08,-135.8 867.08,-132.3 867.08,-139.3"/>
</g>
<!-- IntelligenceService -->
<g id="node11" class="node">
<title>IntelligenceService</title>
<ellipse fill="#fdb462" stroke="black" cx="110" cy="-66.8" rx="85.64" ry="18"/>
<text text-anchor="middle" x="110" y="-62.6" font-family="Times,serif" font-size="14.00">IntelligenceService</text>
</g>
<!-- IntelligenceService&#45;&gt;IntelligenceModule -->
<g id="edge10" class="edge">
<title>IntelligenceService&#45;&gt;IntelligenceModule</title>
<path fill="none" stroke="black" d="M110,-84.81C110,-107.29 110,-142.8 110,-142.8 110,-142.8 867.27,-142.8 867.27,-142.8"/>
<polygon fill="black" stroke="black" points="867.27,-146.3 877.27,-142.8 867.27,-139.3 867.27,-146.3"/>
</g>
</g>
</svg>
