<?xml version="1.0" encoding="UTF-8" standalone="no"?>
<!DOCTYPE svg PUBLIC "-//W3C//DTD SVG 1.1//EN"
 "http://www.w3.org/Graphics/SVG/1.1/DTD/svg11.dtd">
<!-- Generated by graphviz version 5.0.0 (20220707.1540)
 -->
<!-- Title: dependencies Pages: 1 -->
<svg width="984pt" height="247pt"
 viewBox="0.00 0.00 984.00 246.80" xmlns="http://www.w3.org/2000/svg" xmlns:xlink="http://www.w3.org/1999/xlink">
<g id="graph0" class="graph" transform="scale(1 1) rotate(0) translate(4 242.8)">
<title>dependencies</title>
<polygon fill="white" stroke="transparent" points="-4,4 -4,-242.8 980,-242.8 980,4 -4,4"/>
<text text-anchor="middle" x="488" y="-8.2" font-family="sans-serif" font-size="14.00">dependencies</text>
<g id="clust1" class="cluster">
<title>cluster_SharedPipesModule</title>
<polygon fill="none" stroke="black" stroke-dasharray="1,5" points="8,-32.8 8,-230.8 968,-230.8 968,-32.8 8,-32.8"/>
</g>
<g id="clust11" class="cluster">
<title>cluster_SharedPipesModule_exports</title>
<polygon fill="none" stroke="black" points="16,-170.8 16,-222.8 960,-222.8 960,-170.8 16,-170.8"/>
</g>
<g id="clust2" class="cluster">
<title>cluster_SharedPipesModule_declarations</title>
<polygon fill="none" stroke="black" points="28,-40.8 28,-92.8 949,-92.8 949,-40.8 28,-40.8"/>
</g>
<!-- ConfigureCurrency -->
<g id="node1" class="node">
<title>ConfigureCurrency</title>
<polygon fill="#ffffb3" stroke="black" points="941.36,-84.8 816.64,-84.8 816.64,-48.8 941.36,-48.8 941.36,-84.8"/>
<text text-anchor="middle" x="879" y="-62.6" font-family="Times,serif" font-size="14.00">ConfigureCurrency</text>
</g>
<!-- SharedPipesModule -->
<g id="node8" class="node">
<title>SharedPipesModule</title>
<polygon fill="#8dd3c7" stroke="black" points="550.27,-149.8 547.27,-153.8 526.27,-153.8 523.27,-149.8 421.73,-149.8 421.73,-113.8 550.27,-113.8 550.27,-149.8"/>
<text text-anchor="middle" x="486" y="-127.6" font-family="Times,serif" font-size="14.00">SharedPipesModule</text>
</g>
<!-- ConfigureCurrency&#45;&gt;SharedPipesModule -->
<g id="edge1" class="edge">
<title>ConfigureCurrency&#45;&gt;SharedPipesModule</title>
<path fill="none" stroke="black" d="M820.2,-85.07C820.2,-103.36 820.2,-128.8 820.2,-128.8 820.2,-128.8 560.44,-128.8 560.44,-128.8"/>
<polygon fill="black" stroke="black" points="560.44,-125.3 550.44,-128.8 560.44,-132.3 560.44,-125.3"/>
</g>
<!-- ConvertDatePipe -->
<g id="node2" class="node">
<title>ConvertDatePipe</title>
<polygon fill="#ffffb3" stroke="black" points="798.42,-84.8 685.58,-84.8 685.58,-48.8 798.42,-48.8 798.42,-84.8"/>
<text text-anchor="middle" x="742" y="-62.6" font-family="Times,serif" font-size="14.00">ConvertDatePipe</text>
</g>
<!-- ConvertDatePipe&#45;&gt;SharedPipesModule -->
<g id="edge2" class="edge">
<title>ConvertDatePipe&#45;&gt;SharedPipesModule</title>
<path fill="none" stroke="black" d="M762.15,-84.81C762.15,-100.85 762.15,-121.8 762.15,-121.8 762.15,-121.8 560.4,-121.8 560.4,-121.8"/>
<polygon fill="black" stroke="black" points="560.4,-118.3 550.4,-121.8 560.4,-125.3 560.4,-118.3"/>
</g>
<!-- EmailAsteriskPipe -->
<g id="node3" class="node">
<title>EmailAsteriskPipe</title>
<polygon fill="#ffffb3" stroke="black" points="667.49,-84.8 546.51,-84.8 546.51,-48.8 667.49,-48.8 667.49,-84.8"/>
<text text-anchor="middle" x="607" y="-62.6" font-family="Times,serif" font-size="14.00">EmailAsteriskPipe</text>
</g>
<!-- EmailAsteriskPipe&#45;&gt;SharedPipesModule -->
<g id="edge3" class="edge">
<title>EmailAsteriskPipe&#45;&gt;SharedPipesModule</title>
<path fill="none" stroke="black" d="M546.46,-66.8C540.93,-66.8 537.36,-66.8 537.36,-66.8 537.36,-66.8 537.36,-103.69 537.36,-103.69"/>
<polygon fill="black" stroke="black" points="533.86,-103.69 537.36,-113.69 540.86,-103.69 533.86,-103.69"/>
</g>
<!-- ExcerptPipe -->
<g id="node4" class="node">
<title>ExcerptPipe</title>
<polygon fill="#ffffb3" stroke="black" points="528.42,-84.8 443.58,-84.8 443.58,-48.8 528.42,-48.8 528.42,-84.8"/>
<text text-anchor="middle" x="486" y="-62.6" font-family="Times,serif" font-size="14.00">ExcerptPipe</text>
</g>
<!-- ExcerptPipe&#45;&gt;SharedPipesModule -->
<g id="edge4" class="edge">
<title>ExcerptPipe&#45;&gt;SharedPipesModule</title>
<path fill="none" stroke="black" d="M486,-84.91C486,-84.91 486,-103.79 486,-103.79"/>
<polygon fill="black" stroke="black" points="482.5,-103.79 486,-113.79 489.5,-103.79 482.5,-103.79"/>
</g>
<!-- GetValueByKeyPipe -->
<g id="node5" class="node">
<title>GetValueByKeyPipe</title>
<polygon fill="#ffffb3" stroke="black" points="426.19,-84.8 291.81,-84.8 291.81,-48.8 426.19,-48.8 426.19,-84.8"/>
<text text-anchor="middle" x="359" y="-62.6" font-family="Times,serif" font-size="14.00">GetValueByKeyPipe</text>
</g>
<!-- GetValueByKeyPipe&#45;&gt;SharedPipesModule -->
<g id="edge5" class="edge">
<title>GetValueByKeyPipe&#45;&gt;SharedPipesModule</title>
<path fill="none" stroke="black" d="M426.23,-66.8C431.56,-66.8 434.94,-66.8 434.94,-66.8 434.94,-66.8 434.94,-103.69 434.94,-103.69"/>
<polygon fill="black" stroke="black" points="431.44,-103.69 434.94,-113.69 438.44,-103.69 431.44,-103.69"/>
</g>
<!-- RelativeTimePipe -->
<g id="node6" class="node">
<title>RelativeTimePipe</title>
<polygon fill="#ffffb3" stroke="black" points="273.58,-84.8 156.42,-84.8 156.42,-48.8 273.58,-48.8 273.58,-84.8"/>
<text text-anchor="middle" x="215" y="-62.6" font-family="Times,serif" font-size="14.00">RelativeTimePipe</text>
</g>
<!-- RelativeTimePipe&#45;&gt;SharedPipesModule -->
<g id="edge6" class="edge">
<title>RelativeTimePipe&#45;&gt;SharedPipesModule</title>
<path fill="none" stroke="black" d="M231.01,-84.81C231.01,-100.85 231.01,-121.8 231.01,-121.8 231.01,-121.8 411.66,-121.8 411.66,-121.8"/>
<polygon fill="black" stroke="black" points="411.66,-125.3 421.66,-121.8 411.66,-118.3 411.66,-125.3"/>
</g>
<!-- ToNumberPipe -->
<g id="node7" class="node">
<title>ToNumberPipe</title>
<polygon fill="#ffffb3" stroke="black" points="138.32,-84.8 35.68,-84.8 35.68,-48.8 138.32,-48.8 138.32,-84.8"/>
<text text-anchor="middle" x="87" y="-62.6" font-family="Times,serif" font-size="14.00">ToNumberPipe</text>
</g>
<!-- ToNumberPipe&#45;&gt;SharedPipesModule -->
<g id="edge7" class="edge">
<title>ToNumberPipe&#45;&gt;SharedPipesModule</title>
<path fill="none" stroke="black" d="M134.03,-85.07C134.03,-103.36 134.03,-128.8 134.03,-128.8 134.03,-128.8 411.44,-128.8 411.44,-128.8"/>
<polygon fill="black" stroke="black" points="411.44,-132.3 421.44,-128.8 411.44,-125.3 411.44,-132.3"/>
</g>
<!-- ConfigureCurrency  -->
<g id="node9" class="node">
<title>ConfigureCurrency </title>
<polygon fill="#fb8072" stroke="black" points="952.36,-214.8 823.64,-214.8 823.64,-178.8 952.36,-178.8 952.36,-214.8"/>
<text text-anchor="middle" x="888" y="-192.6" font-family="Times,serif" font-size="14.00">ConfigureCurrency </text>
</g>
<!-- SharedPipesModule&#45;&gt;ConfigureCurrency  -->
<g id="edge8" class="edge">
<title>SharedPipesModule&#45;&gt;ConfigureCurrency </title>
<path fill="none" stroke="black" stroke-dasharray="5,2" d="M550.61,-135.8C663,-135.8 882.62,-135.8 882.62,-135.8 882.62,-135.8 882.62,-168.5 882.62,-168.5"/>
<polygon fill="black" stroke="black" points="879.13,-168.5 882.62,-178.5 886.13,-168.5 879.13,-168.5"/>
</g>
<!-- ConvertDatePipe  -->
<g id="node10" class="node">
<title>ConvertDatePipe </title>
<polygon fill="#fb8072" stroke="black" points="805.92,-214.8 690.08,-214.8 690.08,-178.8 805.92,-178.8 805.92,-214.8"/>
<text text-anchor="middle" x="748" y="-192.6" font-family="Times,serif" font-size="14.00">ConvertDatePipe </text>
</g>
<!-- SharedPipesModule&#45;&gt;ConvertDatePipe  -->
<g id="edge9" class="edge">
<title>SharedPipesModule&#45;&gt;ConvertDatePipe </title>
<path fill="none" stroke="black" stroke-dasharray="5,2" d="M550.34,-142.8C621.46,-142.8 726.1,-142.8 726.1,-142.8 726.1,-142.8 726.1,-168.52 726.1,-168.52"/>
<polygon fill="black" stroke="black" points="722.6,-168.52 726.1,-178.52 729.6,-168.52 722.6,-168.52"/>
</g>
<!-- EmailAsteriskPipe  -->
<g id="node11" class="node">
<title>EmailAsteriskPipe </title>
<polygon fill="#fb8072" stroke="black" points="672.49,-214.8 547.51,-214.8 547.51,-178.8 672.49,-178.8 672.49,-214.8"/>
<text text-anchor="middle" x="610" y="-192.6" font-family="Times,serif" font-size="14.00">EmailAsteriskPipe </text>
</g>
<!-- SharedPipesModule&#45;&gt;EmailAsteriskPipe  -->
<g id="edge10" class="edge">
<title>SharedPipesModule&#45;&gt;EmailAsteriskPipe </title>
<path fill="none" stroke="black" stroke-dasharray="5,2" d="M538.86,-149.91C538.86,-169.14 538.86,-196.8 538.86,-196.8 538.86,-196.8 539.73,-196.8 539.73,-196.8"/>
<polygon fill="black" stroke="black" points="537.58,-200.3 547.58,-196.8 537.58,-193.3 537.58,-200.3"/>
</g>
<!-- ExcerptPipe  -->
<g id="node12" class="node">
<title>ExcerptPipe </title>
<polygon fill="#fb8072" stroke="black" points="529.92,-214.8 442.08,-214.8 442.08,-178.8 529.92,-178.8 529.92,-214.8"/>
<text text-anchor="middle" x="486" y="-192.6" font-family="Times,serif" font-size="14.00">ExcerptPipe </text>
</g>
<!-- SharedPipesModule&#45;&gt;ExcerptPipe  -->
<g id="edge11" class="edge">
<title>SharedPipesModule&#45;&gt;ExcerptPipe </title>
<path fill="none" stroke="black" stroke-dasharray="5,2" d="M486,-149.91C486,-149.91 486,-168.79 486,-168.79"/>
<polygon fill="black" stroke="black" points="482.5,-168.79 486,-178.79 489.5,-168.79 482.5,-168.79"/>
</g>
<!-- GetValueByKeyPipe  -->
<g id="node13" class="node">
<title>GetValueByKeyPipe </title>
<polygon fill="#fb8072" stroke="black" points="423.69,-214.8 286.31,-214.8 286.31,-178.8 423.69,-178.8 423.69,-214.8"/>
<text text-anchor="middle" x="355" y="-192.6" font-family="Times,serif" font-size="14.00">GetValueByKeyPipe </text>
</g>
<!-- SharedPipesModule&#45;&gt;GetValueByKeyPipe  -->
<g id="edge12" class="edge">
<title>SharedPipesModule&#45;&gt;GetValueByKeyPipe </title>
<path fill="none" stroke="black" stroke-dasharray="5,2" d="M432.94,-149.91C432.94,-169.14 432.94,-196.8 432.94,-196.8 432.94,-196.8 432.02,-196.8 432.02,-196.8"/>
<polygon fill="black" stroke="black" points="433.7,-193.3 423.7,-196.8 433.7,-200.3 433.7,-193.3"/>
</g>
<!-- RelativeTimePipe  -->
<g id="node14" class="node">
<title>RelativeTimePipe </title>
<polygon fill="#fb8072" stroke="black" points="268.08,-214.8 147.92,-214.8 147.92,-178.8 268.08,-178.8 268.08,-214.8"/>
<text text-anchor="middle" x="208" y="-192.6" font-family="Times,serif" font-size="14.00">RelativeTimePipe </text>
</g>
<!-- SharedPipesModule&#45;&gt;RelativeTimePipe  -->
<g id="edge13" class="edge">
<title>SharedPipesModule&#45;&gt;RelativeTimePipe </title>
<path fill="none" stroke="black" stroke-dasharray="5,2" d="M421.5,-142.8C335.43,-142.8 193.74,-142.8 193.74,-142.8 193.74,-142.8 193.74,-168.52 193.74,-168.52"/>
<polygon fill="black" stroke="black" points="190.24,-168.52 193.74,-178.52 197.24,-168.52 190.24,-168.52"/>
</g>
<!-- ToNumberPipe  -->
<g id="node15" class="node">
<title>ToNumberPipe </title>
<polygon fill="#fb8072" stroke="black" points="129.82,-214.8 24.18,-214.8 24.18,-178.8 129.82,-178.8 129.82,-214.8"/>
<text text-anchor="middle" x="77" y="-192.6" font-family="Times,serif" font-size="14.00">ToNumberPipe </text>
</g>
<!-- SharedPipesModule&#45;&gt;ToNumberPipe  -->
<g id="edge14" class="edge">
<title>SharedPipesModule&#45;&gt;ToNumberPipe </title>
<path fill="none" stroke="black" stroke-dasharray="5,2" d="M421.68,-135.8C307.86,-135.8 82.88,-135.8 82.88,-135.8 82.88,-135.8 82.88,-168.5 82.88,-168.5"/>
<polygon fill="black" stroke="black" points="79.38,-168.5 82.88,-178.5 86.38,-168.5 79.38,-168.5"/>
</g>
</g>
</svg>
