<?xml version="1.0" encoding="UTF-8" standalone="no"?>
<!DOCTYPE svg PUBLIC "-//W3C//DTD SVG 1.1//EN"
 "http://www.w3.org/Graphics/SVG/1.1/DTD/svg11.dtd">
<!-- Generated by graphviz version 5.0.0 (20220707.1540)
 -->
<!-- Title: dependencies Pages: 1 -->
<svg width="861pt" height="174pt"
 viewBox="0.00 0.00 861.00 173.80" xmlns="http://www.w3.org/2000/svg" xmlns:xlink="http://www.w3.org/1999/xlink">
<g id="graph0" class="graph" transform="scale(1 1) rotate(0) translate(4 169.8)">
<title>dependencies</title>
<polygon fill="white" stroke="transparent" points="-4,4 -4,-169.8 857,-169.8 857,4 -4,4"/>
<text text-anchor="middle" x="426.5" y="-8.2" font-family="sans-serif" font-size="14.00">dependencies</text>
<g id="clust1" class="cluster">
<title>cluster_RegisterModule</title>
<polygon fill="none" stroke="black" stroke-dasharray="1,5" points="8,-32.8 8,-157.8 845,-157.8 845,-32.8 8,-32.8"/>
</g>
<g id="clust7" class="cluster">
<title>cluster_RegisterModule_imports</title>
<polygon fill="none" stroke="black" points="669,-40.8 669,-92.8 837,-92.8 837,-40.8 669,-40.8"/>
</g>
<g id="clust2" class="cluster">
<title>cluster_RegisterModule_declarations</title>
<polygon fill="none" stroke="black" points="16,-40.8 16,-92.8 661,-92.8 661,-40.8 16,-40.8"/>
</g>
<!-- SignupComponent -->
<g id="node1" class="node">
<title>SignupComponent</title>
<polygon fill="#ffffb3" stroke="black" points="652.51,-84.8 531.49,-84.8 531.49,-48.8 652.51,-48.8 652.51,-84.8"/>
<text text-anchor="middle" x="592" y="-62.6" font-family="Times,serif" font-size="14.00">SignupComponent</text>
</g>
<!-- RegisterModule -->
<g id="node5" class="node">
<title>RegisterModule</title>
<polygon fill="#8dd3c7" stroke="black" points="499.21,-149.8 496.21,-153.8 475.21,-153.8 472.21,-149.8 392.79,-149.8 392.79,-113.8 499.21,-113.8 499.21,-149.8"/>
<text text-anchor="middle" x="446" y="-127.6" font-family="Times,serif" font-size="14.00">RegisterModule</text>
</g>
<!-- SignupComponent&#45;&gt;RegisterModule -->
<g id="edge1" class="edge">
<title>SignupComponent&#45;&gt;RegisterModule</title>
<path fill="none" stroke="black" d="M592,-84.82C592,-102.17 592,-125.8 592,-125.8 592,-125.8 509.12,-125.8 509.12,-125.8"/>
<polygon fill="black" stroke="black" points="509.12,-122.3 499.12,-125.8 509.12,-129.3 509.12,-122.3"/>
</g>
<!-- SignupwtComponent -->
<g id="node2" class="node">
<title>SignupwtComponent</title>
<polygon fill="#ffffb3" stroke="black" points="513.51,-84.8 378.49,-84.8 378.49,-48.8 513.51,-48.8 513.51,-84.8"/>
<text text-anchor="middle" x="446" y="-62.6" font-family="Times,serif" font-size="14.00">SignupwtComponent</text>
</g>
<!-- SignupwtComponent&#45;&gt;RegisterModule -->
<g id="edge2" class="edge">
<title>SignupwtComponent&#45;&gt;RegisterModule</title>
<path fill="none" stroke="black" d="M446,-84.91C446,-84.91 446,-103.79 446,-103.79"/>
<polygon fill="black" stroke="black" points="442.5,-103.79 446,-113.79 449.5,-103.79 442.5,-103.79"/>
</g>
<!-- SignupwtJTBComponent -->
<g id="node3" class="node">
<title>SignupwtJTBComponent</title>
<polygon fill="#ffffb3" stroke="black" points="360.35,-84.8 201.65,-84.8 201.65,-48.8 360.35,-48.8 360.35,-84.8"/>
<text text-anchor="middle" x="281" y="-62.6" font-family="Times,serif" font-size="14.00">SignupwtJTBComponent</text>
</g>
<!-- SignupwtJTBComponent&#45;&gt;RegisterModule -->
<g id="edge3" class="edge">
<title>SignupwtJTBComponent&#45;&gt;RegisterModule</title>
<path fill="none" stroke="black" d="M281,-84.82C281,-102.17 281,-125.8 281,-125.8 281,-125.8 382.88,-125.8 382.88,-125.8"/>
<polygon fill="black" stroke="black" points="382.88,-129.3 392.88,-125.8 382.88,-122.3 382.88,-129.3"/>
</g>
<!-- SignupwtNINComponent -->
<g id="node4" class="node">
<title>SignupwtNINComponent</title>
<polygon fill="#ffffb3" stroke="black" points="183.89,-84.8 24.11,-84.8 24.11,-48.8 183.89,-48.8 183.89,-84.8"/>
<text text-anchor="middle" x="104" y="-62.6" font-family="Times,serif" font-size="14.00">SignupwtNINComponent</text>
</g>
<!-- SignupwtNINComponent&#45;&gt;RegisterModule -->
<g id="edge4" class="edge">
<title>SignupwtNINComponent&#45;&gt;RegisterModule</title>
<path fill="none" stroke="black" d="M104,-85.08C104,-106.12 104,-137.8 104,-137.8 104,-137.8 382.56,-137.8 382.56,-137.8"/>
<polygon fill="black" stroke="black" points="382.56,-141.3 392.56,-137.8 382.56,-134.3 382.56,-141.3"/>
</g>
<!-- SessionsRoutingModule -->
<g id="node6" class="node">
<title>SessionsRoutingModule</title>
<polygon fill="#8dd3c7" stroke="black" points="829.4,-84.8 826.4,-88.8 805.4,-88.8 802.4,-84.8 676.6,-84.8 676.6,-48.8 829.4,-48.8 829.4,-84.8"/>
<text text-anchor="middle" x="753" y="-62.6" font-family="Times,serif" font-size="14.00">SessionsRoutingModule</text>
</g>
<!-- SessionsRoutingModule&#45;&gt;RegisterModule -->
<g id="edge5" class="edge">
<title>SessionsRoutingModule&#45;&gt;RegisterModule</title>
<path fill="none" stroke="black" d="M753,-85.08C753,-106.12 753,-137.8 753,-137.8 753,-137.8 509.12,-137.8 509.12,-137.8"/>
<polygon fill="black" stroke="black" points="509.12,-134.3 499.12,-137.8 509.12,-141.3 509.12,-134.3"/>
</g>
</g>
</svg>
