<?xml version="1.0" encoding="UTF-8" standalone="no"?>
<!DOCTYPE svg PUBLIC "-//W3C//DTD SVG 1.1//EN"
 "http://www.w3.org/Graphics/SVG/1.1/DTD/svg11.dtd">
<!-- Generated by graphviz version 5.0.0 (20220707.1540)
 -->
<!-- Title: dependencies Pages: 1 -->
<svg width="1913pt" height="174pt"
 viewBox="0.00 0.00 1913.00 173.80" xmlns="http://www.w3.org/2000/svg" xmlns:xlink="http://www.w3.org/1999/xlink">
<g id="graph0" class="graph" transform="scale(1 1) rotate(0) translate(4 169.8)">
<title>dependencies</title>
<polygon fill="white" stroke="transparent" points="-4,4 -4,-169.8 1909,-169.8 1909,4 -4,4"/>
<text text-anchor="middle" x="952.5" y="-8.2" font-family="sans-serif" font-size="14.00">dependencies</text>
<g id="clust1" class="cluster">
<title>cluster_RevenueReturnModule</title>
<polygon fill="none" stroke="black" stroke-dasharray="1,5" points="8,-32.8 8,-157.8 1897,-157.8 1897,-32.8 8,-32.8"/>
</g>
<g id="clust2" class="cluster">
<title>cluster_RevenueReturnModule_declarations</title>
<polygon fill="none" stroke="black" points="232,-40.8 232,-92.8 1889,-92.8 1889,-40.8 232,-40.8"/>
</g>
<g id="clust9" class="cluster">
<title>cluster_RevenueReturnModule_imports</title>
<polygon fill="none" stroke="black" points="16,-40.8 16,-92.8 224,-92.8 224,-40.8 16,-40.8"/>
</g>
<!-- CorporateRevenueReturnComponent -->
<g id="node1" class="node">
<title>CorporateRevenueReturnComponent</title>
<polygon fill="#ffffb3" stroke="black" points="1881.39,-84.8 1656.61,-84.8 1656.61,-48.8 1881.39,-48.8 1881.39,-84.8"/>
<text text-anchor="middle" x="1769" y="-62.6" font-family="Times,serif" font-size="14.00">CorporateRevenueReturnComponent</text>
</g>
<!-- RevenueReturnModule -->
<g id="node7" class="node">
<title>RevenueReturnModule</title>
<polygon fill="#8dd3c7" stroke="black" points="1025.14,-149.8 1022.14,-153.8 1001.14,-153.8 998.14,-149.8 878.86,-149.8 878.86,-113.8 1025.14,-113.8 1025.14,-149.8"/>
<text text-anchor="middle" x="952" y="-127.6" font-family="Times,serif" font-size="14.00">RevenueReturnModule</text>
</g>
<!-- CorporateRevenueReturnComponent&#45;&gt;RevenueReturnModule -->
<g id="edge1" class="edge">
<title>CorporateRevenueReturnComponent&#45;&gt;RevenueReturnModule</title>
<path fill="none" stroke="black" d="M1769,-85.09C1769,-107.01 1769,-140.8 1769,-140.8 1769,-140.8 1035.22,-140.8 1035.22,-140.8"/>
<polygon fill="black" stroke="black" points="1035.22,-137.3 1025.22,-140.8 1035.22,-144.3 1035.22,-137.3"/>
</g>
<!-- IndividualRevenueReturnsComponent -->
<g id="node2" class="node">
<title>IndividualRevenueReturnsComponent</title>
<polygon fill="#ffffb3" stroke="black" points="1638.91,-84.8 1407.09,-84.8 1407.09,-48.8 1638.91,-48.8 1638.91,-84.8"/>
<text text-anchor="middle" x="1523" y="-62.6" font-family="Times,serif" font-size="14.00">IndividualRevenueReturnsComponent</text>
</g>
<!-- IndividualRevenueReturnsComponent&#45;&gt;RevenueReturnModule -->
<g id="edge2" class="edge">
<title>IndividualRevenueReturnsComponent&#45;&gt;RevenueReturnModule</title>
<path fill="none" stroke="black" d="M1523,-84.91C1523,-104.14 1523,-131.8 1523,-131.8 1523,-131.8 1035.19,-131.8 1035.19,-131.8"/>
<polygon fill="black" stroke="black" points="1035.19,-128.3 1025.19,-131.8 1035.19,-135.3 1035.19,-128.3"/>
</g>
<!-- PreviousRevenueReturnAssessmentComponent -->
<g id="node3" class="node">
<title>PreviousRevenueReturnAssessmentComponent</title>
<polygon fill="#ffffb3" stroke="black" points="1389.52,-84.8 1106.48,-84.8 1106.48,-48.8 1389.52,-48.8 1389.52,-84.8"/>
<text text-anchor="middle" x="1248" y="-62.6" font-family="Times,serif" font-size="14.00">PreviousRevenueReturnAssessmentComponent</text>
</g>
<!-- PreviousRevenueReturnAssessmentComponent&#45;&gt;RevenueReturnModule -->
<g id="edge3" class="edge">
<title>PreviousRevenueReturnAssessmentComponent&#45;&gt;RevenueReturnModule</title>
<path fill="none" stroke="black" d="M1248,-84.83C1248,-101.2 1248,-122.8 1248,-122.8 1248,-122.8 1035.17,-122.8 1035.17,-122.8"/>
<polygon fill="black" stroke="black" points="1035.17,-119.3 1025.17,-122.8 1035.17,-126.3 1035.17,-119.3"/>
</g>
<!-- PreviousRevenueReturnCorporateComponent -->
<g id="node4" class="node">
<title>PreviousRevenueReturnCorporateComponent</title>
<polygon fill="#ffffb3" stroke="black" points="1088.89,-84.8 815.11,-84.8 815.11,-48.8 1088.89,-48.8 1088.89,-84.8"/>
<text text-anchor="middle" x="952" y="-62.6" font-family="Times,serif" font-size="14.00">PreviousRevenueReturnCorporateComponent</text>
</g>
<!-- PreviousRevenueReturnCorporateComponent&#45;&gt;RevenueReturnModule -->
<g id="edge4" class="edge">
<title>PreviousRevenueReturnCorporateComponent&#45;&gt;RevenueReturnModule</title>
<path fill="none" stroke="black" d="M952,-84.91C952,-84.91 952,-103.79 952,-103.79"/>
<polygon fill="black" stroke="black" points="948.5,-103.79 952,-113.79 955.5,-103.79 948.5,-103.79"/>
</g>
<!-- PreviousRevenueReturnsComponent -->
<g id="node5" class="node">
<title>PreviousRevenueReturnsComponent</title>
<polygon fill="#ffffb3" stroke="black" points="797.36,-84.8 574.64,-84.8 574.64,-48.8 797.36,-48.8 797.36,-84.8"/>
<text text-anchor="middle" x="686" y="-62.6" font-family="Times,serif" font-size="14.00">PreviousRevenueReturnsComponent</text>
</g>
<!-- PreviousRevenueReturnsComponent&#45;&gt;RevenueReturnModule -->
<g id="edge5" class="edge">
<title>PreviousRevenueReturnsComponent&#45;&gt;RevenueReturnModule</title>
<path fill="none" stroke="black" d="M686,-84.83C686,-101.2 686,-122.8 686,-122.8 686,-122.8 868.61,-122.8 868.61,-122.8"/>
<polygon fill="black" stroke="black" points="868.61,-126.3 878.61,-122.8 868.61,-119.3 868.61,-126.3"/>
</g>
<!-- ViewIndividualRevenuReturnAssessmentComponent -->
<g id="node6" class="node">
<title>ViewIndividualRevenuReturnAssessmentComponent</title>
<polygon fill="#ffffb3" stroke="black" points="556.18,-84.8 239.82,-84.8 239.82,-48.8 556.18,-48.8 556.18,-84.8"/>
<text text-anchor="middle" x="398" y="-62.6" font-family="Times,serif" font-size="14.00">ViewIndividualRevenuReturnAssessmentComponent</text>
</g>
<!-- ViewIndividualRevenuReturnAssessmentComponent&#45;&gt;RevenueReturnModule -->
<g id="edge6" class="edge">
<title>ViewIndividualRevenuReturnAssessmentComponent&#45;&gt;RevenueReturnModule</title>
<path fill="none" stroke="black" d="M398,-84.91C398,-104.14 398,-131.8 398,-131.8 398,-131.8 868.72,-131.8 868.72,-131.8"/>
<polygon fill="black" stroke="black" points="868.72,-135.3 878.72,-131.8 868.72,-128.3 868.72,-135.3"/>
</g>
<!-- RevenueReturnRoutingModule -->
<g id="node8" class="node">
<title>RevenueReturnRoutingModule</title>
<polygon fill="#8dd3c7" stroke="black" points="215.75,-84.8 212.75,-88.8 191.75,-88.8 188.75,-84.8 24.25,-84.8 24.25,-48.8 215.75,-48.8 215.75,-84.8"/>
<text text-anchor="middle" x="120" y="-62.6" font-family="Times,serif" font-size="14.00">RevenueReturnRoutingModule</text>
</g>
<!-- RevenueReturnRoutingModule&#45;&gt;RevenueReturnModule -->
<g id="edge7" class="edge">
<title>RevenueReturnRoutingModule&#45;&gt;RevenueReturnModule</title>
<path fill="none" stroke="black" d="M120,-85.09C120,-107.01 120,-140.8 120,-140.8 120,-140.8 868.53,-140.8 868.53,-140.8"/>
<polygon fill="black" stroke="black" points="868.53,-144.3 878.53,-140.8 868.53,-137.3 868.53,-144.3"/>
</g>
</g>
</svg>
