<?xml version="1.0" encoding="UTF-8" standalone="no"?>
<!DOCTYPE svg PUBLIC "-//W3C//DTD SVG 1.1//EN"
 "http://www.w3.org/Graphics/SVG/1.1/DTD/svg11.dtd">
<!-- Generated by graphviz version 5.0.0 (20220707.1540)
 -->
<!-- Title: dependencies Pages: 1 -->
<svg width="586pt" height="174pt"
 viewBox="0.00 0.00 586.00 173.80" xmlns="http://www.w3.org/2000/svg" xmlns:xlink="http://www.w3.org/1999/xlink">
<g id="graph0" class="graph" transform="scale(1 1) rotate(0) translate(4 169.8)">
<title>dependencies</title>
<polygon fill="white" stroke="transparent" points="-4,4 -4,-169.8 582,-169.8 582,4 -4,4"/>
<text text-anchor="middle" x="289" y="-8.2" font-family="sans-serif" font-size="14.00">dependencies</text>
<g id="clust1" class="cluster">
<title>cluster_CalendarAppModule</title>
<polygon fill="none" stroke="black" stroke-dasharray="1,5" points="8,-32.8 8,-157.8 570,-157.8 570,-32.8 8,-32.8"/>
</g>
<g id="clust2" class="cluster">
<title>cluster_CalendarAppModule_declarations</title>
<polygon fill="none" stroke="black" points="196,-40.8 196,-92.8 562,-92.8 562,-40.8 196,-40.8"/>
</g>
<g id="clust5" class="cluster">
<title>cluster_CalendarAppModule_imports</title>
<polygon fill="none" stroke="black" points="16,-40.8 16,-92.8 188,-92.8 188,-40.8 16,-40.8"/>
</g>
<!-- CalendarComponent -->
<g id="node1" class="node">
<title>CalendarComponent</title>
<polygon fill="#ffffb3" stroke="black" points="553.86,-84.8 422.14,-84.8 422.14,-48.8 553.86,-48.8 553.86,-84.8"/>
<text text-anchor="middle" x="488" y="-62.6" font-family="Times,serif" font-size="14.00">CalendarComponent</text>
</g>
<!-- CalendarAppModule -->
<g id="node3" class="node">
<title>CalendarAppModule</title>
<polygon fill="#8dd3c7" stroke="black" points="371.19,-149.8 368.19,-153.8 347.19,-153.8 344.19,-149.8 236.81,-149.8 236.81,-113.8 371.19,-113.8 371.19,-149.8"/>
<text text-anchor="middle" x="304" y="-127.6" font-family="Times,serif" font-size="14.00">CalendarAppModule</text>
</g>
<!-- CalendarComponent&#45;&gt;CalendarAppModule -->
<g id="edge1" class="edge">
<title>CalendarComponent&#45;&gt;CalendarAppModule</title>
<path fill="none" stroke="black" d="M488,-84.91C488,-104.14 488,-131.8 488,-131.8 488,-131.8 381.21,-131.8 381.21,-131.8"/>
<polygon fill="black" stroke="black" points="381.21,-128.3 371.21,-131.8 381.21,-135.3 381.21,-128.3"/>
</g>
<!-- CalendarFormDialogComponent -->
<g id="node2" class="node">
<title>CalendarFormDialogComponent</title>
<polygon fill="#ffffb3" stroke="black" points="404.3,-84.8 203.7,-84.8 203.7,-48.8 404.3,-48.8 404.3,-84.8"/>
<text text-anchor="middle" x="304" y="-62.6" font-family="Times,serif" font-size="14.00">CalendarFormDialogComponent</text>
</g>
<!-- CalendarFormDialogComponent&#45;&gt;CalendarAppModule -->
<g id="edge2" class="edge">
<title>CalendarFormDialogComponent&#45;&gt;CalendarAppModule</title>
<path fill="none" stroke="black" d="M304,-84.91C304,-84.91 304,-103.79 304,-103.79"/>
<polygon fill="black" stroke="black" points="300.5,-103.79 304,-113.79 307.5,-103.79 300.5,-103.79"/>
</g>
<!-- CalendarRoutingModule -->
<g id="node4" class="node">
<title>CalendarRoutingModule</title>
<polygon fill="#8dd3c7" stroke="black" points="179.7,-84.8 176.7,-88.8 155.7,-88.8 152.7,-84.8 24.3,-84.8 24.3,-48.8 179.7,-48.8 179.7,-84.8"/>
<text text-anchor="middle" x="102" y="-62.6" font-family="Times,serif" font-size="14.00">CalendarRoutingModule</text>
</g>
<!-- CalendarRoutingModule&#45;&gt;CalendarAppModule -->
<g id="edge3" class="edge">
<title>CalendarRoutingModule&#45;&gt;CalendarAppModule</title>
<path fill="none" stroke="black" d="M102,-84.91C102,-104.14 102,-131.8 102,-131.8 102,-131.8 226.74,-131.8 226.74,-131.8"/>
<polygon fill="black" stroke="black" points="226.74,-135.3 236.74,-131.8 226.74,-128.3 226.74,-135.3"/>
</g>
</g>
</svg>
